<svg width="18" height="18" viewBox="0 0 18 18" fill="none" xmlns="http://www.w3.org/2000/svg">
<path d="M7.5 13.5L6.96967 12.9697L6.43934 13.5L6.96967 14.0303L7.5 13.5ZM9.96967 9.96967L6.96967 12.9697L8.03033 14.0303L11.0303 11.0303L9.96967 9.96967ZM6.96967 14.0303L9.96967 17.0303L11.0303 15.9697L8.03033 12.9697L6.96967 14.0303Z" fill="#E4E7ED"/>
<path d="M4.45337 10.875C3.85857 9.84477 3.63128 8.64308 3.80875 7.46679C3.98622 6.2905 4.55791 5.20936 5.43018 4.40047C6.30245 3.59158 7.42357 3.10291 8.60989 3.01451C9.7962 2.92612 10.9774 3.24324 11.9599 3.91392C12.9424 4.5846 13.668 5.56908 14.0178 6.70608C14.3677 7.84308 14.321 9.06518 13.8855 10.1722C13.4499 11.2792 12.6513 12.2054 11.6205 12.7992C10.5897 13.393 9.38777 13.6191 8.21166 13.4405" stroke="#E4E7ED" stroke-width="1.5" stroke-linecap="round"/>
</svg>
