<svg width="32" height="32" viewBox="0 0 32 32" fill="none" xmlns="http://www.w3.org/2000/svg">
<circle cx="16" cy="16" r="16" fill="#FFD75E"/>
<path d="M8.00391 18.1482L11.9942 17.8692" stroke="#EDB81B" stroke-width="1.5" stroke-linecap="round"/>
<path d="M20.0039 17.8518L23.9942 18.1308" stroke="#EDB81B" stroke-width="1.5" stroke-linecap="round"/>
<path d="M16 23C17.9975 23 19.1083 24.33 19.6277 25.2189C19.822 25.5515 19.5269 25.9069 19.1473 25.8414C18.2982 25.695 16.9831 25.5 16 25.5C15.0169 25.5 13.7019 25.695 12.8527 25.8414C12.4731 25.9069 12.178 25.5515 12.3723 25.2189C12.8917 24.33 14.0025 23 16 23Z" fill="#EDB81B"/>
<path d="M4.36719 10.9966C4.36719 9.82139 5.38035 8.50495 6.11719 7.61133C6.85403 8.50495 7.86719 9.82139 7.86719 10.9966C7.86719 12.1688 7.08369 12.8613 6.11719 12.8613C5.15069 12.8613 4.36719 12.1688 4.36719 10.9966Z" fill="#FFEFBE"/>
</svg>
