<svg width="64" height="48" viewBox="0 0 64 48" fill="none" xmlns="http://www.w3.org/2000/svg">
<path opacity="0.67" d="M17.1702 4.80875C17.079 4.75609 17.0032 4.68035 16.9506 4.58914L14.8988 1.03535C14.6679 0.635351 14.0905 0.635352 13.8596 1.03535L11.8072 4.59011C11.7546 4.68132 11.6788 4.75706 11.5876 4.80972L8.03437 6.86119C7.63437 7.09213 7.63438 7.66948 8.03438 7.90042L12.1597 10.2822C12.2509 10.3349 12.3267 10.4106 12.3793 10.5018L13.8607 13.0676C14.0916 13.4676 14.669 13.4676 14.8999 13.0676L16.3818 10.5008C16.4345 10.4096 16.5102 10.3339 16.6014 10.2812L20.7251 7.90042C21.1251 7.66948 21.1251 7.09213 20.7251 6.86119L17.1702 4.80875Z" fill="#70BBF6"/>
<path opacity="0.9" fill-rule="evenodd" clip-rule="evenodd" d="M60.259 14.3116C60.1678 14.2589 60.092 14.1832 60.0394 14.092L58.1964 10.8999C57.9655 10.4999 57.3881 10.4999 57.1572 10.8999L55.3117 14.0963C55.2591 14.1875 55.1833 14.2632 55.0921 14.3159L51.9016 16.158C51.5016 16.3889 51.5016 16.9663 51.9016 17.1972L55.6194 19.3437C55.7106 19.3964 55.7864 19.4721 55.8391 19.5633L57.1583 21.8483C57.3892 22.2483 57.9666 22.2483 58.1975 21.8483L59.5153 19.5658C59.568 19.4746 59.6437 19.3988 59.7349 19.3462L63.457 17.1972C63.857 16.9663 63.857 16.3889 63.457 16.158L60.259 14.3116Z" fill="#70BBF6"/>
<path opacity="0.8" fill-rule="evenodd" clip-rule="evenodd" d="M7.65484 41.5669C7.56363 41.5143 7.48789 41.4385 7.43522 41.3473L6.02219 38.8999C5.79125 38.4999 5.2139 38.4999 4.98296 38.8999L3.56897 41.3489C3.51631 41.4402 3.44057 41.5159 3.34936 41.5686L0.901562 42.9818C0.501563 43.2127 0.501563 43.7901 0.901563 44.021L3.7794 45.6825C3.87061 45.7352 3.94635 45.8109 3.99901 45.9022L4.98094 47.6029C5.21188 48.0029 5.78923 48.0029 6.02017 47.6029L6.99914 45.9073C7.0518 45.8161 7.12754 45.7403 7.21875 45.6877L10.1055 44.021C10.5055 43.7901 10.5055 43.2127 10.1055 42.9818L7.65484 41.5669Z" fill="#70BBF6"/>
<path fill-rule="evenodd" clip-rule="evenodd" d="M56.2171 42.2327C56.1715 42.2064 56.1336 42.1685 56.1073 42.1229L55.43 40.9498C55.3145 40.7498 55.0259 40.7498 54.9104 40.9498L54.2307 42.1271C54.2043 42.1727 54.1665 42.2106 54.1209 42.2369L52.9508 42.9125C52.7508 43.028 52.7508 43.3166 52.9508 43.4321L54.3327 44.23C54.3783 44.2563 54.4162 44.2942 54.4425 44.3398L54.9114 45.1519C55.0269 45.3519 55.3155 45.3519 55.431 45.1519L55.8984 44.3423C55.9247 44.2967 55.9626 44.2588 56.0082 44.2325L57.3945 43.4321C57.5945 43.3166 57.5945 43.028 57.3945 42.9125L56.2171 42.2327Z" fill="#70BBF6"/>
<circle cx="33" cy="30" r="16" fill="#70BBF6"/>
<path d="M30.5218 27.3334C30.9077 27.3334 31.2274 27.0176 31.1521 26.6392C31.1067 26.4115 31.0391 26.1883 30.9498 25.9727C30.7712 25.5414 30.5093 25.1494 30.1791 24.8192C29.8489 24.4891 29.457 24.2272 29.0256 24.0485C28.5942 23.8698 28.1319 23.7778 27.6649 23.7778C27.198 23.7778 26.7357 23.8698 26.3043 24.0485C25.8729 24.2272 25.4809 24.4891 25.1508 24.8192C24.8206 25.1494 24.5587 25.5414 24.38 25.9727C24.2908 26.1883 24.2231 26.4115 24.1778 26.6392C24.1025 27.0176 24.4222 27.3334 24.808 27.3334C25.1939 27.3334 25.4961 27.0127 25.6188 26.6469C25.6346 26.5999 25.652 26.5534 25.671 26.5075C25.7795 26.2456 25.9384 26.0077 26.1388 25.8073C26.3392 25.6069 26.5772 25.4479 26.839 25.3395C27.1009 25.231 27.3815 25.1752 27.6649 25.1752C27.9484 25.1752 28.229 25.231 28.4908 25.3395C28.7527 25.4479 28.9906 25.6069 29.191 25.8073C29.3914 26.0077 29.5504 26.2456 29.6589 26.5075C29.6779 26.5534 29.6953 26.5999 29.711 26.6469C29.8338 27.0127 30.136 27.3334 30.5218 27.3334Z" fill="#459DE1"/>
<path d="M41.1898 27.3334C41.5757 27.3334 41.8954 27.0176 41.82 26.6392C41.7747 26.4115 41.7071 26.1883 41.6178 25.9727C41.4391 25.5414 41.1772 25.1494 40.8471 24.8192C40.5169 24.4891 40.1249 24.2272 39.6936 24.0485C39.2622 23.8698 38.7998 23.7778 38.3329 23.7778C37.866 23.7778 37.4036 23.8698 36.9722 24.0485C36.5409 24.2272 36.1489 24.4891 35.8187 24.8192C35.4886 25.1494 35.2267 25.5414 35.048 25.9727C34.9587 26.1883 34.8911 26.4115 34.8458 26.6392C34.7704 27.0176 35.0901 27.3334 35.476 27.3334C35.8619 27.3334 36.164 27.0127 36.2868 26.6469C36.3025 26.5999 36.3199 26.5534 36.339 26.5075C36.4474 26.2456 36.6064 26.0077 36.8068 25.8073C37.0072 25.6069 37.2451 25.4479 37.507 25.3395C37.7688 25.231 38.0495 25.1752 38.3329 25.1752C38.6163 25.1752 38.897 25.231 39.1588 25.3395C39.4207 25.4479 39.6586 25.6069 39.859 25.8073C40.0594 26.0077 40.2184 26.2456 40.3268 26.5075C40.3459 26.5534 40.3633 26.5999 40.379 26.6469C40.5018 27.0127 40.8039 27.3334 41.1898 27.3334Z" fill="#459DE1"/>
<path d="M38 35L37.3729 35.5017C34.8163 37.5469 31.1837 37.5469 28.6271 35.5017L28 35" stroke="#459DE1" stroke-width="1.5" stroke-linecap="round"/>
</svg>
