<svg width="72" height="58" viewBox="0 0 72 58" fill="none" xmlns="http://www.w3.org/2000/svg">
<path d="M19.1702 5.80875C19.079 5.75609 19.0032 5.68035 18.9506 5.58914L16.8988 2.03535C16.6679 1.63535 16.0905 1.63535 15.8596 2.03535L13.8072 5.59011C13.7546 5.68132 13.6788 5.75706 13.5876 5.80972L10.0344 7.86119C9.63437 8.09213 9.63438 8.66948 10.0344 8.90042L14.1597 11.2822C14.2509 11.3349 14.3267 11.4106 14.3793 11.5018L15.8607 14.0676C16.0916 14.4676 16.669 14.4676 16.8999 14.0676L18.3818 11.5008C18.4345 11.4096 18.5102 11.3339 18.6014 11.2812L22.7251 8.90042C23.1251 8.66948 23.1251 8.09213 22.7251 7.86119L19.1702 5.80875Z" fill="#C9CDFF"/>
<path opacity="0.9" fill-rule="evenodd" clip-rule="evenodd" d="M62.259 15.3118C62.1678 15.2592 62.092 15.1834 62.0394 15.0922L60.1964 11.9001C59.9655 11.5001 59.3881 11.5001 59.1572 11.9001L57.3117 15.0965C57.2591 15.1877 57.1833 15.2635 57.0921 15.3161L53.9016 17.1582C53.5016 17.3891 53.5016 17.9665 53.9016 18.1974L57.6194 20.344C57.7106 20.3966 57.7864 20.4724 57.8391 20.5636L59.1583 22.8485C59.3892 23.2485 59.9666 23.2485 60.1975 22.8485L61.5153 20.566C61.568 20.4748 61.6437 20.3991 61.7349 20.3464L65.457 18.1974C65.857 17.9665 65.857 17.3891 65.457 17.1582L62.259 15.3118Z" fill="#868FFF"/>
<path fill-rule="evenodd" clip-rule="evenodd" d="M9.65484 42.5672C9.56363 42.5145 9.48789 42.4388 9.43522 42.3476L8.02219 39.9001C7.79125 39.5001 7.2139 39.5001 6.98296 39.9001L5.56897 42.3492C5.51631 42.4404 5.44057 42.5161 5.34936 42.5688L2.90156 43.982C2.50156 44.213 2.50156 44.7903 2.90156 45.0213L5.7794 46.6828C5.87061 46.7354 5.94635 46.8112 5.99901 46.9024L6.98094 48.6031C7.21188 49.0031 7.78923 49.0031 8.02017 48.6031L8.99914 46.9075C9.0518 46.8163 9.12754 46.7406 9.21875 46.6879L12.1055 45.0213C12.5055 44.7903 12.5055 44.213 12.1055 43.982L9.65484 42.5672Z" fill="#B1B7FF"/>
<path d="M6.03218 20.0779C5.96529 20.0392 5.90974 19.9837 5.87112 19.9168L4.8568 18.1599C4.68745 17.8666 4.26406 17.8666 4.0947 18.1599L3.08011 19.9173C3.04149 19.9841 2.98595 20.0397 2.91906 20.0783L1.16141 21.0931C0.868073 21.2624 0.868073 21.6858 1.16141 21.8552L3.23276 23.0511C3.29965 23.0897 3.35519 23.1453 3.39381 23.2121L4.09523 24.427C4.26459 24.7204 4.68798 24.7204 4.85733 24.427L5.55902 23.2117C5.59764 23.1448 5.65318 23.0892 5.72007 23.0506L7.79063 21.8552C8.08396 21.6858 8.08396 21.2624 7.79063 21.0931L6.03218 20.0779Z" fill="#868FFF"/>
<path fill-rule="evenodd" clip-rule="evenodd" d="M25.2171 52.2329C25.1715 52.2066 25.1336 52.1687 25.1073 52.1231L24.43 50.95C24.3145 50.75 24.0259 50.75 23.9104 50.95L23.2307 52.1274C23.2043 52.173 23.1665 52.2109 23.1209 52.2372L21.9508 52.9127C21.7508 53.0282 21.7508 53.3169 21.9508 53.4323L23.3327 54.2302C23.3783 54.2566 23.4162 54.2944 23.4425 54.34L23.9114 55.1521C24.0269 55.3521 24.3155 55.3521 24.431 55.1521L24.8984 54.3426C24.9247 54.2969 24.9626 54.2591 25.0082 54.2327L26.3945 53.4323C26.5945 53.3169 26.5945 53.0282 26.3945 52.9127L25.2171 52.2329Z" fill="#C9CDFF"/>
<path fill-rule="evenodd" clip-rule="evenodd" d="M58.2171 43.2329C58.1715 43.2066 58.1336 43.1687 58.1073 43.1231L57.43 41.95C57.3145 41.75 57.0259 41.75 56.9104 41.95L56.2307 43.1274C56.2043 43.173 56.1665 43.2109 56.1209 43.2372L54.9508 43.9127C54.7508 44.0282 54.7508 44.3169 54.9508 44.4323L56.3327 45.2302C56.3783 45.2566 56.4162 45.2944 56.4425 45.34L56.9114 46.1521C57.0269 46.3521 57.3155 46.3521 57.431 46.1521L57.8984 45.3426C57.9247 45.2969 57.9626 45.2591 58.0082 45.2327L59.3945 44.4323C59.5945 44.3169 59.5945 44.0282 59.3945 43.9127L58.2171 43.2329Z" fill="#DEE1FF"/>
<path fill-rule="evenodd" clip-rule="evenodd" d="M13.2171 30.2329C13.1715 30.2066 13.1336 30.1687 13.1073 30.1231L12.43 28.95C12.3145 28.75 12.0259 28.75 11.9104 28.95L11.2307 30.1274C11.2043 30.173 11.1665 30.2109 11.1209 30.2372L9.95078 30.9127C9.75078 31.0282 9.75078 31.3169 9.95078 31.4323L11.3327 32.2302C11.3783 32.2566 11.4162 32.2944 11.4425 32.34L11.9114 33.1521C12.0269 33.3521 12.3155 33.3521 12.431 33.1521L12.8984 32.3426C12.9247 32.2969 12.9626 32.2591 13.0082 32.2327L14.3945 31.4323C14.5945 31.3169 14.5945 31.0282 14.3945 30.9127L13.2171 30.2329Z" fill="#DEE1FF"/>
<path d="M43.0322 3.07785C42.9653 3.03923 42.9097 2.98369 42.8711 2.9168L41.8568 1.15994C41.6874 0.866608 41.2641 0.866608 41.0947 1.15994L40.0801 2.91726C40.0415 2.98415 39.9859 3.03969 39.9191 3.07831L38.1614 4.09309C37.8681 4.26245 37.8681 4.68584 38.1614 4.85519L40.2328 6.05109C40.2996 6.08971 40.3552 6.14525 40.3938 6.21214L41.0952 7.42704C41.2646 7.72037 41.688 7.72037 41.8573 7.42704L42.559 6.21168C42.5976 6.14479 42.6532 6.08925 42.7201 6.05063L44.7906 4.85519C45.084 4.68584 45.084 4.26245 44.7906 4.09309L43.0322 3.07785Z" fill="#868FFF"/>
<path d="M46.0322 53.0779C45.9653 53.0392 45.9097 52.9837 45.8711 52.9168L44.8568 51.1599C44.6874 50.8666 44.2641 50.8666 44.0947 51.1599L43.0801 52.9173C43.0415 52.9841 42.9859 53.0397 42.9191 53.0783L41.1614 54.0931C40.8681 54.2624 40.8681 54.6858 41.1614 54.8552L43.2328 56.0511C43.2996 56.0897 43.3552 56.1453 43.3938 56.2121L44.0952 57.427C44.2646 57.7204 44.688 57.7204 44.8573 57.427L45.559 56.2117C45.5976 56.1448 45.6532 56.0892 45.7201 56.0506L47.7906 54.8552C48.084 54.6858 48.084 54.2624 47.7906 54.0931L46.0322 53.0779Z" fill="#868FFF"/>
<path d="M69.0322 33.0779C68.9653 33.0392 68.9097 32.9837 68.8711 32.9168L67.8568 31.1599C67.6874 30.8666 67.2641 30.8666 67.0947 31.1599L66.0801 32.9173C66.0415 32.9841 65.9859 33.0397 65.9191 33.0783L64.1614 34.0931C63.8681 34.2624 63.8681 34.6858 64.1614 34.8552L66.2328 36.0511C66.2996 36.0897 66.3552 36.1453 66.3938 36.2121L67.0952 37.427C67.2646 37.7204 67.688 37.7204 67.8573 37.427L68.559 36.2117C68.5976 36.1448 68.6532 36.0892 68.7201 36.0506L70.7906 34.8552C71.084 34.6858 71.084 34.2624 70.7906 34.0931L69.0322 33.0779Z" fill="#C9CDFF"/>
<circle cx="35" cy="31" r="16" fill="#868FFF"/>
<path d="M32.5218 28.3334C32.9077 28.3334 33.2274 28.0176 33.1521 27.6392C33.1067 27.4115 33.0391 27.1883 32.9498 26.9727C32.7712 26.5414 32.5093 26.1494 32.1791 25.8192C31.8489 25.4891 31.457 25.2272 31.0256 25.0485C30.5942 24.8698 30.1319 24.7778 29.6649 24.7778C29.198 24.7778 28.7357 24.8698 28.3043 25.0485C27.8729 25.2272 27.4809 25.4891 27.1508 25.8192C26.8206 26.1494 26.5587 26.5414 26.38 26.9727C26.2908 27.1883 26.2231 27.4115 26.1778 27.6392C26.1025 28.0176 26.4222 28.3334 26.808 28.3334C27.1939 28.3334 27.4961 28.0127 27.6188 27.6469C27.6346 27.5999 27.652 27.5534 27.671 27.5075C27.7795 27.2456 27.9384 27.0077 28.1388 26.8073C28.3392 26.6069 28.5772 26.4479 28.839 26.3395C29.1009 26.231 29.3815 26.1752 29.6649 26.1752C29.9484 26.1752 30.229 26.231 30.4908 26.3395C30.7527 26.4479 30.9906 26.6069 31.191 26.8073C31.3914 27.0077 31.5504 27.2456 31.6589 27.5075C31.6779 27.5534 31.6953 27.5999 31.711 27.6469C31.8338 28.0127 32.136 28.3334 32.5218 28.3334Z" fill="#525BD3"/>
<path d="M43.1898 28.3334C43.5757 28.3334 43.8954 28.0176 43.82 27.6392C43.7747 27.4115 43.7071 27.1883 43.6178 26.9727C43.4391 26.5414 43.1772 26.1494 42.8471 25.8192C42.5169 25.4891 42.1249 25.2272 41.6936 25.0485C41.2622 24.8698 40.7998 24.7778 40.3329 24.7778C39.866 24.7778 39.4036 24.8698 38.9722 25.0485C38.5409 25.2272 38.1489 25.4891 37.8187 25.8192C37.4886 26.1494 37.2267 26.5414 37.048 26.9727C36.9587 27.1883 36.8911 27.4115 36.8458 27.6392C36.7704 28.0176 37.0901 28.3334 37.476 28.3334C37.8619 28.3334 38.164 28.0127 38.2868 27.6469C38.3025 27.5999 38.3199 27.5534 38.339 27.5075C38.4474 27.2456 38.6064 27.0077 38.8068 26.8073C39.0072 26.6069 39.2451 26.4479 39.507 26.3395C39.7688 26.231 40.0495 26.1752 40.3329 26.1752C40.6163 26.1752 40.897 26.231 41.1588 26.3395C41.4207 26.4479 41.6586 26.6069 41.859 26.8073C42.0594 27.0077 42.2184 27.2456 42.3268 27.5075C42.3459 27.5534 42.3633 27.5999 42.379 27.6469C42.5018 28.0127 42.8039 28.3334 43.1898 28.3334Z" fill="#525BD3"/>
<path d="M27 33.058C27 32.8985 27.1199 32.7645 27.2785 32.7469L29.503 32.4997C33.1564 32.0938 36.8436 32.0938 40.497 32.4997L42.7215 32.7469C42.8801 32.7645 43 32.8985 43 33.058V33.6667C43 38.085 39.4183 41.6667 35 41.6667C30.5817 41.6667 27 38.085 27 33.6667V33.058Z" fill="#525BD3"/>
</svg>
