<svg width="30" height="10" viewBox="0 0 30 10" fill="none" xmlns="http://www.w3.org/2000/svg">
<path fill-rule="evenodd" clip-rule="evenodd" d="M19.0311 0C19.94 0 20.6685 0.211082 21.133 0.407361L20.8156 2.50675L20.6055 2.39509C20.1728 2.19881 19.6169 2.00991 18.8502 2.0233C17.9323 2.0233 17.508 2.45375 17.508 2.85648C17.5026 3.31025 18.0038 3.60951 18.8233 4.05767C20.1759 4.7491 20.8011 5.58746 20.7923 6.68956C20.7741 8.70053 19.1742 10 16.7097 10C15.6582 9.98783 14.6452 9.75382 14.0977 9.48341L14.4268 7.31409L14.7291 7.46871C15.4991 7.8304 15.9977 7.9767 16.9361 7.9767C17.61 7.9767 18.3332 7.68006 18.339 7.03068C18.3433 6.60663 18.0366 6.3043 17.124 5.82945C16.2347 5.36598 15.0557 4.58962 15.0687 3.19756C15.0826 1.31443 16.7144 0 19.0311 0ZM0.0291686 0.308105H3.81414C4.32382 0.328366 4.73532 0.50089 4.87739 1.08235L5.69322 5.50933L5.69319 5.51075L5.69322 5.51177L5.93829 6.83817L8.23634 0.308105H10.7223L7.0272 9.86639L4.54358 9.86882L2.5665 2.15594C3.74288 2.81113 4.7444 3.56919 5.32441 4.61239C5.17487 4.2823 4.97782 3.90969 4.72569 3.54246C4.44661 3.13599 3.85995 2.61705 3.57491 2.36492L3.53287 2.32771C2.60926 1.50918 1.35494 0.8481 0 0.498299L0.0291686 0.308105ZM14.1433 0.318359H11.7122L10.1914 9.86192H12.6225L14.1433 0.318359ZM25.4411 0.318848H27.2828L29.2109 9.86241H27.0003C27.0003 9.86241 26.781 8.76601 26.7097 8.43172C26.5256 8.43172 25.7567 8.43069 25.0338 8.42973C24.3925 8.42887 23.7874 8.42806 23.6589 8.42806C23.5664 8.68642 23.157 9.86237 23.157 9.86237H20.6559L24.1934 1.1115C24.4439 0.489645 24.8708 0.318848 25.4411 0.318848ZM25.4061 3.50422C25.4726 3.31622 25.559 3.0718 25.6214 2.88672V2.8868L25.7813 3.70152C25.7813 3.70152 26.2351 5.95828 26.3298 6.43149L24.3633 6.43274C24.5591 5.88804 25.3074 3.78978 25.3074 3.78978C25.3008 3.80183 25.345 3.67679 25.4061 3.50422Z" fill="#172B85"/>
</svg>
