<svg width="560" height="780" viewBox="0 0 560 780" fill="none" xmlns="http://www.w3.org/2000/svg">
<defs>
<linearGradient id="paint0_linear" x1="251.286" y1="340.001" x2="251.286" y2="380.001" gradientUnits="userSpaceOnUse">
<stop stop-color="#D2D2D2"/>
<stop offset="1" stop-color="#ADADAD"/>
</linearGradient>
<clipPath id="clip0">
<path d="M0 15C0 6.71574 6.71573 0 15 0H560V780H15C6.71574 780 0 773.284 0 765V15Z" fill="white"/>
</clipPath>
</defs>
<g clip-path="url(#clip0)">
<path d="M0 15C0 6.71574 6.71573 0 15 0H560V780H15C6.71574 780 0 773.284 0 765V15Z" fill="#64AEEA"/>
<path d="M-97.439 379.904C-111.896 378.662 -118.579 384.643 -119 399.134H228.889C230.057 392.724 221.885 380.777 209.659 383.983C202.055 367.172 180.473 359.147 164.789 368.833C159.34 345.649 128.002 331.557 103.02 353.099C104.011 340.176 88.3866 322.537 68.6387 328.042C71.6888 302.416 32.9244 282.509 13.2795 314.639C-7.01537 291.893 -59.5479 294.445 -58.3962 345.523C-79.1281 348.257 -93.7498 355.261 -97.439 379.904Z" fill="white" fill-opacity="0.1"/>
<path d="M-0.999992 764.366C-20.394 757.412 -27.2224 766.821 -31 780.366H194.333C191.765 765.028 179.902 757.997 165.667 764.366C166.677 747.327 150.463 736.209 133.667 739.032C127.236 699.421 57.4931 681.121 33 732.366C8.25507 730.275 -1.7288 746.893 -0.999992 764.366Z" fill="white" fill-opacity="0.1"/>
<path d="M608.439 640.904C622.896 639.662 629.579 645.643 630 660.134H282.111C280.943 653.724 289.115 641.777 301.341 644.983C308.945 628.172 330.527 620.147 346.211 629.833C351.66 606.649 382.998 592.557 407.98 614.099C406.989 601.176 422.613 583.537 442.361 589.042C439.311 563.416 478.076 543.509 497.721 575.639C518.015 552.893 570.548 555.445 569.396 606.523C590.128 609.257 604.75 616.261 608.439 640.904Z" fill="white" fill-opacity="0.1"/>
<path d="M652.334 208.83C652.889 206.914 673.993 195.868 677 218.83H169C171.133 202.313 188.457 190.788 203.667 201.497C218.805 172.592 242.477 169.557 266.334 186.164C266.192 173.945 274.452 167.273 287 167.497C294.491 143.835 313.07 127.5 343.667 132.164C367.424 84.9352 430.774 92.9864 441.667 145.497C463.285 119.226 498.024 134.908 501.667 154.164C513.602 150.046 519.389 151.237 528.334 158.164C544.502 138.764 571.653 138.529 579.001 171.497C594.555 172.313 599.995 176.152 601.667 190.83C619.699 180.263 639.954 176.942 652.334 208.83Z" fill="white" fill-opacity="0.1"/>
<path d="M238.333 41.3658C257.728 34.4115 264.556 43.8212 268.333 57.3658H43.0001C45.5682 42.0276 57.4316 34.9971 71.6668 41.3658C70.6564 24.327 86.8702 13.2095 103.667 16.0325C110.097 -23.5786 179.84 -41.8785 204.334 9.3658C229.078 7.27541 239.062 23.8925 238.333 41.3658Z" fill="white" fill-opacity="0.1"/>
<path d="M14.7149 543.719H545.715C562.929 510.218 536.855 479.215 513.429 482.218C513.429 451 477.429 422 441.93 444.218C441.93 398.5 392.929 373 357.929 387.5C371.929 338.5 320.429 298.5 279.929 305C248.929 247.5 150.429 273.5 154.429 330.5C118.929 309 44.7144 348 67.9287 416C32.9287 413 23.4287 460 41.9287 476C11.6718 487.726 8.31152 514.781 14.7149 543.719Z" fill="#F2F9FF"/>
<path d="M164.151 332.911C163.386 341.325 159.362 342.327 158.694 348.981L161.307 355L148.307 360.5L146.359 354.215C143.768 353.303 141.334 351.981 136.531 337.713C134.824 334.447 133.931 332.673 131.137 328.402C129.827 325.725 132.327 324.29 133.916 326.637C136.306 330.277 138.728 333.1 139.665 333.87C140.14 334.058 140.487 333.769 140.708 333.241C140.93 332.713 138.083 326.422 135.788 321.809C133.823 318.509 137.103 316.011 139.206 320.029C141.025 323.765 143.662 330.309 144.862 331.39C145.233 331.725 145.607 331.222 145.607 331.222C145.661 330.011 143.193 323.519 141.027 317.574C139.465 313.886 143.047 312.053 144.727 315.925C146.273 319.491 148.686 327.476 150.01 330.448C150.253 330.995 151.227 331.556 151.441 330.997C151.991 329.565 151.485 325.119 151.432 320.318C151.52 316.362 154.554 316.976 154.844 319.985C155.611 327.945 155.241 332.865 157.076 340.393C158.811 339.149 160.73 330.19 164.151 332.911Z" fill="#FFCDB0"/>
<path d="M289.017 442.043C252.195 444.33 253.899 453.006 204.458 442.043C202.038 422.025 201.935 399.246 202.852 383.712C200.392 396.871 195.467 408.9 190.307 418.056C183.429 434 168.868 422 165.307 416.043C161.747 410.085 145.712 381.474 146.307 358.5C155.515 358.666 161.807 353 161.807 353C161.807 353 167.001 361.082 172.985 371.697C177.04 354.183 190.191 309.696 227.518 307.543C239.522 306.85 245.017 307.062 261.518 307.062C323.517 303 329.788 412.571 327.518 418.056C322.251 430.787 307.021 422.702 289.458 407.008C289.586 411.167 289.64 414.409 289.652 416.043C289.546 424.956 289.017 433.894 289.017 442.043Z" fill="#5E9AD2"/>
<path d="M190.307 418.056C197.383 405.5 204.017 387.543 204.458 368.677C202.261 379.543 201.017 413.584 204.458 442.043C253.899 453.006 252.195 444.33 289.017 442.043C289.017 433.894 289.546 424.956 289.652 416.043C289.595 408.004 288.518 361.043 282.518 357.543M190.307 418.056C183.429 434 168.868 422 165.307 416.043C161.747 410.085 145.712 381.474 146.307 358.5C155.515 358.666 161.807 353 161.807 353C161.807 353 194.596 404.014 190.307 418.056ZM171.5 378.5C172.617 374.505 182.433 310.143 227.518 307.543C239.522 306.85 245.017 307.062 261.518 307.062C323.517 303 329.788 412.571 327.518 418.056C321.518 432.556 302.594 420.051 282.018 400.058" stroke="#5E9AD2" stroke-width="0.741035" stroke-linecap="round" stroke-linejoin="round"/>
<rect x="240.286" y="340.001" width="22" height="40" rx="2" transform="rotate(9.0184 240.286 340.001)" fill="#CECECE"/>
<rect x="240.702" y="340.573" width="21" height="39" rx="1.5" transform="rotate(9.0184 240.702 340.573)" stroke="url(#paint0_linear)" stroke-opacity="0.2"/>
<path d="M191.846 405.612C193.517 391.224 190.807 384 174.307 373.919C180.987 381.694 186.736 394.226 188.203 402.556C189.67 410.886 190.175 420 191.846 405.612Z" fill="#4D8EC8"/>
<path fill-rule="evenodd" clip-rule="evenodd" d="M276.054 373.962C275.864 373.952 275.669 373.942 275.472 373.932C271.152 373.718 265.313 373.429 266.017 368.501C268.062 368.413 279.227 363.002 281.517 353.501L281.515 353.516L281.518 353.501C283.011 356.894 284.214 359.735 285.202 362.253C290.125 370.954 297.92 379.138 304.29 383.684C310.965 388.448 322.517 398.501 323.517 400.001C324.517 401.501 325.517 403.501 324.017 403.501C323.627 403.501 322.593 402.508 321.712 401.661C321.462 401.421 321.224 401.192 321.017 401.001C314.983 395.385 302.431 386.716 289.851 378.981C289.907 379.315 289.963 379.655 290.018 380.001C294.68 409.094 290.367 442.043 290.367 442.043L235.229 449.543L208.518 442.043C208.518 442.043 245.518 431.543 257.518 418.043C258.982 416.397 260.446 414.191 261.888 411.588C264.932 402.255 257.972 381.467 256.016 377.001C261.277 379.303 266.124 386.217 270.192 392.022L270.243 392.093C272.411 385.986 274.385 379.67 276.054 373.962Z" fill="#4D8EC8"/>
<path d="M262.125 352.705C266.133 360.143 263.221 363.45 266.338 369.367L271.346 371.603L264.719 382.942L259.054 380.291C256.39 380.962 253.631 381.203 241.748 371.96C238.522 370.178 240.705 370.519 236.017 368.5C233.694 367.501 235.016 364.144 237.017 365.001C241.018 366.716 241.033 366.9 242.239 367.025C242.739 366.919 242.869 366.487 242.762 365.924C242.655 365.361 241.976 364.579 237.517 362.001C234.517 360.501 236.474 357.001 239.017 358.501C242.595 360.612 243.605 361.848 245.203 362.088C245.698 362.162 245.732 361.536 245.732 361.536C245.108 360.496 243.606 359.761 238.516 356.001C235.516 354.501 237.517 350.7 239.516 352.001C241.516 353.301 246.231 356.713 248.975 358.459C249.48 358.781 250.602 358.711 250.472 358.127C250.139 356.63 244.767 351.656 242.762 349.001C240.758 346.346 243.236 343.82 245.732 346.501C251.149 352.319 253.924 356.329 260.358 362.85C261.117 360.855 257.77 352.325 262.125 352.705Z" fill="#FFCDB0"/>
<path d="M298.755 532.33C288.54 525.879 277.936 519.181 268.503 513.224C259.07 507.266 270.284 489.511 279.717 495.469L309.969 514.575C320.577 521.275 308.971 538.782 298.755 532.33Z" fill="white" stroke="#FBFBFB" stroke-linecap="round" stroke-linejoin="round"/>
<path d="M265.016 603.756C262.016 592.012 260.016 579.001 260.016 567.159C260.016 555.317 279.599 554.56 281.701 567.159C283.802 579.759 287.016 588.512 287.016 603.756C287.016 619.001 268.016 615.501 265.016 603.756Z" fill="white" stroke="#FBFBFB" stroke-linecap="round" stroke-linejoin="round"/>
<path d="M203.674 437.662C211.66 439.918 217.827 446.126 245.172 445.813C272.517 445.5 295.225 440.525 316.018 437.662L311.518 480.544C260.757 520.303 149.428 483 151.429 433.5L168.166 423.211C180.518 435.688 192.929 453.223 192.929 453.223L203.674 437.662Z" fill="#484848"/>
<path d="M275.429 496L268.016 487L255.929 503L266.429 509C270.429 509.5 271.856 509 274.429 504.5C276.427 501.003 277.929 500 275.429 496Z" fill="#FED7C2"/>
<path d="M264.016 562.501L266.016 547.001L286.016 553.001C286.016 553.001 281.772 560.181 279.516 564.001C277.259 567.821 275.715 568.568 271.016 568.501C267.686 567.336 265.937 566.912 264.016 562.501Z" fill="#FED7C2"/>
<path d="M295.697 525.232C287.687 520.315 279.372 515.21 271.976 510.669C264.58 506.128 271.495 494.865 278.891 499.406L302.612 513.969C310.93 519.075 303.707 530.15 295.697 525.232Z" fill="white" stroke="#FBFBFB" stroke-width="0.420225" stroke-linecap="round" stroke-linejoin="round"/>
<path d="M269.62 595.003C268.044 585.902 266.381 578.243 265.544 570.441C264.708 562.639 278.65 561.145 279.487 568.947C280.323 576.748 281.105 585.461 282.045 594.235C282.986 603.009 271.196 604.103 269.62 595.003Z" fill="white" stroke="#FBFBFB" stroke-width="0.420225" stroke-linecap="round" stroke-linejoin="round"/>
<path d="M268.62 591.5C272.222 594 276.34 596 282.516 595" stroke="#EDEDED" stroke-width="1.5" stroke-linecap="round"/>
<path d="M269.306 596.696C273.684 596.058 278.075 594.713 281.796 589.821" stroke="#EDEDED" stroke-width="1.5" stroke-linecap="round"/>
<path d="M294.152 523.83C298.357 522.585 302.493 520.625 305.579 515.182" stroke="#EDEDED" stroke-width="1.5" stroke-linecap="round"/>
<path d="M298.634 526.548C300.877 522.733 302.575 518.467 301.089 512.503" stroke="#EDEDED" stroke-width="1.5" stroke-linecap="round"/>
<path d="M267.075 583.501C271.708 586.001 275.31 587.001 281.351 587.725" stroke="#EDEDED" stroke-width="1.5" stroke-linecap="round"/>
<path d="M268.105 589.501C273.252 588.001 276.34 586.501 280.972 581.501" stroke="#EDEDED" stroke-width="1.5" stroke-linecap="round"/>
<path d="M265.016 574C269.134 576.5 274.281 578.5 280.972 579.5" stroke="#EDEDED" stroke-width="1.5" stroke-linecap="round"/>
<path d="M266.561 581.501C271.708 580.001 275.311 577.501 279.943 572.501" stroke="#EDEDED" stroke-width="1.5" stroke-linecap="round"/>
<path d="M271.516 447C282.293 439.946 286.676 435.873 292.516 428.5L299.516 448.5L271.516 447Z" fill="#484848"/>
<path d="M186.114 425.548C151.178 405.852 139.891 439.764 163.592 456.312C190.907 475.383 222.665 489.223 259.197 507.311L271.702 488.44C240.766 464.169 209.46 435.517 186.114 425.548Z" fill="#5A5A5A"/>
<path d="M308.429 513C300.429 507.5 298.929 508 295.929 506L286.429 523.5C289.929 527 295.429 531 298.929 533C303.453 533.014 310.293 515.022 308.429 513Z" fill="#DFDFDF" fill-opacity="0.25"/>
<path d="M286.843 438.056C297.127 409.231 332.035 413.462 324.102 446.144C316.17 478.825 300.862 519.235 285.516 557.001L263.016 550.501C268.481 511.612 276.558 466.881 286.843 438.056Z" fill="#5A5A5A"/>
<mask id="mask0" mask-type="alpha" maskUnits="userSpaceOnUse" x="215" y="411" width="157" height="156">
<path d="M286.843 438.074C297.127 409.249 332.035 413.48 324.102 446.162C316.17 478.844 301.023 521.344 285.676 559.109L263.516 551.001C268.981 512.112 276.558 466.899 286.843 438.074Z" fill="#5A5A5A"/>
</mask>
<g mask="url(#mask0)">
<path d="M326.518 438.062C317.518 437.062 307.518 433.562 300.518 420.562H320.018L330.018 428.562L326.518 438.062Z" fill="#484848"/>
</g>
<path d="M325.016 437.5L318.516 434.5C316.462 464.122 300.897 509.296 282.516 551.5L273.516 553.5L285.516 557C302.783 514.641 326.516 447 325.016 437.5Z" fill="#484848"/>
<path d="M232.307 314L228.307 286L258.807 297.499L261.307 312C250.307 324 239.453 318.14 232.307 314Z" fill="#FFCDB0"/>
<path d="M226.807 284.499C220.43 268.213 258.807 296 258.807 296L260.261 306.499C242.369 308.928 233.184 300.786 226.807 284.499Z" fill="#E9B598"/>
<path d="M224.667 278.66C222.966 294.036 278.02 335.712 265.958 257.792C250.657 236.262 224.485 249.879 227.298 269.912L226.822 268.609C217.442 249.651 209.219 278.265 224.667 278.66Z" fill="#FFCDB0"/>
<path d="M265.144 258.836C274.082 275.872 301.223 246.749 276.998 244.182C267.663 239.627 278.827 230.975 280.71 238.157C286.095 230.763 272.937 218.734 261.573 228.902C256.371 235.415 253.724 225.615 248.704 224.001C237.423 221.127 221.404 227.186 221.445 235.655C202.989 241.118 207.666 253.217 217.751 263.313C223.416 261.591 224.772 265.999 227.557 271.296C232.474 252.109 234.45 248.962 250.47 252.473C251.17 260.907 260.28 260.534 264.676 259.001C264.844 258.942 265 258.887 265.144 258.836Z" fill="#5A5A5A"/>
<ellipse rx="2.4191" ry="3.41929" transform="matrix(-0.957442 0.288624 0.288624 0.957442 242.056 273.281)" fill="#383838"/>
<ellipse rx="4.0564" ry="1.93908" transform="matrix(-0.985068 0.172164 0.172164 0.985068 253.448 285.836)" fill="#E9B598"/>
<ellipse rx="4.81647" ry="3.10224" transform="matrix(-0.945647 -0.325196 -0.325196 0.945647 235.279 281.323)" fill="#FFB393"/>
<path d="M258.596 293.236C258.805 293.257 258.979 293.406 259.031 293.61C259.083 293.813 259.002 294.027 258.829 294.146C255.654 296.323 252.732 296.907 249.881 296.263C247.06 295.625 244.378 293.8 241.63 291.31C241.455 291.151 241.414 290.892 241.533 290.688C241.652 290.483 241.897 290.39 242.122 290.464C247.475 292.225 251.159 292.557 255.733 292.968C256.645 293.05 257.593 293.136 258.596 293.236Z" fill="white" stroke="#FFB393" stroke-linecap="round" stroke-linejoin="round"/>
<path d="M260.98 282.583C261.721 284.128 264.266 284.449 266.665 283.299C267.987 282.228 267.608 279.298 267.728 277.564C267.807 276.407 266.381 276.554 263.983 277.704C261.584 278.854 260.24 281.038 260.98 282.583Z" fill="#FFB393"/>
<ellipse rx="2.30288" ry="3.34814" transform="matrix(-0.999488 -0.0320039 -0.0320039 0.999488 259.784 272.566)" fill="#383838"/>
<path d="M260.774 266.18C262.944 266.51 268.072 267.265 268.329 265.58C268.585 263.895 263.615 262.106 261.445 261.775C259.275 261.445 257.366 262.163 257.181 263.379C256.995 264.595 258.604 265.849 260.774 266.18Z" fill="#5A5A5A"/>
<path d="M240.983 266.848C238.735 267.189 233.242 268.624 232.987 266.938C232.732 265.253 238.067 262.784 240.316 262.443C242.565 262.102 244.537 262.812 244.721 264.029C244.906 265.245 243.232 266.507 240.983 266.848Z" fill="#5A5A5A"/>
<path d="M261.807 308C261.265 314.5 236.807 322 229.807 308L222.307 320.5L229.307 333L248.307 331.5L264.307 329.5L272.807 318L261.807 308Z" fill="#5E9AD2"/>
<path d="M324.017 404.003C331.077 410.979 329.837 426.235 318.909 427.582C307.98 428.929 277.553 403.034 259.517 382.496L270.517 368.5C295.018 380.001 316.958 397.027 324.017 404.003Z" fill="#5E9AD2"/>
<path d="M188.428 479.5C215.428 477 236.938 492.142 248.928 510.5L239.715 516.721L110.967 475.246L130.231 460.316C151.928 450 181.911 466.865 188.428 479.5Z" fill="#F2F9FF" fill-opacity="0.8"/>
<path d="M292.929 540.5L349.929 540.5L327.429 532.566C326.429 524 312.243 521.819 308.929 531.5C302.549 529.175 297.336 532.649 292.929 540.5Z" fill="#F2F9FF" fill-opacity="0.8"/>
</g>

</svg>
