<svg width="38" height="45" viewBox="0 0 38 45" fill="none" xmlns="http://www.w3.org/2000/svg">
<path d="M22.7242 2.5L20.954 1.2976C19.8008 0.514333 18.2864 0.514333 17.1332 1.2976L1.48962 11.9233C0.557847 12.5562 0 13.6094 0 14.7358V30.2642C0 31.3906 0.557848 32.4438 1.48962 33.0767L17.1332 43.7024C18.2864 44.4857 19.8008 44.4857 20.954 43.7024L21.1111 43.5957V23.5957L33.766 15L33.7778 14.992V15.008V19.992V20.008V24.992V25.008V29.992V30.008L33.766 30L25.3333 35.7278V40.7278L36.5193 33.0776C37.4459 32.4439 38 31.3937 38 30.2711V14.3553C38 13.1215 37.3316 11.9845 36.2535 11.3845L33.766 10L16.8889 21.4636V38.5364L4.32115 30L4.22222 30.0672V29.9328V15.0672L4.32115 15L22.7242 2.5Z" fill="white"/>
<path d="M8.44444 27.8007V17.1993L26.4048 5L30.0854 7.5L12.6667 19.3314V30.6686L8.44444 27.8007Z" fill="white"/>
<path d="M25.3333 30.7278V25.7278L29.5556 22.8599V27.8599L25.3333 30.7278Z" fill="white"/>
</svg>
