<svg width="560" height="780" viewBox="0 0 560 780" fill="none" xmlns="http://www.w3.org/2000/svg">
<g clip-path="url(#clip0)">
<path d="M0 0H545C553.284 0 560 6.71573 560 15V765C560 773.284 553.284 780 545 780H0V0Z" fill="#64AEEA"/>
<path d="M253.439 100.904C267.896 99.6618 274.579 105.643 275 120.134H-72.8892C-74.0569 113.724 -65.8853 101.777 -53.6591 104.983C-46.0545 88.172 -24.4728 80.1467 -8.78897 89.8325C-3.33966 66.6487 27.9982 52.5567 52.9803 74.0989C51.9891 61.1756 67.6134 43.5372 87.3613 49.0416C84.3112 23.4156 123.076 3.50911 142.721 35.6388C163.015 12.8926 215.548 15.4446 214.396 66.5234C235.128 69.2573 249.75 76.2608 253.439 100.904Z" fill="white" fill-opacity="0.1"/>
<path d="M424 164.366C404.606 157.412 397.778 166.821 394 180.366H619.333C616.765 165.028 604.902 157.997 590.667 164.366C591.677 147.327 575.463 136.209 558.667 139.032C552.236 99.4214 482.493 81.1215 458 132.366C433.255 130.275 423.271 146.893 424 164.366Z" fill="white" fill-opacity="0.1"/>
<path d="M277.667 774.83C277.112 772.914 256.008 761.868 253 784.83H761C758.867 768.313 741.544 756.788 726.334 767.497C711.196 738.592 687.524 735.557 663.667 752.164C663.808 739.945 655.548 733.273 643 733.497C635.509 709.835 616.93 693.5 586.333 698.164C562.577 650.935 499.226 658.986 488.333 711.497C466.715 685.226 431.977 700.908 428.333 720.164C416.398 716.046 410.611 717.237 401.667 724.164C385.498 704.764 358.347 704.529 351 737.497C335.445 738.313 330.006 742.152 328.333 756.83C310.301 746.263 290.046 742.942 277.667 774.83Z" fill="white" fill-opacity="0.1"/>
<path d="M184.667 496.83C184.112 494.914 163.008 483.868 160 506.83H668C665.867 490.313 648.544 478.788 633.334 489.497C618.196 460.592 594.524 457.557 570.667 474.164C570.808 461.945 562.548 455.273 550 455.497C542.509 431.835 523.93 415.5 493.333 420.164C469.577 372.935 406.226 380.986 395.333 433.497C373.715 407.226 338.977 422.908 335.333 442.164C323.398 438.046 317.611 439.237 308.667 446.164C292.498 426.764 265.347 426.529 258 459.497C242.445 460.313 237.006 464.152 235.333 478.83C217.301 468.263 197.046 464.942 184.667 496.83Z" fill="white" fill-opacity="0.1"/>
<path d="M-81 719.366C-100.394 712.412 -107.222 721.821 -111 735.366H114.333C111.765 720.028 99.9019 712.997 85.6667 719.366C86.6771 702.327 70.4633 691.209 53.6667 694.032C47.2362 654.421 -22.5069 636.121 -47 687.366C-71.7449 685.275 -81.7288 701.893 -81 719.366Z" fill="white" fill-opacity="0.1"/>
<path d="M-106.439 393.904C-120.896 392.662 -127.579 398.643 -128 413.134H219.889C221.057 406.724 212.885 394.777 200.659 397.983C193.055 381.172 171.473 373.147 155.789 382.833C150.34 359.649 119.002 345.557 94.0197 367.099C95.0109 354.176 79.3866 336.537 59.6387 342.042C62.6888 316.416 23.9244 296.509 4.27946 328.639C-16.0154 305.893 -68.5479 308.445 -67.3962 359.523C-88.1281 362.257 -102.75 369.261 -106.439 393.904Z" fill="white" fill-opacity="0.1"/>
<path d="M545.001 517.499H14.0012C11.8982 494.832 19.075 482.996 42.5014 485.999C43.7543 450.033 65.2579 436.133 97.0014 438.499C89.9566 366.374 177.7 306.206 244.501 327.999C248.079 283.348 293.206 268.253 326.001 280.999C365.611 225.894 432.587 260.874 430.501 300C502.064 299.701 510.501 368 493.501 389.499C521.198 400.77 528.229 426.777 515.001 449.499C545.258 461.225 551.404 488.561 545.001 517.499Z" fill="#F2F9FF"/>
<path d="M162.605 469.873L151.202 486.8L139.5 492.632L132.119 482.918L134.227 479.844L139.995 465.925L162.605 469.873Z" fill="#FFCDB0"/>
<path d="M142.933 552.177L152.768 538.245L181.995 538.787L160.429 560.062L160.42 560.566L148.354 558.83L142.933 552.177Z" fill="#FFCDB0"/>
<path d="M153.501 502.449C154.333 495.462 153.924 491.921 151.362 486.392C142.625 487.102 138.567 486.047 132.234 482.623C108.242 491.691 85.3538 491.866 86.9779 501.576L153.501 502.449Z" fill="white"/>
<path d="M153.502 502.447L86.9792 501.574C87.3111 503.67 87.7116 504.695 89.2711 505.905L153.446 506.747C153.909 505.242 153.922 504.301 153.502 502.447Z" fill="#F0F0F0"/>
<path d="M158.123 576.264C160.963 569.826 161.608 566.321 160.776 560.284C152.213 558.406 148.642 556.21 143.588 551.082C117.993 552.733 96.0555 546.202 94.767 555.963L158.123 576.264Z" fill="white"/>
<path d="M158.124 576.262L94.7679 555.961C94.472 558.062 94.5551 559.159 95.6923 560.773L156.812 580.357C157.695 579.054 157.983 578.157 158.124 576.262Z" fill="#F0F0F0"/>
<path d="M201.714 350.997C229.489 346.375 286.951 376.342 296.225 381.308L300.499 380.498L299.724 383.998L327.502 408.998L277.903 430.237C244.709 414.261 240.871 407.892 212.308 395.761C192.546 428.8 180.95 447.39 159.792 478.588L135.307 469.093C135.272 469.152 135.257 469.147 135.263 469.076L135.307 469.093C136.745 466.662 172.164 355.915 201.714 350.997Z" fill="#5A5A5A"/>
<path d="M263.751 423.059C244.611 412.571 234.144 405.416 213.129 396.122C212.665 395.916 212.108 396.095 211.848 396.531C192.6 428.691 181.308 446.837 159.794 478.586L148.514 474.16C152.108 474.621 156.709 474.645 158.179 473.403C173.827 454.412 209.413 394.016 209.413 394.016C210.543 392.385 212.094 392.354 213.551 392.824C237.709 400.621 257.008 415.05 262.915 414.399C273.624 413.218 290.078 401.28 312.501 398.998L324.353 404.567C324.353 404.567 283.137 433.682 263.751 423.059Z" fill="#484848"/>
<path d="M318.798 404.482L374.878 425.167C359.288 455.524 361.502 466.046 240.104 473.882C211.674 511.32 192.501 529.079 169.381 554.403L146.134 542.658C168.718 505.141 183.412 479.254 207.153 448.479C208.723 446.444 210.681 444.735 212.923 443.478C244.485 425.798 274.642 417.427 318.798 404.482Z" fill="#5A5A5A"/>
<path d="M240.048 473.772C331.641 470.64 364.755 460.769 375.001 425.498L357.994 420.357C349.801 449.932 312.676 457.904 236.344 469.437C187.802 533.871 169.23 547.622 169.23 547.622C165.942 548.999 160.759 548.42 156.622 547.893L169.23 555.498C199.912 524.708 215.505 505.946 240.048 473.772Z" fill="#484848"/>
<path d="M327.84 267.804C323.717 275.178 319.364 274.497 316.045 280.304L316.847 285.729L303.723 286.225L302.918 280.023C300.922 278.135 299.237 275.937 300.656 260.95C300.426 257.271 300.333 255.288 299.519 250.249C299.411 247.271 302.279 246.978 302.775 249.769C303.477 254.065 304.541 257.63 305.083 258.714C305.44 259.079 305.874 258.957 306.292 258.565C306.71 258.173 306.669 251.267 306.45 246.121C305.998 242.306 310.011 241.359 310.297 245.885C310.437 250.038 310.183 257.088 310.839 258.565C311.042 259.022 311.589 258.715 311.589 258.715C312.131 257.63 312.519 250.696 312.959 244.384C313.033 240.379 317.052 240.162 317.009 244.383C316.971 248.27 315.925 256.546 315.925 259.799C315.925 260.398 316.586 261.306 317.009 260.883C318.094 259.799 319.441 255.532 321.346 251.125C323.037 247.547 325.559 249.343 324.599 252.209C322.059 259.793 319.72 264.136 318.332 271.759C320.423 271.329 325.822 263.926 327.84 267.804Z" fill="#FFCDB0"/>
<path d="M302.104 281.941C308.879 284.309 310.284 283.04 317.138 282.655C323.06 303.974 325.118 318.559 333.993 322.305C342.534 304.508 357.914 296.699 382.175 295.832C391.768 309.234 398.027 307.86 409.48 305.201C454.343 330.943 422.536 403.187 404.663 411.893C401.067 413.645 396.891 414.518 392.229 414.64C387.535 418.764 382.956 421.936 375.264 425.76C361 423.499 338.5 415.999 321.5 405.499C310 396.999 301.675 387.999 299.588 383.999C297.5 379.999 296.983 377.289 299.589 372.29C305.671 370.968 313.836 363.405 317.138 360.498C292.49 335.706 299.525 307.601 302.104 281.941Z" fill="#5E9AD2"/>
<path d="M381.501 422.5C367.181 422.5 338.536 409.649 307 389.499L314.502 389.999C316.129 390.667 316.978 394.38 318.501 395C345.113 405.83 357.672 406.506 392.327 414.46C390.226 416.446 384.076 420.961 381.501 422.5Z" fill="#4D8EC8"/>
<path d="M391.527 384.389C390.294 390.272 326.502 383 326.502 383L322.502 386.999L319.002 384.499L321.985 380.499C322.79 379.888 324.002 379.999 337.002 376.999C350.002 373.999 367.002 372.499 374.18 368.441C381.359 364.383 400.403 340.698 400.403 340.698C395.433 365.492 393.565 374.672 391.527 384.389Z" fill="#4D8EC8"/>
<path d="M326.502 355.998C333.547 356.633 342.22 354.165 350.502 345.998C350.502 364.998 336.002 371.498 319.002 374.498C312.698 372.98 312.819 353.259 310.002 348.498C313.51 349.571 319.456 355.364 326.502 355.998Z" fill="#4D8EC8"/>
<path d="M409.638 305.295L417.72 274.633L388.659 281.566L380.472 300.209C385.922 315.755 402.242 308.971 409.638 305.295Z" fill="#FFCDB0"/>
<path d="M418.186 274.118C425.59 258.271 387.172 284.952 387.172 284.952L383.019 294.521C400.72 298.087 410.782 289.964 418.186 274.118Z" fill="#E9B598"/>
<path d="M419.575 269.057C420.291 284.511 362.689 322.587 379.701 245.596C396.345 225.087 421.594 240.347 417.508 260.16L418.066 258.89C428.637 240.57 435.017 269.65 419.575 269.057Z" fill="#FFCDB0"/>
<path d="M380.446 246.69C370.44 263.121 345.213 232.324 369.552 231.309C379.159 227.359 368.57 218.012 366.232 225.06C361.33 217.337 375.23 206.173 385.922 217.045C390.697 223.877 393.964 214.266 399.077 212.976C410.519 210.828 426.118 217.897 425.536 226.347C443.606 232.976 438.166 244.752 427.457 254.183C421.914 252.104 420.278 256.416 417.161 261.525C413.479 242.063 411.709 238.796 395.497 241.277C394.26 249.649 385.193 248.695 380.903 246.884C380.739 246.815 380.587 246.75 380.446 246.69Z" fill="#5A5A5A"/>
<ellipse cx="402.565" cy="262.579" rx="2.4191" ry="3.41929" transform="rotate(20.4359 402.565 262.579)" fill="#383838"/>
<ellipse cx="390.395" cy="274.382" rx="4.0564" ry="1.93908" transform="rotate(13.574 390.395 274.382)" fill="#E9B598"/>
<ellipse cx="408.815" cy="271.038" rx="4.81647" ry="3.10224" transform="rotate(-15.3172 408.815 271.038)" fill="#FFB393"/>
<path d="M384.785 281.438C384.575 281.445 384.392 281.583 384.327 281.783C384.262 281.983 384.329 282.202 384.494 282.331C387.524 284.706 390.402 285.476 393.289 285.015C396.144 284.559 398.938 282.908 401.84 280.598C402.024 280.451 402.081 280.195 401.976 279.984C401.87 279.773 401.631 279.664 401.403 279.723C395.948 281.139 392.25 281.234 387.659 281.353C386.743 281.377 385.792 281.402 384.785 281.438Z" fill="white" stroke="#FFB393" stroke-linecap="round" stroke-linejoin="round"/>
<path d="M383.086 270.655C382.248 272.149 379.688 272.307 377.367 271.006C376.116 269.853 376.681 266.953 376.673 265.215C376.667 264.055 378.08 264.293 380.401 265.594C382.721 266.894 383.923 269.16 383.086 270.655Z" fill="#FFB393"/>
<ellipse cx="384.919" cy="260.734" rx="2.30288" ry="3.34814" transform="rotate(1.82626 384.919 260.734)" fill="#383838"/>
<path d="M384.339 254.297C382.152 254.488 376.986 254.915 376.838 253.217C376.689 251.519 381.764 250.05 383.95 249.859C386.137 249.668 387.997 250.506 388.104 251.732C388.211 252.957 386.525 254.106 384.339 254.297Z" fill="#5A5A5A"/>
<path d="M404.046 256.228C406.269 256.711 411.658 258.494 412.021 256.829C412.383 255.163 407.216 252.358 404.994 251.874C402.771 251.391 400.758 251.974 400.496 253.176C400.234 254.378 401.824 255.744 404.046 256.228Z" fill="#5A5A5A"/>
<path d="M409.5 305.499C394.965 308.969 387.343 309.863 380.5 297.998L367.5 303.999L374 322.499L417.5 316.499L409.5 305.499Z" fill="#5E9AD2"/>
<path d="M324.5 386.999L300 379.499C302 385.499 304 389.999 320.501 395.499L324.5 386.999Z" fill="#FFCDB0"/>
<path d="M324.604 378.238L312.62 321.795C312.185 319.75 310.578 318.158 308.528 317.744L238.881 303.692C235.213 302.952 231.972 306.183 232.702 309.854L244.221 367.79C244.633 369.865 246.252 371.489 248.326 371.908L347.491 391.916C349.04 392.228 350.548 391.226 350.861 389.678C351.173 388.129 350.171 386.621 348.623 386.309L328.696 382.288C326.647 381.875 325.039 380.283 324.604 378.238Z" fill="#CECECE"/>
<g filter="url(#filter0_f)">
<path d="M268.437 349.757C271.537 353.692 276.797 354.478 280.186 351.512C282.003 349.921 282.913 347.575 282.888 345.134C277.493 347.229 272.442 339.844 275.308 335.614C273.066 335.174 270.751 335.693 268.96 337.261C265.571 340.227 265.337 345.821 268.437 349.757Z" fill="white"/>
</g>
<path d="M268.4 349.545C271.5 353.48 276.76 354.266 280.149 351.3C281.966 349.71 282.876 347.363 282.851 344.922C277.456 347.017 272.405 339.632 275.271 335.402C273.029 334.962 270.714 335.481 268.922 337.049C265.534 340.015 265.3 345.61 268.4 349.545Z" fill="white"/>
<path d="M330 455.995C302.5 453.499 272.51 468.849 259.5 486.499L275.5 490.119L406.389 455.995L388 439.998C367.758 428.725 337.222 443.749 330 455.995Z" fill="#F2F9FF" fill-opacity="0.8"/>
<path d="M160 504.217C155.5 502.217 135.414 499.213 127.5 505.999C125.562 502.735 106 499.999 99.0005 505.499C93.0005 501.499 86.0005 502.499 84.0005 507.499C102 512.999 134.501 513.999 134.501 513.999C134.501 513.999 164.5 506.217 160 504.217Z" fill="#F2F9FF" fill-opacity="0.8"/>
<path d="M418 394.499C414.838 376.696 428.5 367.499 439.5 370.499L453.5 407.999L433.5 432.499L406.389 413.999C403.5 404.499 407.555 395.671 418 394.499Z" fill="#F2F9FF" fill-opacity="0.8"/>
</g>
<defs>
<filter id="filter0_f" x="263.558" y="332.765" width="22.0299" height="23.2433" filterUnits="userSpaceOnUse" color-interpolation-filters="sRGB">
<feFlood flood-opacity="0" result="BackgroundImageFix"/>
<feBlend mode="normal" in="SourceGraphic" in2="BackgroundImageFix" result="shape"/>
<feGaussianBlur stdDeviation="1.34947" result="effect1_foregroundBlur"/>
</filter>
<clipPath id="clip0">
<path d="M0 0H545C553.284 0 560 6.71573 560 15V765C560 773.284 553.284 780 545 780H0V0Z" fill="white"/>
</clipPath>
</defs>
</svg>
