<svg width="48" height="48" viewBox="0 0 48 48" fill="none" xmlns="http://www.w3.org/2000/svg">
<ellipse cx="23.9995" cy="24" rx="23" ry="23" stroke="#FF94E1" stroke-width="1.2"/>
<path d="M13 21.125C13 17.7662 13 16.0869 14.0739 15.0434C15.1479 14 16.8764 14 20.3333 14H27.6667C31.1236 14 32.8521 14 33.9261 15.0434C35 16.0869 35 17.7662 35 21.125V25.875C35 29.2338 35 30.9131 33.9261 31.9566C32.8521 33 31.1236 33 27.6667 33H20.3333C16.8764 33 15.1479 33 14.0739 31.9566C13 30.9131 13 29.2338 13 25.875V21.125Z" stroke="#FF94E1" stroke-width="1.2"/>
<path d="M13 24.25C13 21.7751 13 20.5377 14.0739 19.7688C15.1479 19 16.8764 19 20.3333 19H27.6667C31.1236 19 32.8521 19 33.9261 19.7688C35 20.5377 35 21.7751 35 24.25V27.75C35 30.2249 35 31.4623 33.9261 32.2312C32.8521 33 31.1236 33 27.6667 33H20.3333C16.8764 33 15.1479 33 14.0739 32.2312C13 31.4623 13 30.2249 13 27.75V24.25Z" stroke="#FF94E1" stroke-width="1.2"/>
</svg>
