<svg width="9" height="14" viewBox="0 0 9 14" fill="none" xmlns="http://www.w3.org/2000/svg">
<path d="M0.46967 1.53033C0.176777 1.23744 0.176777 0.762563 0.46967 0.46967C0.762563 0.176777 1.23744 0.176777 1.53033 0.46967L0.46967 1.53033ZM7 7L7.53033 6.46967L8.06066 7L7.53033 7.53033L7 7ZM1.53033 13.5303C1.23744 13.8232 0.762563 13.8232 0.46967 13.5303C0.176777 13.2374 0.176777 12.7626 0.46967 12.4697L1.53033 13.5303ZM1.53033 0.46967L7.53033 6.46967L6.46967 7.53033L0.46967 1.53033L1.53033 0.46967ZM7.53033 7.53033L1.53033 13.5303L0.46967 12.4697L6.46967 6.46967L7.53033 7.53033Z" fill="#7D7D7D"/>
</svg>
