<svg width="397" height="217" viewBox="0 0 397 217" fill="none" xmlns="http://www.w3.org/2000/svg">
<g filter="url(#filter0_dd_2718_19216)">
<rect x="264" y="121" width="125" height="85.6164" rx="3.93836" fill="white"/>
</g>
<path d="M264 124.938C264 122.763 265.763 121 267.938 121H385.062C387.237 121 389 122.763 389 124.938V127.849H264V124.938Z" fill="#DADEE9"/>
<path d="M382.15 121H385.061C387.236 121 389 122.763 389 124.938V127.849H382.15V121Z" fill="#FF847E"/>
<rect x="278.45" y="136.174" width="18.8356" height="61.6438" rx="3.93836" fill="#E8E9EC"/>
<path d="M278.13 182.957H297.695V194.236C297.695 196.411 295.932 198.174 293.757 198.174H282.068C279.893 198.174 278.13 196.411 278.13 194.236V182.957Z" fill="#FF94E1"/>
<rect x="304.356" y="136.174" width="18.8356" height="61.6438" rx="3.93836" fill="#E8E9EC"/>
<path d="M304.217 169.913H322.695V194.236C322.695 196.411 320.932 198.174 318.757 198.174H308.155C305.98 198.174 304.217 196.411 304.217 194.236V169.913Z" fill="#868FFF"/>
<rect x="330.369" y="136.174" width="18.8356" height="61.6438" rx="3.93836" fill="#E8E9EC"/>
<path d="M330.369 159.695H349.205V193.879C349.205 196.054 347.441 197.817 345.266 197.817H334.307C332.132 197.817 330.369 196.054 330.369 193.879V159.695Z" fill="#6193FF"/>
<rect x="356.382" y="136.174" width="18.8356" height="61.6438" rx="3.93836" fill="#E8E9EC"/>
<path d="M356.381 150.773H375.216V193.879C375.216 196.054 373.453 197.817 371.278 197.817H360.319C358.144 197.817 356.381 196.054 356.381 193.879V150.773Z" fill="#59D7AB"/>
<g filter="url(#filter1_dd_2718_19216)">
<rect x="52" y="9" width="125" height="85.6164" rx="4.38356" fill="white"/>
</g>
<path d="M52 13.3836C52 10.9626 53.9626 9 56.3836 9H172.616C175.037 9 177 10.9626 177 13.3836V15.8493H52V13.3836Z" fill="#DADEE9"/>
<path d="M170.15 9H172.616C175.037 9 177 10.9626 177 13.3836V15.8493H170.15V9Z" fill="#FF847E"/>
<rect x="98.875" y="55.875" width="42.9687" height="3.90625" rx="1.95312" fill="#E8E9EC"/>
<rect x="98.875" y="63.6875" width="55.6641" height="3.90625" rx="1.95312" fill="#E8E9EC"/>
<rect x="98.875" y="71.5" width="55.6641" height="3.90625" rx="1.95312" fill="#E8E9EC"/>
<rect x="98.875" y="79.3125" width="55.6641" height="3.90625" rx="1.95312" fill="#E8E9EC"/>
<rect x="61.7656" y="55.875" width="7.24138" height="0.965517" rx="0.482759" fill="#E8E9EC"/>
<rect x="61.7656" y="57.5645" width="7.24138" height="0.965517" rx="0.482759" fill="#E8E9EC"/>
<rect x="61.7656" y="59.2544" width="7.24138" height="0.965517" rx="0.482759" fill="#E8E9EC"/>
<rect x="61.7656" y="60.9438" width="7.24138" height="0.965517" rx="0.482759" fill="#E8E9EC"/>
<rect x="61.7656" y="62.6338" width="7.24138" height="0.965517" rx="0.482759" fill="#E8E9EC"/>
<rect x="61.7656" y="64.3232" width="7.24138" height="0.965517" rx="0.482759" fill="#E8E9EC"/>
<rect x="61.7656" y="66.0127" width="7.24138" height="0.965517" rx="0.482759" fill="#E8E9EC"/>
<rect x="61.7656" y="67.7026" width="7.24138" height="0.965517" rx="0.482759" fill="#E8E9EC"/>
<rect x="61.7656" y="69.3921" width="7.24138" height="0.965517" rx="0.482759" fill="#E8E9EC"/>
<rect x="61.7656" y="71.082" width="7.24138" height="0.965517" rx="0.482759" fill="#E8E9EC"/>
<rect x="61.7656" y="72.7715" width="7.24138" height="0.965517" rx="0.482759" fill="#868FFF"/>
<rect x="61.7656" y="74.4614" width="7.24138" height="0.965517" rx="0.482759" fill="#868FFF"/>
<rect x="61.7656" y="76.1509" width="7.24138" height="0.965517" rx="0.482759" fill="#868FFF"/>
<rect x="61.7656" y="77.8403" width="7.24138" height="0.965517" rx="0.482759" fill="#868FFF"/>
<rect x="61.7656" y="79.5303" width="7.24138" height="0.965517" rx="0.482759" fill="#868FFF"/>
<rect x="61.7656" y="81.2197" width="7.24138" height="0.965517" rx="0.482759" fill="#868FFF"/>
<rect x="61.7656" y="82.9097" width="7.24138" height="0.965517" rx="0.482759" fill="#868FFF"/>
<rect x="61.7656" y="55.875" width="7.24138" height="0.965517" rx="0.482759" fill="#E8E9EC"/>
<rect x="61.7656" y="57.5645" width="7.24138" height="0.965517" rx="0.482759" fill="#E8E9EC"/>
<rect x="61.7656" y="59.2544" width="7.24138" height="0.965517" rx="0.482759" fill="#E8E9EC"/>
<rect x="61.7656" y="60.9438" width="7.24138" height="0.965517" rx="0.482759" fill="#E8E9EC"/>
<rect x="61.7656" y="62.6338" width="7.24138" height="0.965517" rx="0.482759" fill="#E8E9EC"/>
<rect x="61.7656" y="64.3232" width="7.24138" height="0.965517" rx="0.482759" fill="#E8E9EC"/>
<rect x="61.7656" y="66.0127" width="7.24138" height="0.965517" rx="0.482759" fill="#E8E9EC"/>
<rect x="61.7656" y="67.7026" width="7.24138" height="0.965517" rx="0.482759" fill="#E8E9EC"/>
<rect x="61.7656" y="69.3921" width="7.24138" height="0.965517" rx="0.482759" fill="#E8E9EC"/>
<rect x="61.7656" y="71.082" width="7.24138" height="0.965517" rx="0.482759" fill="#E8E9EC"/>
<rect x="61.7656" y="72.7715" width="7.24138" height="0.965517" rx="0.482759" fill="#868FFF"/>
<rect x="61.7656" y="74.4614" width="7.24138" height="0.965517" rx="0.482759" fill="#868FFF"/>
<rect x="61.7656" y="76.1509" width="7.24138" height="0.965517" rx="0.482759" fill="#868FFF"/>
<rect x="61.7656" y="77.8403" width="7.24138" height="0.965517" rx="0.482759" fill="#868FFF"/>
<rect x="61.7656" y="79.5303" width="7.24138" height="0.965517" rx="0.482759" fill="#868FFF"/>
<rect x="61.7656" y="81.2197" width="7.24138" height="0.965517" rx="0.482759" fill="#868FFF"/>
<rect x="61.7656" y="82.9097" width="7.24138" height="0.965517" rx="0.482759" fill="#868FFF"/>
<rect x="72.2881" y="55.875" width="7.24138" height="0.965517" rx="0.482759" fill="#E8E9EC"/>
<rect x="72.2881" y="57.5645" width="7.24138" height="0.965517" rx="0.482759" fill="#E8E9EC"/>
<rect x="72.2881" y="59.2544" width="7.24138" height="0.965517" rx="0.482759" fill="#E8E9EC"/>
<rect x="72.2881" y="60.9438" width="7.24138" height="0.965517" rx="0.482759" fill="#E8E9EC"/>
<rect x="72.2881" y="62.6338" width="7.24138" height="0.965517" rx="0.482759" fill="#95D2FF"/>
<rect x="72.2881" y="64.3232" width="7.24138" height="0.965517" rx="0.482759" fill="#95D2FF"/>
<rect x="72.2881" y="66.0127" width="7.24138" height="0.965517" rx="0.482759" fill="#95D2FF"/>
<rect x="72.2881" y="67.7026" width="7.24138" height="0.965517" rx="0.482759" fill="#95D2FF"/>
<rect x="72.2881" y="69.3921" width="7.24138" height="0.965517" rx="0.482759" fill="#95D2FF"/>
<rect x="72.2881" y="71.082" width="7.24138" height="0.965517" rx="0.482759" fill="#95D2FF"/>
<rect x="72.2881" y="72.7715" width="7.24138" height="0.965517" rx="0.482759" fill="#95D2FF"/>
<rect x="72.2881" y="74.4614" width="7.24138" height="0.965517" rx="0.482759" fill="#95D2FF"/>
<rect x="72.2881" y="76.1509" width="7.24138" height="0.965517" rx="0.482759" fill="#95D2FF"/>
<rect x="72.2881" y="77.8403" width="7.24138" height="0.965517" rx="0.482759" fill="#95D2FF"/>
<rect x="72.2881" y="79.5303" width="7.24138" height="0.965517" rx="0.482759" fill="#95D2FF"/>
<rect x="72.2881" y="81.2197" width="7.24138" height="0.965517" rx="0.482759" fill="#95D2FF"/>
<rect x="72.2881" y="82.9097" width="7.24138" height="0.965517" rx="0.482759" fill="#95D2FF"/>
<ellipse cx="110.594" cy="35.3672" rx="11.7187" ry="11.7187" stroke="#DADEE9" stroke-width="1.49481"/>
<path d="M110.545 22.901H109.797V24.3958H110.545V22.901ZM103.491 43.7707C103.175 43.5053 102.704 43.5465 102.438 43.8626C102.173 44.1788 102.214 44.6502 102.53 44.9156L103.491 43.7707ZM110.545 24.3958C112.309 24.3958 114.046 24.8211 115.611 25.6356L116.301 24.3097C114.524 23.3842 112.549 22.901 110.545 22.901V24.3958ZM115.611 25.6356C117.175 26.4501 118.521 27.6297 119.532 29.0746L120.757 28.2173C119.607 26.5755 118.079 25.2351 116.301 24.3097L115.611 25.6356ZM119.532 29.0746C120.544 30.5195 121.192 32.187 121.422 33.9358L122.904 33.7407C122.643 31.7537 121.906 29.859 120.757 28.2173L119.532 29.0746ZM121.422 33.9358C121.652 35.6845 121.458 37.463 120.854 39.1204L122.259 39.6317C122.944 37.7485 123.166 35.7277 122.904 33.7407L121.422 33.9358ZM120.854 39.1204C120.251 40.7778 119.257 42.2653 117.956 43.4568L118.966 44.559C120.444 43.2051 121.573 41.515 122.259 39.6317L120.854 39.1204ZM117.956 43.4568C116.656 44.6483 115.087 45.5087 113.383 45.965L113.77 47.4089C115.706 46.8904 117.488 45.9128 118.966 44.559L117.956 43.4568ZM113.383 45.965C111.679 46.4213 109.891 46.4601 108.169 46.0782L107.845 47.5375C109.802 47.9715 111.834 47.9274 113.77 47.4089L113.383 45.965ZM108.169 46.0782C106.447 45.6962 104.842 44.9046 103.491 43.7707L102.53 44.9156C104.065 46.2041 105.888 47.1035 107.845 47.5375L108.169 46.0782Z" fill="#59D7AB"/>
<ellipse cx="142.82" cy="35.3672" rx="11.7187" ry="11.7187" stroke="#DADEE9" stroke-width="1.49481"/>
<path d="M142.771 22.901H142.024V24.3958H142.771V22.901ZM135.718 43.7707C135.402 43.5053 134.93 43.5465 134.665 43.8626C134.399 44.1788 134.441 44.6502 134.757 44.9156L135.718 43.7707ZM142.771 24.3958C144.535 24.3958 146.273 24.8211 147.838 25.6356L148.528 24.3097C146.75 23.3842 144.775 22.901 142.771 22.901V24.3958ZM147.838 25.6356C149.402 26.4501 150.747 27.6297 151.759 29.0746L152.983 28.2173C151.834 26.5755 150.305 25.2351 148.528 24.3097L147.838 25.6356ZM151.759 29.0746C152.77 30.5195 153.419 32.187 153.649 33.9358L155.131 33.7407C154.869 31.7537 154.133 29.859 152.983 28.2173L151.759 29.0746ZM153.649 33.9358C153.879 35.6845 153.684 37.463 153.081 39.1204L154.485 39.6317C155.171 37.7485 155.392 35.7277 155.131 33.7407L153.649 33.9358ZM153.081 39.1204C152.477 40.7778 151.483 42.2653 150.183 43.4568L151.192 44.559C152.67 43.2051 153.8 41.515 154.485 39.6317L153.081 39.1204ZM150.183 43.4568C148.882 44.6483 147.313 45.5087 145.61 45.965L145.996 47.4089C147.932 46.8904 149.715 45.9128 151.192 44.559L150.183 43.4568ZM145.61 45.965C143.906 46.4213 142.117 46.4601 140.395 46.0782L140.072 47.5375C142.028 47.9715 144.061 47.9274 145.996 47.4089L145.61 45.965ZM140.395 46.0782C138.673 45.6962 137.069 44.9046 135.718 43.7707L134.757 44.9156C136.292 46.2041 138.115 47.1035 140.072 47.5375L140.395 46.0782Z" fill="#FF94E1"/>
<circle cx="73.4844" cy="35.3672" r="11.7187" fill="#E8E9EC"/>
<g clip-path="url(#clip0_2718_19216)">
<path d="M73.4848 28.5312C71.497 28.5312 69.8799 30.1484 69.8799 32.1361C69.8799 34.1239 71.497 35.741 73.4848 35.741C75.4725 35.741 77.0897 34.1239 77.0897 32.1361C77.0897 30.1484 75.4725 28.5312 73.4848 28.5312Z" fill="white"/>
</g>
<path d="M77.9699 38.096C76.9829 37.0939 75.6746 36.542 74.2858 36.542H72.6836C71.2949 36.542 69.9865 37.0939 68.9995 38.096C68.4038 38.7008 67.9705 39.4231 67.7217 40.2087C67.4167 41.1717 67.9857 42.136 68.8306 42.6896C69.3186 43.0093 69.8892 43.1796 70.4725 43.1796H73.4847H76.4969C77.0802 43.1796 77.6509 43.0093 78.1388 42.6896C78.9838 42.136 79.5528 41.1717 79.2478 40.2087C78.999 39.4231 78.5656 38.7008 77.9699 38.096Z" fill="white"/>
<rect x="82.8398" y="55.875" width="7.24138" height="0.965517" rx="0.482759" fill="#E8E9EC"/>
<rect x="82.8398" y="57.5645" width="7.24138" height="0.965517" rx="0.482759" fill="#E8E9EC"/>
<rect x="82.8398" y="59.2544" width="7.24138" height="0.965517" rx="0.482759" fill="#E8E9EC"/>
<rect x="82.8398" y="60.9438" width="7.24138" height="0.965517" rx="0.482759" fill="#E8E9EC"/>
<rect x="82.8398" y="62.6338" width="7.24138" height="0.965517" rx="0.482759" fill="#E8E9EC"/>
<rect x="82.8398" y="64.3232" width="7.24138" height="0.965517" rx="0.482759" fill="#E8E9EC"/>
<rect x="82.8398" y="66.0127" width="7.24138" height="0.965517" rx="0.482759" fill="#E8E9EC"/>
<rect x="82.8398" y="67.7026" width="7.24138" height="0.965517" rx="0.482759" fill="#E8E9EC"/>
<rect x="82.8398" y="69.3921" width="7.24138" height="0.965517" rx="0.482759" fill="#59D7AB"/>
<rect x="82.8398" y="71.082" width="7.24138" height="0.965517" rx="0.482759" fill="#59D7AB"/>
<rect x="82.8398" y="72.7715" width="7.24138" height="0.965517" rx="0.482759" fill="#59D7AB"/>
<rect x="82.8398" y="74.4614" width="7.24138" height="0.965517" rx="0.482759" fill="#59D7AB"/>
<rect x="82.8398" y="76.1509" width="7.24138" height="0.965517" rx="0.482759" fill="#59D7AB"/>
<rect x="82.8398" y="77.8403" width="7.24138" height="0.965517" rx="0.482759" fill="#59D7AB"/>
<rect x="82.8398" y="79.5303" width="7.24138" height="0.965517" rx="0.482759" fill="#59D7AB"/>
<rect x="82.8398" y="81.2197" width="7.24138" height="0.965517" rx="0.482759" fill="#59D7AB"/>
<rect x="82.8398" y="82.9097" width="7.24138" height="0.965517" rx="0.482759" fill="#59D7AB"/>
<g filter="url(#filter2_dd_2718_19216)">
<rect x="140" y="40" width="169.22" height="115.904" rx="5.79521" fill="white"/>
</g>
<path d="M140 45.7952C140 42.5946 142.595 40 145.795 40H303.425C306.625 40 309.22 42.5946 309.22 45.7952V49.2723H140V45.7952Z" fill="#DADEE9"/>
<path d="M208.911 69.6592C208.911 68.2785 210.03 67.1592 211.411 67.1592H237.808C239.188 67.1592 240.308 68.2785 240.308 69.6592V86.6915H208.911V69.6592Z" fill="#F1F8FE" stroke="#E8E9EC"/>
<path d="M208.411 87.1914H240.808V88.646C240.808 90.2726 239.489 91.5912 237.863 91.5912H211.356C209.73 91.5912 208.411 90.2726 208.411 88.646V87.1914Z" fill="#E8E9EC"/>
<path fill-rule="evenodd" clip-rule="evenodd" d="M223.504 104.071V113.59H225.713V104.052L265.626 103.709C265.947 103.706 266.209 103.966 266.209 104.288V113.59H268.418V104.288C268.418 102.739 267.155 101.487 265.607 101.5L225.713 101.843V91.5913H223.504V101.862L183.563 102.205C182.033 102.218 180.8 103.462 180.8 104.992V113.59H183.009V104.992C183.009 104.674 183.265 104.416 183.582 104.413L223.504 104.071Z" fill="#E8E9EC"/>
<path d="M208.91 116.588C208.91 115.208 210.029 114.088 211.41 114.088H237.807C239.187 114.088 240.307 115.208 240.307 116.588V133.621H208.91V116.588Z" fill="#F1F8FE" stroke="#E8E9EC"/>
<path d="M208.41 134.119H240.807V135.574C240.807 137.2 239.488 138.519 237.862 138.519H211.355C209.729 138.519 208.41 137.2 208.41 135.574V134.119Z" fill="#E8E9EC"/>
<path d="M251.614 116.588C251.614 115.208 252.734 114.088 254.114 114.088H280.511C281.892 114.088 283.011 115.208 283.011 116.588V133.621H251.614V116.588Z" fill="#F1F8FE" stroke="#E8E9EC"/>
<path d="M251.114 134.119H283.511V135.574C283.511 137.2 282.192 138.519 280.566 138.519H254.059C252.433 138.519 251.114 137.2 251.114 135.574V134.119Z" fill="#E8E9EC"/>
<path d="M166.206 116.588C166.206 115.208 167.325 114.088 168.706 114.088H195.103C196.483 114.088 197.603 115.208 197.603 116.588V133.621H166.206V116.588Z" fill="#F1F8FE" stroke="#E8E9EC"/>
<path d="M165.705 134.119H198.102V135.574C198.102 137.2 196.783 138.519 195.157 138.519H168.65C167.024 138.519 165.705 137.2 165.705 135.574V134.119Z" fill="#E8E9EC"/>
<path d="M144.601 94.3509C144.189 92.4548 143.158 90.7237 141.674 89.4459C140.767 88.6215 139.696 88.0445 138.542 87.7147C137.717 87.4262 136.81 87.3026 135.945 87.3026C131.04 87.2612 127.042 91.177 127 96.082C126.959 100.987 130.875 104.985 135.78 105.026C138.047 105.026 140.19 104.202 141.88 102.677C143.034 101.605 143.9 100.245 144.353 98.7611C144.642 97.8956 144.766 97.0299 144.766 96.1231C144.766 95.5462 144.601 94.9279 144.601 94.3509Z" fill="#FFD75E"/>
<path d="M134.472 97.5642V98.92H136.77C136.898 98.92 137.001 98.9642 137.08 99.0526C137.168 99.1312 137.213 99.2344 137.213 99.3621C137.213 99.4898 137.168 99.593 137.08 99.6716C137.001 99.7502 136.898 99.7895 136.77 99.7895H134.472V101.455C134.472 101.651 134.417 101.804 134.309 101.912C134.201 102.02 134.059 102.074 133.882 102.074C133.705 102.074 133.563 102.02 133.455 101.912C133.347 101.804 133.293 101.651 133.293 101.455V99.7895H132.246C132.128 99.7895 132.025 99.7502 131.937 99.6716C131.848 99.5832 131.804 99.48 131.804 99.3621C131.804 99.2344 131.848 99.1312 131.937 99.0526C132.025 98.9642 132.128 98.92 132.246 98.92H133.293V97.5642H132.246C132.128 97.5642 132.025 97.5249 131.937 97.4463C131.848 97.3579 131.804 97.2547 131.804 97.1368C131.804 97.0091 131.848 96.906 131.937 96.8274C132.025 96.7389 132.128 96.6947 132.246 96.6947H133.293V92.2C133.293 92.0232 133.347 91.8807 133.455 91.7726C133.563 91.6646 133.71 91.6105 133.897 91.6105H136.682C137.763 91.6105 138.603 91.8758 139.202 92.4063C139.811 92.9368 140.116 93.6639 140.116 94.5874C140.116 95.5011 139.806 96.2281 139.187 96.7684C138.578 97.2989 137.743 97.5642 136.682 97.5642H134.472ZM134.486 96.6947H136.505C137.311 96.6947 137.92 96.5277 138.333 96.1937C138.745 95.8498 138.952 95.3389 138.952 94.6611C138.952 93.2758 138.146 92.5832 136.535 92.5832H134.486V96.6947Z" fill="#E2A63B"/>
<path d="M271.081 156.881C270.751 155.364 269.926 153.979 268.739 152.957C268.014 152.297 267.157 151.836 266.233 151.572C265.574 151.341 264.848 151.242 264.156 151.242C260.232 151.209 257.033 154.342 257 158.266C256.967 162.19 260.1 165.388 264.024 165.421C265.838 165.421 267.552 164.762 268.904 163.541C269.828 162.684 270.52 161.596 270.883 160.409C271.114 159.716 271.212 159.024 271.212 158.298C271.212 157.837 271.081 157.342 271.081 156.881Z" fill="#FFD75E"/>
<path d="M262.976 159.451V160.536H264.816C264.918 160.536 265 160.571 265.063 160.642C265.134 160.705 265.169 160.788 265.169 160.89C265.169 160.992 265.134 161.074 265.063 161.137C265 161.2 264.918 161.232 264.816 161.232H262.976V162.564C262.976 162.721 262.933 162.843 262.847 162.929C262.76 163.016 262.646 163.059 262.505 163.059C262.363 163.059 262.249 163.016 262.163 162.929C262.077 162.843 262.033 162.721 262.033 162.564V161.232H261.196C261.102 161.232 261.019 161.2 260.949 161.137C260.878 161.067 260.843 160.984 260.843 160.89C260.843 160.788 260.878 160.705 260.949 160.642C261.019 160.571 261.102 160.536 261.196 160.536H262.033V159.451H261.196C261.102 159.451 261.019 159.42 260.949 159.357C260.878 159.286 260.843 159.204 260.843 159.109C260.843 159.007 260.878 158.925 260.949 158.862C261.019 158.791 261.102 158.756 261.196 158.756H262.033V155.16C262.033 155.019 262.077 154.905 262.163 154.818C262.249 154.732 262.367 154.688 262.517 154.688H264.745C265.609 154.688 266.281 154.901 266.761 155.325C267.248 155.749 267.492 156.331 267.492 157.07C267.492 157.801 267.244 158.382 266.749 158.815C266.262 159.239 265.594 159.451 264.745 159.451H262.976ZM262.988 158.756H264.603C265.248 158.756 265.735 158.622 266.065 158.355C266.395 158.08 266.56 157.671 266.56 157.129C266.56 156.021 265.916 155.467 264.627 155.467H262.988V158.756Z" fill="#E2A63B"/>
<path d="M314.721 36.9838C314.329 35.1825 313.35 33.538 311.94 32.3241C311.079 31.5409 310.061 30.9927 308.964 30.6794C308.181 30.4054 307.32 30.2879 306.498 30.2879C301.838 30.2486 298.039 33.9686 298 38.6284C297.961 43.2881 301.681 47.0865 306.341 47.1256C308.495 47.1256 310.531 46.3424 312.136 44.8936C313.233 43.8754 314.055 42.5833 314.486 41.1735C314.76 40.3513 314.877 39.5289 314.877 38.6674C314.877 38.1194 314.721 37.532 314.721 36.9838Z" fill="#FFD75E"/>
<path d="M305.097 39.786V41.074H307.281C307.403 41.074 307.501 41.116 307.575 41.2C307.659 41.2747 307.701 41.3727 307.701 41.494C307.701 41.6153 307.659 41.7133 307.575 41.788C307.501 41.8627 307.403 41.9 307.281 41.9H305.097V43.482C305.097 43.6687 305.046 43.8133 304.943 43.916C304.841 44.0187 304.705 44.07 304.537 44.07C304.369 44.07 304.234 44.0187 304.131 43.916C304.029 43.8133 303.977 43.6687 303.977 43.482V41.9H302.983C302.871 41.9 302.773 41.8627 302.689 41.788C302.605 41.704 302.563 41.606 302.563 41.494C302.563 41.3727 302.605 41.2747 302.689 41.2C302.773 41.116 302.871 41.074 302.983 41.074H303.977V39.786H302.983C302.871 39.786 302.773 39.7487 302.689 39.674C302.605 39.59 302.563 39.492 302.563 39.38C302.563 39.2587 302.605 39.1607 302.689 39.086C302.773 39.002 302.871 38.96 302.983 38.96H303.977V34.69C303.977 34.522 304.029 34.3867 304.131 34.284C304.234 34.1813 304.374 34.13 304.551 34.13H307.197C308.224 34.13 309.022 34.382 309.591 34.886C310.17 35.39 310.459 36.0807 310.459 36.958C310.459 37.826 310.165 38.5167 309.577 39.03C308.999 39.534 308.205 39.786 307.197 39.786H305.097ZM305.111 38.96H307.029C307.795 38.96 308.373 38.8013 308.765 38.484C309.157 38.1573 309.353 37.672 309.353 37.028C309.353 35.712 308.588 35.054 307.057 35.054H305.111V38.96Z" fill="#E2A63B"/>
<path fill-rule="evenodd" clip-rule="evenodd" d="M228.143 75.6423L221.718 75.6429L221.717 74.9692L228.142 74.9687L228.143 75.6423Z" fill="#E1E5F0" fill-opacity="0.15"/>
<path d="M219.252 70.8433C219.251 70.5174 219.516 70.2515 219.846 70.2515H227.504L230.509 73.205L230.532 82.8854C230.533 83.2117 230.269 83.4774 229.939 83.4774H219.878C219.549 83.4774 219.283 83.2108 219.282 82.8856L219.252 70.8433Z" fill="white" stroke="#E8E9EC" stroke-width="0.5"/>
<path d="M227.605 70.0004L230.757 73.0991L227.789 73.6272C227.33 73.7089 227.021 73.4029 227.1 72.9456L227.605 70.0004Z" fill="#FFD75E"/>
<path fill-rule="evenodd" clip-rule="evenodd" d="M228.233 77.3259L221.554 77.3265L221.553 76.6528L228.231 76.6522L228.233 77.3259Z" fill="#FFD75E"/>
<path fill-rule="evenodd" clip-rule="evenodd" d="M228.228 75.6423L221.549 75.6429L221.548 74.9692L228.226 74.9686L228.228 75.6423Z" fill="#FFD75E"/>
<path fill-rule="evenodd" clip-rule="evenodd" d="M228.236 79.0945L221.557 79.0951L221.556 78.4214L228.234 78.4208L228.236 79.0945Z" fill="#FFD75E"/>
<path fill-rule="evenodd" clip-rule="evenodd" d="M225.113 80.7793L221.562 80.7796L221.561 80.106L225.111 80.1056L225.113 80.7793Z" fill="#FFD75E"/>
<rect x="171" y="119" width="5" height="5" rx="1" fill="#FF94E1"/>
<rect x="183" y="125" width="5" height="5" rx="1" fill="#59D7AB"/>
<rect x="262" y="125" width="5" height="5" rx="1" fill="#FF94E1"/>
<rect x="212" y="121" width="5" height="5" rx="1" fill="#59D7AB"/>
<rect x="232" y="121" width="5" height="5" rx="1" fill="#95D2FF"/>
<rect x="222" y="126" width="5" height="5" rx="1" fill="#FFD75D"/>
<rect x="273" y="118" width="5" height="5" rx="1" fill="#FFD75D"/>
<defs>
<filter id="filter0_dd_2718_19216" x="256.911" y="113.123" width="139.178" height="102.945" filterUnits="userSpaceOnUse" color-interpolation-filters="sRGB">
<feFlood flood-opacity="0" result="BackgroundImageFix"/>
<feColorMatrix in="SourceAlpha" type="matrix" values="0 0 0 0 0 0 0 0 0 0 0 0 0 0 0 0 0 0 127 0" result="hardAlpha"/>
<feOffset dx="-0.787671" dy="3.15068"/>
<feGaussianBlur stdDeviation="3.15068"/>
<feColorMatrix type="matrix" values="0 0 0 0 0.0901961 0 0 0 0 0.270588 0 0 0 0 0.545098 0 0 0 0.04 0"/>
<feBlend mode="normal" in2="BackgroundImageFix" result="effect1_dropShadow_2718_19216"/>
<feColorMatrix in="SourceAlpha" type="matrix" values="0 0 0 0 0 0 0 0 0 0 0 0 0 0 0 0 0 0 127 0" result="hardAlpha"/>
<feOffset dx="0.787671" dy="-1.57534"/>
<feGaussianBlur stdDeviation="3.15068"/>
<feColorMatrix type="matrix" values="0 0 0 0 0.0901961 0 0 0 0 0.270588 0 0 0 0 0.545098 0 0 0 0.04 0"/>
<feBlend mode="normal" in2="effect1_dropShadow_2718_19216" result="effect2_dropShadow_2718_19216"/>
<feBlend mode="normal" in="SourceGraphic" in2="effect2_dropShadow_2718_19216" result="shape"/>
</filter>
<filter id="filter1_dd_2718_19216" x="44.1096" y="0.232877" width="140.781" height="104.904" filterUnits="userSpaceOnUse" color-interpolation-filters="sRGB">
<feFlood flood-opacity="0" result="BackgroundImageFix"/>
<feColorMatrix in="SourceAlpha" type="matrix" values="0 0 0 0 0 0 0 0 0 0 0 0 0 0 0 0 0 0 127 0" result="hardAlpha"/>
<feOffset dx="-0.876712" dy="3.50685"/>
<feGaussianBlur stdDeviation="3.50685"/>
<feColorMatrix type="matrix" values="0 0 0 0 0.0901961 0 0 0 0 0.270588 0 0 0 0 0.545098 0 0 0 0.04 0"/>
<feBlend mode="normal" in2="BackgroundImageFix" result="effect1_dropShadow_2718_19216"/>
<feColorMatrix in="SourceAlpha" type="matrix" values="0 0 0 0 0 0 0 0 0 0 0 0 0 0 0 0 0 0 127 0" result="hardAlpha"/>
<feOffset dx="0.876712" dy="-1.75342"/>
<feGaussianBlur stdDeviation="3.50685"/>
<feColorMatrix type="matrix" values="0 0 0 0 0.0901961 0 0 0 0 0.270588 0 0 0 0 0.545098 0 0 0 0.04 0"/>
<feBlend mode="normal" in2="effect1_dropShadow_2718_19216" result="effect2_dropShadow_2718_19216"/>
<feBlend mode="normal" in="SourceGraphic" in2="effect2_dropShadow_2718_19216" result="shape"/>
</filter>
<filter id="filter2_dd_2718_19216" x="129.569" y="28.4096" width="190.082" height="141.403" filterUnits="userSpaceOnUse" color-interpolation-filters="sRGB">
<feFlood flood-opacity="0" result="BackgroundImageFix"/>
<feColorMatrix in="SourceAlpha" type="matrix" values="0 0 0 0 0 0 0 0 0 0 0 0 0 0 0 0 0 0 127 0" result="hardAlpha"/>
<feOffset dx="-1.15904" dy="4.63616"/>
<feGaussianBlur stdDeviation="4.63616"/>
<feColorMatrix type="matrix" values="0 0 0 0 0.0901961 0 0 0 0 0.270588 0 0 0 0 0.545098 0 0 0 0.04 0"/>
<feBlend mode="normal" in2="BackgroundImageFix" result="effect1_dropShadow_2718_19216"/>
<feColorMatrix in="SourceAlpha" type="matrix" values="0 0 0 0 0 0 0 0 0 0 0 0 0 0 0 0 0 0 127 0" result="hardAlpha"/>
<feOffset dx="1.15904" dy="-2.31808"/>
<feGaussianBlur stdDeviation="4.63616"/>
<feColorMatrix type="matrix" values="0 0 0 0 0.0901961 0 0 0 0 0.270588 0 0 0 0 0.545098 0 0 0 0.04 0"/>
<feBlend mode="normal" in2="effect1_dropShadow_2718_19216" result="effect2_dropShadow_2718_19216"/>
<feBlend mode="normal" in="SourceGraphic" in2="effect2_dropShadow_2718_19216" result="shape"/>
</filter>
<clipPath id="clip0_2718_19216">
<rect width="13.6719" height="13.6719" fill="white" transform="translate(66.6484 28.5312)"/>
</clipPath>
</defs>
</svg>
