<svg width="64" height="64" viewBox="0 0 64 64" fill="none" xmlns="http://www.w3.org/2000/svg">
<rect opacity="0.05" width="64" height="64" rx="5" fill="#FFD75E"/>
<circle cx="32.0004" cy="32.0004" r="20.8696" stroke="#FFD75E"/>
<path d="M29.8707 41.6086H31.6968H35.3489C38.7922 41.6086 40.5139 41.6086 41.5836 40.5389C42.6533 39.4692 42.6533 37.7476 42.6533 34.3043V29.4347C42.6533 25.9914 42.6533 24.2698 41.5836 23.2001C40.5139 22.1304 38.7922 22.1304 35.3489 22.1304H28.0446C24.6013 22.1304 22.8796 22.1304 21.8099 23.2001C20.7402 24.2698 20.7402 25.9914 20.7402 29.4347V31.8695V33.0869" stroke="#FFD75E" stroke-linecap="round"/>
<path d="M26.8271 22.1304V22.1304C27.993 22.1304 28.576 22.1304 29.0487 22.4117C29.0679 22.4231 29.0869 22.4349 29.1056 22.4469C29.5687 22.7439 29.8294 23.2653 30.3508 24.3081L31.8085 27.2236C32.3464 28.2994 32.6154 28.8373 33.0987 29.136C33.582 29.4347 34.1834 29.4347 35.3862 29.4347H38.6532C40.5389 29.4347 41.4817 29.4347 42.0674 30.0205C42.6532 30.6063 42.6532 31.5491 42.6532 33.4347V36.7391" stroke="#FFD75E"/>
<path d="M20.1335 38.0506L28.0658 38.0505M24.0995 42.101L24.0996 34" stroke="#FFD75E"/>
</svg>
