<svg width="64" height="64" viewBox="0 0 64 64" fill="none" xmlns="http://www.w3.org/2000/svg">
<rect opacity="0.05" width="64" height="64" rx="5" fill="#FF847E"/>
<circle cx="32" cy="32" r="20" stroke="#FF847E"/>
<path d="M30.5123 40.531H32.2963H35.8641C39.228 40.531 40.9099 40.531 41.9549 39.5134C42.9999 38.4957 42.9999 36.8578 42.9999 33.5819V28.9491C42.9999 25.6733 42.9999 24.0354 41.9549 23.0177C40.9099 22 39.228 22 35.8641 22H28.7284C25.3646 22 23.6827 22 22.6377 23.0177C21.5927 24.0354 21.5927 25.6733 21.5927 28.9491V31.2655V32.4237" stroke="#FF847E" stroke-linecap="round"/>
<path d="M27.5391 22V22C28.6649 22 29.2277 22 29.6891 22.2638C29.7224 22.2829 29.7552 22.3029 29.7873 22.3238C30.2328 22.6137 30.4898 23.1145 31.004 24.116L32.3698 26.7761C32.913 27.834 33.1845 28.3629 33.6645 28.656C34.1445 28.9491 34.7391 28.9491 35.9282 28.9491H38.9998C40.8855 28.9491 41.8283 28.9491 42.4141 29.5349C42.9998 30.1207 42.9998 31.0635 42.9998 32.9491V35.8983" stroke="#FF847E"/>
<path d="M21 37.1456L28.7491 37.1456M24.8744 40.999L24.8745 33.292" stroke="#FF847E"/>
</svg>
