<svg width="64" height="64" viewBox="0 0 64 64" fill="none" xmlns="http://www.w3.org/2000/svg">
<rect opacity="0.1" width="64" height="64" rx="5" fill="#868FFF"/>
<circle cx="32.0004" cy="32.0004" r="20.8696" stroke="#868FFF"/>
<path d="M29.8707 41.6091H31.6968H35.3489C38.7922 41.6091 40.5139 41.6091 41.5836 40.5394C42.6533 39.4697 42.6533 37.7481 42.6533 34.3048V29.4352C42.6533 25.9919 42.6533 24.2703 41.5836 23.2006C40.5139 22.1309 38.7922 22.1309 35.3489 22.1309H28.0446C24.6013 22.1309 22.8796 22.1309 21.8099 23.2006C20.7402 24.2703 20.7402 25.9919 20.7402 29.4352V31.87V33.0874" stroke="#868FFF" stroke-linecap="round"/>
<path d="M26.8271 22.1309V22.1309C27.993 22.1309 28.576 22.1309 29.0487 22.4122C29.0679 22.4236 29.0869 22.4353 29.1056 22.4474C29.5687 22.7444 29.8294 23.2658 30.3508 24.3086L31.8085 27.2241C32.3464 28.2999 32.6154 28.8378 33.0987 29.1365C33.582 29.4352 34.1834 29.4352 35.3862 29.4352H38.6532C40.5389 29.4352 41.4817 29.4352 42.0674 30.021C42.6532 30.6068 42.6532 31.5496 42.6532 33.4352V36.7396" stroke="#868FFF"/>
<path d="M20.1335 38.0506L28.0658 38.0505M24.0995 42.101L24.0996 34" stroke="#868FFF"/>
</svg>
