<svg width="24" height="21" viewBox="0 0 24 21" fill="none" xmlns="http://www.w3.org/2000/svg">
<path d="M0.5 4.6251C0.5 3.57576 1.35066 2.7251 2.4 2.7251H21.6C22.6493 2.7251 23.5 3.57576 23.5 4.6251V18.5451C23.5 19.5944 22.6493 20.4451 21.6 20.4451H2.4C1.35066 20.4451 0.5 19.5944 0.5 18.5451V4.6251Z" fill="#FFC531" stroke="#FFC531"/>
<path d="M0 2.75986C0 1.43438 1.07452 0.359863 2.4 0.359863H10.4582C11.3975 0.359863 12.2505 0.907814 12.641 1.76209L13.5408 3.73064C13.9313 4.58491 14.7843 5.13286 15.7236 5.13286H21.6C22.9255 5.13286 24 6.20738 24 7.53286V18.5999C24 19.9253 22.9255 20.9999 21.6 20.9999H2.4C1.07452 20.9999 0 19.9253 0 18.5999V2.75986Z" fill="#FFD75E"/>
</svg>
