<svg width="48" height="48" viewBox="0 0 48 48" fill="none" xmlns="http://www.w3.org/2000/svg">
<ellipse cx="24" cy="24" rx="23" ry="23" stroke="#59D7AB" stroke-width="1.2"/>
<path fill-rule="evenodd" clip-rule="evenodd" d="M24.5876 15.3999L24.952 16.9924H32.8C34.015 16.9924 35 17.9629 35 19.1601V31.7326C35 32.9298 34.015 33.9003 32.8 33.9003H15.2C13.985 33.9003 13 32.9298 13 31.7326V16.3248C13 15.0961 13.985 14.1001 15.2 14.1001H22.5867C23.4477 14.1001 24.2296 14.608 24.5876 15.3999ZM25.4124 19.0045L25.2541 18.3124H32.8C33.3045 18.3124 33.68 18.7103 33.68 19.1601L33.68 20.8651C33.4105 20.7461 33.1129 20.68 32.8 20.68H27.4133C26.5523 20.68 25.7704 19.7964 25.4124 19.0045ZM24.1552 19.4278L24.2096 19.5482C24.7786 20.8069 26.0274 22 27.4133 22H32.8C33.2721 22 33.68 22.3911 33.68 22.9047L33.68 31.6754C33.68 32.189 33.2721 32.5801 32.8 32.5801H15.2C14.7279 32.5801 14.32 32.189 14.32 31.6754V19.1601V17.1728V16.3248C14.32 15.8112 14.7279 15.4201 15.2 15.4201H22.5867C22.8899 15.4201 23.1759 15.5816 23.3369 15.8518L23.5979 16.9924L23.8999 18.3124L24.1552 19.4278Z" fill="#59D7AB"/>
</svg>
