<svg width="20" height="18" viewBox="0 0 20 18" fill="none" xmlns="http://www.w3.org/2000/svg">
<path d="M2.45067 9.90821L9.40329 16.4394C9.67065 16.6906 9.80434 16.8162 9.96599 16.8282C9.98863 16.8299 10.0114 16.8299 10.034 16.8282C10.1957 16.8162 10.3293 16.6906 10.5967 16.4394L17.5493 9.90821C19.5055 8.07059 19.743 5.0466 18.0978 2.92606L17.7885 2.52734C15.8203 -0.00942111 11.8696 0.416014 10.4867 3.31365C10.2913 3.72296 9.70868 3.72296 9.51333 3.31365C8.13037 0.416014 4.17972 -0.0094173 2.21154 2.52734L1.90219 2.92607C0.256948 5.0466 0.494498 8.07059 2.45067 9.90821Z" stroke="#9C9C9C" stroke-width="1.1"/>
</svg>
