<svg width="24" height="24" viewBox="0 0 24 24" fill="none" xmlns="http://www.w3.org/2000/svg">
<rect width="24" height="24" rx="5" fill="#FF847E"/>
<path d="M5.41238 12.47C5.67238 12.47 5.90072 12.4367 6.09738 12.37C6.29738 12.3033 6.46238 12.21 6.59238 12.09C6.72572 11.9667 6.82572 11.8183 6.89238 11.645C6.95905 11.4717 6.99238 11.2783 6.99238 11.065C6.99238 10.855 6.95905 10.6667 6.89238 10.5C6.82905 10.3333 6.73238 10.1917 6.60238 10.075C6.47238 9.95833 6.30738 9.87 6.10738 9.81C5.91072 9.74667 5.67905 9.715 5.41238 9.715H4.34238V12.47H5.41238ZM5.41238 8.8C5.88238 8.8 6.28905 8.855 6.63238 8.965C6.97905 9.075 7.26405 9.23 7.48738 9.43C7.71405 9.62667 7.88238 9.865 7.99238 10.145C8.10238 10.4217 8.15738 10.7283 8.15738 11.065C8.15738 11.4083 8.09905 11.7233 7.98238 12.01C7.86572 12.2933 7.69238 12.5383 7.46238 12.745C7.23238 12.9483 6.94572 13.1083 6.60238 13.225C6.26238 13.3383 5.86572 13.395 5.41238 13.395H4.34238V16H3.17238V8.8H5.41238ZM15.5959 12.4C15.5959 12.9333 15.5092 13.4217 15.3359 13.865C15.1626 14.305 14.9176 14.6833 14.6009 15C14.2876 15.3167 13.9092 15.5633 13.4659 15.74C13.0259 15.9133 12.5359 16 11.9959 16H9.2759V8.8H11.9959C12.5359 8.8 13.0259 8.88833 13.4659 9.065C13.9092 9.23833 14.2876 9.48333 14.6009 9.8C14.9176 10.1167 15.1626 10.4967 15.3359 10.94C15.5092 11.38 15.5959 11.8667 15.5959 12.4ZM14.4009 12.4C14.4009 11.9867 14.3442 11.615 14.2309 11.285C14.1209 10.955 13.9609 10.6767 13.7509 10.45C13.5442 10.2233 13.2926 10.05 12.9959 9.93C12.6992 9.80667 12.3659 9.745 11.9959 9.745H10.4509V15.055H11.9959C12.3659 15.055 12.6992 14.995 12.9959 14.875C13.2926 14.755 13.5442 14.5817 13.7509 14.355C13.9609 14.125 14.1209 13.8467 14.2309 13.52C14.3442 13.19 14.4009 12.8167 14.4009 12.4ZM18.0583 9.745V12.05H20.8733V12.995H18.0583V16H16.8833V8.8H21.3733V9.745H18.0583Z" fill="white"/>
</svg>
