<svg width="20" height="20" viewBox="0 0 20 20" fill="none" xmlns="http://www.w3.org/2000/svg">
<path d="M1 11V9C1 5.22876 1 3.34315 2.17157 2.17157C3.34315 1 5.22876 1 9 1H11C14.7712 1 16.6569 1 17.8284 2.17157C19 3.34315 19 5.22876 19 9V11C19 14.7712 19 16.6569 17.8284 17.8284C16.6569 19 14.7712 19 11 19H10" stroke="#9C9C9C"/>
<path d="M5 7L9.97608 12.8054C10.0148 12.8506 10.0342 12.8732 10.0492 12.8892C10.5125 13.384 11.3235 13.2842 11.653 12.6918C11.6637 12.6726 11.677 12.646 11.7036 12.5928V12.5928C11.7532 12.4936 11.778 12.4441 11.7984 12.4071C12.4259 11.2746 13.9477 11.0276 14.9011 11.9036C14.9322 11.9322 14.9714 11.9714 15.0498 12.0498L17 14" stroke="#9C9C9C" stroke-linecap="round"/>
<circle cx="14.5" cy="5.5" r="1.5" fill="#9C9C9C"/>
<path d="M6 14V13.5H6.5V14H6ZM1.31235 18.3904C1.09672 18.5629 0.78207 18.528 0.609566 18.3123C0.437061 18.0967 0.472022 17.7821 0.687653 17.6096L1.31235 18.3904ZM5.5 19V14H6.5V19H5.5ZM6 14.5H1V13.5H6V14.5ZM6.31235 14.3904L1.31235 18.3904L0.687653 17.6096L5.68765 13.6096L6.31235 14.3904Z" fill="#9C9C9C"/>
</svg>
