<svg width="21" height="17" viewBox="0 0 21 17" fill="none" xmlns="http://www.w3.org/2000/svg">
<path fill-rule="evenodd" clip-rule="evenodd" d="M2.29688 0C2.46873 0 2.60805 0.13932 2.60805 0.31118V1.98208L4.27309 1.98208C4.44494 1.98208 4.58427 2.1214 4.58427 2.29326C4.58427 2.46512 4.44494 2.60444 4.27309 2.60444H2.60806V4.27309C2.60806 4.44494 2.46874 4.58427 2.29688 4.58427C2.12502 4.58427 1.9857 4.44494 1.9857 4.27309V2.60444H0.31118C0.13932 2.60444 0 2.46512 0 2.29326C0 2.1214 0.13932 1.98208 0.31118 1.98208L1.9857 1.98208V0.31118C1.9857 0.13932 2.12502 0 2.29688 0ZM13.4211 1.11845C13.863 1.11845 14.0145 1.12201 14.1423 1.16295C14.3051 1.21509 14.4505 1.31094 14.5625 1.44003C14.6505 1.54137 14.7135 1.67926 14.8875 2.08541L15.2578 2.94947C15.6831 3.94175 16.6588 4.58512 17.7384 4.58512C18.8851 4.58512 19.8148 5.51475 19.8148 6.6615V12.4255C19.8148 13.3144 19.8141 13.9498 19.7492 14.4327C19.6855 14.9067 19.565 15.1868 19.359 15.3928C19.1531 15.5987 18.8729 15.7192 18.399 15.7829C17.9161 15.8478 17.2807 15.8485 16.3918 15.8485H4.05057C3.16162 15.8485 2.52621 15.8478 2.04334 15.7829C1.56941 15.7192 1.28927 15.5987 1.0833 15.3928C0.877325 15.1868 0.756886 14.9067 0.693168 14.4327C0.628247 13.9498 0.627586 13.3144 0.627586 12.4255V6.31196C0.627586 6.1401 0.488266 6.00078 0.316406 6.00078C0.144546 6.00078 0.00522631 6.1401 0.00522631 6.31196V12.4255L0.00522619 12.4491C0.00522029 13.3092 0.00521562 13.9865 0.076358 14.5157C0.149354 15.0586 0.302342 15.492 0.643224 15.8328C0.984105 16.1737 1.41747 16.3267 1.96041 16.3997C2.48956 16.4708 3.16682 16.4708 4.02694 16.4708H4.05057H16.3918H16.4154C17.2755 16.4708 17.9528 16.4708 18.4819 16.3997C19.0249 16.3267 19.4582 16.1737 19.7991 15.8328C20.14 15.492 20.293 15.0586 20.366 14.5157C20.4371 13.9865 20.4371 13.3093 20.4371 12.4492V12.4492V12.4255V6.6615C20.4371 5.17103 19.2288 3.96276 17.7384 3.96276C16.9078 3.96276 16.1571 3.46776 15.8299 2.70431L15.4596 1.84025L15.4398 1.79404C15.2934 1.45212 15.1924 1.21628 15.0325 1.03206C14.8458 0.816905 14.6035 0.657162 14.3322 0.570252C14.0999 0.495839 13.8433 0.495938 13.4714 0.496081L13.4211 0.496094H6.31641C6.14455 0.496094 6.00523 0.635414 6.00523 0.807274C6.00523 0.979134 6.14455 1.11845 6.31641 1.11845H13.4211ZM13.5667 9.22587C13.5667 11.0702 12.0716 12.5654 10.2272 12.5654C8.3828 12.5654 6.88763 11.0702 6.88763 9.22587C6.88763 7.38149 8.3828 5.88632 10.2272 5.88632C12.0716 5.88632 13.5667 7.38149 13.5667 9.22587ZM14.1891 9.22587C14.1891 11.414 12.4153 13.1878 10.2272 13.1878C8.03908 13.1878 6.26527 11.414 6.26527 9.22587C6.26527 7.03777 8.03908 5.26396 10.2272 5.26396C12.4153 5.26396 14.1891 7.03777 14.1891 9.22587Z" fill="#5F5F5F"/>
</svg>
