<svg width="48" height="48" viewBox="0 0 48 48" fill="none" xmlns="http://www.w3.org/2000/svg">
<circle cx="23.9993" cy="24" r="23" stroke="#59D7AB" stroke-width="1.2"/>
<path d="M11.8939 19.8945C11.8939 16.1233 11.8939 14.2377 13.0655 13.0661C14.2371 11.8945 16.1227 11.8945 19.8939 11.8945H28.1044C31.8757 11.8945 33.7613 11.8945 34.9329 13.0661C36.1044 14.2377 36.1044 16.1233 36.1044 19.8945V28.1051C36.1044 31.8763 36.1044 33.7619 34.9329 34.9335C33.7613 36.1051 31.8757 36.1051 28.1044 36.1051H19.8939C16.1227 36.1051 14.2371 36.1051 13.0655 34.9335C11.8939 33.7619 11.8939 31.8763 11.8939 28.1051V19.8945Z" stroke="#59D7AB" stroke-width="1.2"/>
<path fill-rule="evenodd" clip-rule="evenodd" d="M13.7142 27.1756L15.5767 25.7137C16.4513 25.0272 17.0657 24.5464 17.5726 24.2531C18.0674 23.9669 18.3802 23.9075 18.6632 23.9657C18.9462 24.0239 19.2102 24.2018 19.5519 24.6601C19.902 25.1295 20.2769 25.8137 20.8097 26.7896L21.3791 27.8325L21.3964 27.8642C21.6443 28.3183 21.8556 28.7053 22.0651 28.9862C22.2877 29.2848 22.5614 29.5378 22.9596 29.6196C23.3578 29.7015 23.7091 29.577 24.0315 29.3905C24.3348 29.215 24.6816 28.9427 25.0886 28.6233L25.117 28.601L26.0764 27.8479C26.6789 27.375 27.0964 27.0483 27.4477 26.8348C27.7875 26.6282 28.0174 26.5585 28.2375 26.5585C28.4575 26.5585 28.6874 26.6282 29.0272 26.8348C29.3785 27.0483 29.7961 27.375 30.3985 27.8479L33.2162 30.0596L33.8336 29.273L31.016 27.0613L30.9913 27.0419C30.4194 26.593 29.9551 26.2285 29.5466 25.9802C29.1207 25.7214 28.7086 25.5585 28.2375 25.5585C27.7663 25.5585 27.3542 25.7214 26.9283 25.9802C26.5198 26.2285 26.0555 26.593 25.4836 27.0419L25.4836 27.0419L25.4589 27.0613L24.4995 27.8143C24.0562 28.1623 23.7652 28.3892 23.5308 28.5249C23.3084 28.6535 23.2169 28.6516 23.161 28.6401C23.1051 28.6286 23.0203 28.5943 22.8667 28.3884C22.7048 28.1712 22.5269 27.8479 22.2568 27.3532L21.6874 26.3104L21.6683 26.2753L21.6683 26.2753C21.1591 25.3426 20.751 24.5953 20.3535 24.0623C19.9427 23.5114 19.4899 23.1147 18.8646 22.9862C18.2393 22.8576 17.6667 23.0434 17.0719 23.3876C16.4963 23.7205 15.8265 24.2463 14.9906 24.9024L14.9906 24.9024L14.9592 24.9271L13.7142 25.9043V27.1756Z" fill="#59D7AB"/>
<ellipse cx="29.2693" cy="16.9554" rx="1.81579" ry="1.81579" fill="#59D7AB"/>
</svg>
