<svg width="20" height="20" viewBox="0 0 20 20" fill="none" xmlns="http://www.w3.org/2000/svg">
<g clip-path="url(#clip0)">
<path d="M18.7597 0.732217C17.8843 -0.143161 16.4651 -0.143161 15.5898 0.732217L6.70328 9.6187C6.64238 9.6796 6.59841 9.75509 6.57545 9.83798L5.40685 14.0569C5.35879 14.2299 5.40763 14.4151 5.53449 14.5421C5.66154 14.669 5.84677 14.7178 6.01975 14.67L10.2386 13.5012C10.3215 13.4782 10.397 13.4342 10.4579 13.3733L19.3442 4.48667C20.2182 3.61071 20.2182 2.19267 19.3442 1.31671L18.7597 0.732217ZM7.7886 9.94246L15.0615 2.66937L17.4071 5.01494L10.134 12.288L7.7886 9.94246ZM7.32007 10.8826L9.19399 12.7568L6.60191 13.4749L7.32007 10.8826ZM18.6399 3.78232L18.1116 4.31059L15.7658 1.96483L16.2943 1.43657C16.7805 0.950332 17.5689 0.950332 18.0552 1.43657L18.6399 2.02106C19.1253 2.50788 19.1253 3.2957 18.6399 3.78232Z" fill="#9C9C9C"/>
<path d="M7.08268 2.49951H2.19554C1.21274 2.49951 0.416016 3.29623 0.416016 4.27904V17.8033C0.416016 18.7861 1.21274 19.5828 2.19554 19.5828H16.5532C17.536 19.5828 18.3327 18.7861 18.3327 17.8033V12.9162" stroke="#9C9C9C" stroke-width="1.15669" stroke-linecap="round" stroke-linejoin="round"/>
</g>
<defs>
<clipPath id="clip0">
<rect width="20" height="20" fill="white"/>
</clipPath>
</defs>
</svg>
