<svg width="20" height="20" viewBox="0 0 20 20" fill="none" xmlns="http://www.w3.org/2000/svg">
<g clip-path="url(#clip0)">
<path d="M12.7594 7.24512C12.5007 7.24512 12.291 7.45479 12.291 7.7135V16.566C12.291 16.8245 12.5007 17.0343 12.7594 17.0343C13.0181 17.0343 13.2278 16.8245 13.2278 16.566V7.7135C13.2278 7.45479 13.0181 7.24512 12.7594 7.24512Z" fill="#FF847E"/>
<path d="M7.23206 7.24512C6.97335 7.24512 6.76367 7.45479 6.76367 7.7135V16.566C6.76367 16.8245 6.97335 17.0343 7.23206 17.0343C7.49076 17.0343 7.70044 16.8245 7.70044 16.566V7.7135C7.70044 7.45479 7.49076 7.24512 7.23206 7.24512Z" fill="#FF847E"/>
<path d="M3.20333 5.95468V17.4946C3.20333 18.1767 3.45344 18.8173 3.89035 19.2769C4.32525 19.7378 4.93049 19.9994 5.56391 20.0005H14.4259C15.0595 19.9994 15.6647 19.7378 16.0994 19.2769C16.5363 18.8173 16.7864 18.1767 16.7864 17.4946V5.95468C17.6549 5.72415 18.2177 4.88509 18.1016 3.99388C17.9852 3.10285 17.2261 2.43632 16.3274 2.43614H13.9293V1.85066C13.932 1.35831 13.7374 0.885537 13.3888 0.537726C13.0403 0.190098 12.5668 -0.00347534 12.0744 0.000549823H7.91533C7.42298 -0.00347534 6.94948 0.190098 6.60093 0.537726C6.25239 0.885537 6.05772 1.35831 6.06046 1.85066V2.43614H3.66238C2.76367 2.43632 2.00456 3.10285 1.8882 3.99388C1.77202 4.88509 2.33481 5.72415 3.20333 5.95468ZM14.4259 19.0637H5.56391C4.76308 19.0637 4.1401 18.3758 4.1401 17.4946V5.99585H15.8497V17.4946C15.8497 18.3758 15.2267 19.0637 14.4259 19.0637ZM6.99723 1.85066C6.99412 1.60677 7.08999 1.37203 7.26307 1.19987C7.43597 1.0277 7.67126 0.933107 7.91533 0.937315H12.0744C12.3185 0.933107 12.5538 1.0277 12.7267 1.19987C12.8998 1.37185 12.9956 1.60677 12.9925 1.85066V2.43614H6.99723V1.85066ZM3.66238 3.3729H16.3274C16.793 3.3729 17.1705 3.75036 17.1705 4.21599C17.1705 4.68163 16.793 5.05908 16.3274 5.05908H3.66238C3.19674 5.05908 2.81929 4.68163 2.81929 4.21599C2.81929 3.75036 3.19674 3.3729 3.66238 3.3729Z" fill="#FF847E"/>
<path d="M9.99572 7.24512C9.73702 7.24512 9.52734 7.45479 9.52734 7.7135V16.566C9.52734 16.8245 9.73702 17.0343 9.99572 17.0343C10.2544 17.0343 10.4641 16.8245 10.4641 16.566V7.7135C10.4641 7.45479 10.2544 7.24512 9.99572 7.24512Z" fill="#FF847E"/>
</g>
<defs>
<clipPath id="clip0">
<rect width="20" height="20" fill="white"/>
</clipPath>
</defs>
</svg>
