<svg width="24" height="24" viewBox="0 0 24 24" fill="none" xmlns="http://www.w3.org/2000/svg">
<path d="M10.5833 18.8332L10.053 18.3028L9.52268 18.8332L10.053 19.3635L10.5833 18.8332ZM6.21016 16C6.41727 16.3587 6.87596 16.4816 7.23468 16.2745C7.5934 16.0674 7.71631 15.6087 7.5092 15.25L6.21016 16ZM11.5658 18.0191C11.1563 17.9569 10.7738 18.2384 10.7117 18.648C10.6495 19.0575 10.931 19.4399 11.3405 19.5021L11.5658 18.0191ZM13.7197 14.6362L10.053 18.3028L11.1137 19.3635L14.7803 15.6968L13.7197 14.6362ZM10.053 19.3635L13.7197 23.0302L14.7803 21.9695L11.1137 18.3028L10.053 19.3635ZM7.5092 15.25C6.86719 14.138 6.62187 12.841 6.81342 11.5713L5.33021 11.3475C5.08795 12.9533 5.39821 14.5937 6.21016 16L7.5092 15.25ZM6.81342 11.5713C7.00497 10.3017 7.62204 9.13471 8.56354 8.26162L7.54359 7.16176C6.35288 8.26595 5.57246 9.74181 5.33021 11.3475L6.81342 11.5713ZM8.56354 8.26162C9.50504 7.38854 10.7151 6.86108 11.9956 6.76567L11.8841 5.26982C10.2647 5.39049 8.73431 6.05756 7.54359 7.16176L8.56354 8.26162ZM11.9956 6.76567C13.2761 6.67026 14.551 7.01255 15.6115 7.73646L16.4572 6.49758C15.1159 5.58204 13.5036 5.14915 11.8841 5.26982L11.9956 6.76567ZM15.6115 7.73646C16.672 8.46037 17.4552 9.52298 17.8328 10.7502L19.2664 10.3091C18.7889 8.75701 17.7984 7.41311 16.4572 6.49758L15.6115 7.73646ZM17.8328 10.7502C18.2104 11.9775 18.16 13.2966 17.6899 14.4914L19.0857 15.0406C19.6803 13.5295 19.744 11.8612 19.2664 10.3091L17.8328 10.7502ZM17.6899 14.4914C17.2198 15.6863 16.3578 16.686 15.2452 17.327L15.9939 18.6267C17.401 17.8162 18.4912 16.5518 19.0857 15.0406L17.6899 14.4914ZM15.2452 17.327C14.1325 17.9679 12.8352 18.2119 11.5658 18.0191L11.3405 19.5021C12.946 19.7459 14.5867 19.4373 15.9939 18.6267L15.2452 17.327Z" fill="#70BBF6"/>
</svg>
