<svg width="64" height="64" viewBox="0 0 64 64" fill="none" xmlns="http://www.w3.org/2000/svg">
<rect opacity="0.05" width="64" height="64" rx="5" fill="#868FFF"/>
<circle cx="32" cy="32" r="20" stroke="#868FFF"/>
<path d="M38.1731 37.5554H30.2719C29.9993 37.5554 29.7781 37.3066 29.7781 36.9999C29.7781 36.6932 29.9993 36.4443 30.2719 36.4443H38.1731C38.4457 36.4443 38.667 36.6932 38.667 36.9999C38.667 37.3066 38.4457 37.5554 38.1731 37.5554Z" fill="#868FFF"/>
<path d="M37.9258 32.5554H26.074C25.6651 32.5554 25.3333 32.3066 25.3333 31.9999C25.3333 31.6932 25.6651 31.4443 26.074 31.4443H37.9258C38.3347 31.4443 38.6666 31.6932 38.6666 31.9999C38.6666 32.3066 38.3347 32.5554 37.9258 32.5554Z" fill="#868FFF"/>
<path d="M37.9261 27.5554H26.0742C25.6653 27.5554 25.3335 27.3066 25.3335 26.9999C25.3335 26.6932 25.6653 26.4443 26.0742 26.4443H37.9261C38.335 26.4443 38.6668 26.6932 38.6668 26.9999C38.6668 27.3066 38.335 27.5554 37.9261 27.5554Z" fill="#868FFF"/>
<path d="M22 33.1111V30.8889C22 26.6986 22 24.6035 23.3017 23.3017C24.6035 22 26.6986 22 30.8889 22H33.1111C37.3014 22 39.3965 22 40.6983 23.3017C42 24.6035 42 26.6986 42 30.8889V33.1111C42 37.3014 42 39.3965 40.6983 40.6983C39.3965 42 37.3014 42 33.1111 42H32" stroke="#868FFF" stroke-linecap="round"/>
<path d="M28.0562 41.9999C28.0562 42.276 27.8323 42.4999 27.5562 42.4999C27.28 42.4999 27.0562 42.276 27.0562 41.9999H28.0562ZM27.5562 36.4443V35.9443H28.0562V36.4443H27.5562ZM22.0006 36.9443C21.7245 36.9443 21.5006 36.7205 21.5006 36.4443C21.5006 36.1682 21.7245 35.9443 22.0006 35.9443V36.9443ZM22.3351 41.816C22.1298 42.0007 21.8137 41.9841 21.629 41.7788C21.4442 41.5736 21.4609 41.2574 21.6661 41.0727L22.3351 41.816ZM27.0562 41.9999V36.4443H28.0562V41.9999H27.0562ZM27.5562 36.9443H22.0006V35.9443H27.5562V36.9443ZM27.8906 36.816L22.3351 41.816L21.6661 41.0727L27.2217 36.0727L27.8906 36.816Z" fill="#868FFF"/>
</svg>
