<svg width="64" height="64" viewBox="0 0 64 64" fill="none" xmlns="http://www.w3.org/2000/svg">
<rect opacity="0.05" width="64" height="64" rx="5" fill="#FF847E"/>
<circle cx="32" cy="32" r="21" stroke="#FF847E"/>
<path d="M30.85 21.5H33.15C35.2122 21.5 36.811 21.5 38.0545 21.6672C39.3202 21.8373 40.2925 22.1889 41.0518 22.9482C41.8111 23.7075 42.1627 24.6798 42.3328 25.9455C42.5 27.189 42.5 28.7878 42.5 30.85V33.15C42.5 35.2122 42.5 36.811 42.3328 38.0545C42.1627 39.3202 41.8111 40.2925 41.0518 41.0518C40.2925 41.8111 39.3202 42.1627 38.0545 42.3328C36.811 42.5 35.2122 42.5 33.15 42.5H32C31.7239 42.5 31.5 42.2761 31.5 42C31.5 41.7239 31.7239 41.5 32 41.5H33.1111C35.2204 41.5 36.752 41.4989 37.9213 41.3417C39.0761 41.1865 39.8022 40.8872 40.3447 40.3447C40.8872 39.8022 41.1865 39.0761 41.3417 37.9213C41.4989 36.752 41.5 35.2204 41.5 33.1111V30.8889C41.5 28.7796 41.4989 27.248 41.3417 26.0787C41.1865 24.9239 40.8872 24.1978 40.3447 23.6553C39.8022 23.1128 39.0761 22.8135 37.9213 22.6583C36.752 22.5011 35.2204 22.5 33.1111 22.5H30.8889C28.7796 22.5 27.248 22.5011 26.0787 22.6583C24.9239 22.8135 24.1978 23.1128 23.6553 23.6553C23.1128 24.1978 22.8135 24.9239 22.6583 26.0787C22.5011 27.248 22.5 28.7796 22.5 30.8889V33.1111C22.5 33.3873 22.2761 33.6111 22 33.6111C21.7239 33.6111 21.5 33.3873 21.5 33.1111V30.85C21.5 28.7878 21.5 27.189 21.6672 25.9455C21.8373 24.6798 22.1889 23.7075 22.9482 22.9482C23.7075 22.1889 24.6798 21.8373 25.9455 21.6672C27.189 21.5 28.7878 21.5 30.85 21.5Z" fill="#FF847E"/>
<path d="M28.0566 35.9438H22.0011C21.7249 35.9438 21.5011 36.1677 21.5011 36.4438C21.5011 36.72 21.7249 36.9438 22.0011 36.9438H26.2537L21.6666 41.0722C21.4613 41.2569 21.4447 41.5731 21.6294 41.7783C21.8142 41.9836 22.1303 42.0002 22.3356 41.8155L27.0566 37.5665V41.9994C27.0566 42.2755 27.2805 42.4994 27.5566 42.4994C27.8328 42.4994 28.0566 42.2755 28.0566 41.9994V35.9438Z" fill="#FF847E"/>
<path d="M30.2721 37.5545H38.1734C38.446 37.5545 38.6672 37.3056 38.6672 36.9989C38.6672 36.6922 38.446 36.4434 38.1734 36.4434H30.2721C29.9996 36.4434 29.7783 36.6922 29.7783 36.9989C29.7783 37.3056 29.9996 37.5545 30.2721 37.5545Z" fill="#FF847E"/>
<path d="M37.9256 32.5545H26.0737C25.6649 32.5545 25.333 32.3056 25.333 31.9989C25.333 31.6922 25.6649 31.4434 26.0737 31.4434H37.9256C38.3345 31.4434 38.6663 31.6922 38.6663 31.9989C38.6663 32.3056 38.3345 32.5545 37.9256 32.5545Z" fill="#FF847E"/>
<path d="M26.0737 27.555H37.9256C38.3345 27.555 38.6663 27.3061 38.6663 26.9994C38.6663 26.6927 38.3345 26.4438 37.9256 26.4438H26.0737C25.6649 26.4438 25.333 26.6927 25.333 26.9994C25.333 27.3061 25.6649 27.555 26.0737 27.555Z" fill="#FF847E"/>
</svg>
