<svg width="64" height="64" viewBox="0 0 64 64" fill="none" xmlns="http://www.w3.org/2000/svg">
<rect opacity="0.05" width="64" height="64" rx="5" fill="#59D7AB"/>
<circle cx="32" cy="32" r="21" stroke="#59D7AB"/>
<path fill-rule="evenodd" clip-rule="evenodd" d="M28.2829 23.0086C28.0324 22.9851 27.7304 22.9789 27.3346 22.9772C25.9422 22.9802 24.8846 22.9979 24.0468 23.1029C23.0632 23.2262 22.4612 23.4618 22.0145 23.8783C21.5678 24.2948 21.3151 24.8562 21.1828 25.7733C21.0486 26.7045 21.0474 27.9268 21.0474 29.6221V33.189C21.0474 33.4587 20.813 33.6773 20.5237 33.6773C20.2345 33.6773 20 33.4587 20 33.189V29.5845C20 27.9349 20 26.647 20.1447 25.6432C20.2926 24.6177 20.6001 23.816 21.2738 23.1877C21.9476 22.5595 22.8075 22.2728 23.9073 22.1349C24.7193 22.0331 25.7048 22.0081 26.8994 22.002V22H26.9259C27.0678 22 27.2034 22 27.333 22.0005C27.5897 22 27.8554 22 28.1305 22H35.8657C37.6349 22 39.0162 22 40.0927 22.1349C41.1925 22.2728 42.0524 22.5595 42.7262 23.1877C43.3999 23.816 43.7074 24.6177 43.8553 25.6432C44 26.647 44 27.9349 44 29.5845L44 36.7558H43.9781C43.9589 37.3568 43.9229 37.8878 43.8553 38.3568C43.7074 39.3823 43.3999 40.184 42.7262 40.8123C42.0524 41.4405 41.1925 41.7272 40.0927 41.8651C39.0162 42 37.6349 42 35.8658 42H30.0873C29.798 42 29.5636 41.7814 29.5636 41.5117C29.5636 41.242 29.798 41.0234 30.0873 41.0234H35.8254C37.6436 41.0234 38.9545 41.0223 39.9532 40.8971C40.9368 40.7738 41.5388 40.5382 41.9855 40.1217C42.4322 39.7052 42.6849 39.1438 42.8172 38.2267C42.9431 37.353 42.9519 36.2232 42.9525 34.6869V33.5287C42.9525 32.5941 42.9514 31.9422 42.8805 31.4504C42.8116 30.9727 42.6856 30.7197 42.4923 30.5395C42.2991 30.3593 42.0277 30.2418 41.5153 30.1776C40.9879 30.1114 40.2888 30.1104 39.2865 30.1104H35.8371C35.2304 30.1104 34.7353 30.1104 34.33 30.0713C33.9066 30.0305 33.5371 29.944 33.1931 29.7458C32.8491 29.5475 32.6009 29.2781 32.3724 28.9432C32.1537 28.6227 31.9322 28.2098 31.6609 27.7039L30.1218 24.8336C29.844 24.3157 29.6524 23.9595 29.4725 23.6941C29.2987 23.4378 29.1585 23.3014 29.0032 23.2085C28.9885 23.1997 28.9736 23.1911 28.9585 23.1827C28.8 23.0948 28.6064 23.0388 28.2829 23.0086ZM42.9526 29.6221V29.6294C42.585 29.3899 42.1509 29.2718 41.6549 29.2096C41.0495 29.1337 40.2798 29.1337 39.3248 29.1338H35.8645C35.2238 29.1338 34.7829 29.1332 34.4377 29.0999C34.1047 29.0678 33.9061 29.0085 33.7438 28.915C33.5815 28.8215 33.4358 28.6824 33.2561 28.4189C33.0698 28.146 32.872 27.7785 32.5855 27.2442L31.0468 24.3747C30.7838 23.8843 30.5691 23.4839 30.3579 23.1723C30.3118 23.1044 30.265 23.0391 30.2167 22.9766H35.8254C37.6436 22.9766 38.9545 22.9777 39.9532 23.1029C40.9368 23.2262 41.5388 23.4618 41.9855 23.8783C42.4322 24.2948 42.6849 24.8562 42.8172 25.7733C42.9514 26.7045 42.9526 27.9268 42.9526 29.6221Z" fill="#59D7AB"/>
<path d="M27.0017 35.4184V41.3325C27.0017 41.6022 26.7672 41.8208 26.478 41.8208C26.1887 41.8208 25.9542 41.6022 25.9542 41.3325V37.0032L21.0092 41.1529C20.7942 41.3333 20.4631 41.3171 20.2696 41.1166C20.0761 40.9161 20.0935 40.6074 20.3085 40.427L25.1132 36.395H20.6589C20.3696 36.395 20.1351 36.1764 20.1351 35.9067C20.1351 35.637 20.3696 35.4184 20.6589 35.4184H27.0017Z" fill="#59D7AB"/>
</svg>
