<svg width="22" height="22" viewBox="0 0 22 22" fill="none" xmlns="http://www.w3.org/2000/svg">
<path d="M17.1744 16.5545H9.27312C9.00053 16.5545 8.7793 16.3056 8.7793 15.9989C8.7793 15.6922 9.00053 15.4434 9.27312 15.4434H17.1744C17.447 15.4434 17.6682 15.6922 17.6682 15.9989C17.6682 16.3056 17.447 16.5545 17.1744 16.5545Z" fill="#9C9C9C"/>
<path d="M16.9266 11.5545H5.07473C4.66584 11.5545 4.33398 11.3056 4.33398 10.9989C4.33398 10.6922 4.66584 10.4434 5.07473 10.4434H16.9266C17.3355 10.4434 17.6673 10.6922 17.6673 10.9989C17.6673 11.3056 17.3355 11.5545 16.9266 11.5545Z" fill="#9C9C9C"/>
<path d="M16.9266 6.55496H5.07473C4.66584 6.55496 4.33398 6.30607 4.33398 5.9994C4.33398 5.69274 4.66584 5.44385 5.07473 5.44385H16.9266C17.3355 5.44385 17.6673 5.69274 17.6673 5.9994C17.6673 6.30607 17.3355 6.55496 16.9266 6.55496Z" fill="#9C9C9C"/>
<path d="M1 12.1111V9.88889C1 5.69863 1 3.6035 2.30175 2.30175C3.6035 1 5.69863 1 9.88889 1H12.1111C16.3014 1 18.3965 1 19.6983 2.30175C21 3.6035 21 5.69863 21 9.88889V12.1111C21 16.3014 21 18.3965 19.6983 19.6983C18.3965 21 16.3014 21 12.1111 21H11" stroke="#9C9C9C" stroke-width="1.11111"/>
<path d="M7.1122 20.9994C7.1122 21.3062 6.86347 21.555 6.55664 21.555C6.24982 21.555 6.00109 21.3062 6.00109 20.9994H7.1122ZM6.55664 15.4438V14.8883H7.1122V15.4438H6.55664ZM1.00109 15.9994C0.694261 15.9994 0.44553 15.7507 0.44553 15.4438C0.44553 15.137 0.694261 14.8883 1.00109 14.8883V15.9994ZM1.37273 20.8568C1.14467 21.062 0.793399 21.0436 0.588144 20.8155C0.382889 20.5874 0.401377 20.2362 0.629438 20.0309L1.37273 20.8568ZM6.00109 20.9994V15.4438H7.1122V20.9994H6.00109ZM6.55664 15.9994H1.00109V14.8883H6.55664V15.9994ZM6.92829 15.8568L1.37273 20.8568L0.629438 20.0309L6.18499 15.0309L6.92829 15.8568Z" fill="#9C9C9C"/>
</svg>
