<svg width="64" height="64" viewBox="0 0 64 64" fill="none" xmlns="http://www.w3.org/2000/svg">
<rect opacity="0.05" width="64" height="64" rx="5" fill="#FF847E"/>
<circle cx="32.0004" cy="32.0004" r="20.8696" stroke="#FF847E"/>
<path d="M22 33.1111V30.8889C22 26.6986 22 24.6035 23.3017 23.3017C24.6035 22 26.6986 22 30.8889 22H33.1111C37.3014 22 39.3965 22 40.6983 23.3017C42 24.6035 42 26.6986 42 30.8889V33.1111C42 37.3014 42 39.3965 40.6983 40.6983C39.3965 42 37.3014 42 33.1111 42H32" stroke="#FF847E" stroke-linecap="round"/>
<path d="M28.0566 41.9994C28.0566 42.2755 27.8328 42.4994 27.5566 42.4994C27.2805 42.4994 27.0566 42.2755 27.0566 41.9994H28.0566ZM27.5566 36.4438V35.9438H28.0566V36.4438H27.5566ZM22.0011 36.9438C21.7249 36.9438 21.5011 36.72 21.5011 36.4438C21.5011 36.1677 21.7249 35.9438 22.0011 35.9438V36.9438ZM22.3356 41.8155C22.1303 42.0002 21.8142 41.9836 21.6294 41.7783C21.4447 41.5731 21.4613 41.2569 21.6666 41.0722L22.3356 41.8155ZM27.0566 41.9994V36.4438H28.0566V41.9994H27.0566ZM27.5566 36.9438H22.0011V35.9438H27.5566V36.9438ZM27.8911 36.8155L22.3356 41.8155L21.6666 41.0722L27.2222 36.0722L27.8911 36.8155Z" fill="#FF847E"/>
<path d="M38.1734 37.5545H30.2721C29.9996 37.5545 29.7783 37.3056 29.7783 36.9989C29.7783 36.6922 29.9996 36.4434 30.2721 36.4434H38.1734C38.446 36.4434 38.6672 36.6922 38.6672 36.9989C38.6672 37.3056 38.446 37.5545 38.1734 37.5545Z" fill="#FF847E"/>
<path d="M37.9256 32.5545H26.0737C25.6649 32.5545 25.333 32.3056 25.333 31.9989C25.333 31.6922 25.6649 31.4434 26.0737 31.4434H37.9256C38.3345 31.4434 38.6663 31.6922 38.6663 31.9989C38.6663 32.3056 38.3345 32.5545 37.9256 32.5545Z" fill="#FF847E"/>
<path d="M37.9256 27.555H26.0737C25.6649 27.555 25.333 27.3061 25.333 26.9994C25.333 26.6927 25.6649 26.4438 26.0737 26.4438H37.9256C38.3345 26.4438 38.6663 26.6927 38.6663 26.9994C38.6663 27.3061 38.3345 27.555 37.9256 27.555Z" fill="#FF847E"/>
</svg>
