<svg width="64" height="64" viewBox="0 0 64 64" fill="none" xmlns="http://www.w3.org/2000/svg">
<rect opacity="0.05" width="64" height="64" rx="5" fill="#59D7AB"/>
<circle cx="32" cy="32" r="20" stroke="#59D7AB"/>
<path d="M30.1667 41H32H35.6667C39.1236 41 40.8521 41 41.9261 39.9566C43 38.9131 43 37.2338 43 33.875V29.125C43 25.7662 43 24.0869 41.9261 23.0434C40.8521 22 39.1236 22 35.6667 22H28.3333C24.8764 22 23.1479 22 22.0739 23.0434C21 24.0869 21 25.7662 21 29.125V31.5V32.6875" stroke="#59D7AB" stroke-linecap="round"/>
<path d="M27.1111 22V22C28.3019 22 28.8974 22 29.377 22.2926C29.8567 22.5852 30.1285 23.1134 30.6721 24.1697L32.1056 26.9553C32.6492 28.0116 32.921 28.5398 33.4007 28.8324C33.8804 29.125 34.4744 29.125 35.6623 29.125H39C40.8856 29.125 41.8284 29.125 42.4142 29.7108C43 30.2966 43 31.2394 43 33.125V36.25" stroke="#59D7AB"/>
<path d="M27.2075 40.8215C27.2075 41.0976 26.9837 41.3215 26.7075 41.3215C26.4314 41.3215 26.2075 41.0976 26.2075 40.8215H27.2075ZM26.7075 35.4023V34.9023H27.2075V35.4023H26.7075ZM21.1299 35.9023C20.8538 35.9023 20.6299 35.6785 20.6299 35.4023C20.6299 35.1262 20.8538 34.9023 21.1299 34.9023V35.9023ZM21.459 40.656C21.2512 40.8377 20.9353 40.8166 20.7535 40.6087C20.5717 40.4008 20.5929 40.085 20.8008 39.9032L21.459 40.656ZM26.2075 40.8215V35.4023H27.2075V40.8215H26.2075ZM26.7075 35.9023H21.1299V34.9023H26.7075V35.9023ZM27.0367 35.7787L21.459 40.656L20.8008 39.9032L26.3784 35.0259L27.0367 35.7787Z" fill="#59D7AB"/>
</svg>
