<svg width="64" height="64" viewBox="0 0 64 64" fill="none" xmlns="http://www.w3.org/2000/svg">
<rect opacity="0.1" width="64" height="64" rx="5" fill="#70BBF6"/>
<circle cx="32.0004" cy="32.0004" r="20.8696" stroke="#70BBF6"/>
<path d="M28.4564 23C26.8347 23 25.5685 23 24.5817 23.1349C23.5735 23.2728 22.7853 23.5595 22.1677 24.1877C21.5501 24.816 21.2682 25.6177 21.1327 26.6432C21 27.647 21 28.9349 21 30.5845V34.189C21 34.4587 21.2149 34.6773 21.4801 34.6773C21.7452 34.6773 21.9602 34.4587 21.9602 34.189V30.6221C21.9602 28.9268 21.9612 27.7045 22.0843 26.7733C22.2055 25.8562 22.4371 25.2948 22.8466 24.8783C23.2561 24.4618 23.8079 24.2262 24.7096 24.1029C25.6251 23.9777 26.8267 23.9766 28.4934 23.9766H35.5066C37.1733 23.9766 38.3749 23.9777 39.2904 24.1029C40.1921 24.2262 40.7439 24.4618 41.1534 24.8783C41.5629 25.2948 41.7945 25.8562 41.9157 26.7733C42.0388 27.7045 42.0398 28.9268 42.0398 30.6221V35.3779C42.0398 37.0732 42.0388 38.2955 41.9157 39.2267C41.7945 40.1438 41.5629 40.7052 41.1534 41.1217C40.7439 41.5382 40.1921 41.7738 39.2904 41.8971C38.3749 42.0223 37.1733 42.0234 35.5066 42.0234H30.2467C29.9815 42.0234 29.7666 42.242 29.7666 42.5117C29.7666 42.7814 29.9815 43 30.2467 43H35.5436C37.1653 43 38.4315 43 39.4184 42.8651C40.4265 42.7272 41.2147 42.4405 41.8323 41.8123C42.4499 41.184 42.7318 40.3823 42.8673 39.3568C43 38.353 43 37.0651 43 35.4155V30.5845C43 28.9349 43 27.647 42.8673 26.6432C42.7318 25.6177 42.4499 24.816 41.8323 24.1877C41.2147 23.5595 40.4265 23.2728 39.4184 23.1349C38.4315 23 37.1653 23 35.5436 23H28.4564Z" fill="#70BBF6"/>
<path d="M27.4191 36.4184V42.3325C27.4191 42.6022 27.2042 42.8208 26.9391 42.8208C26.6739 42.8208 26.459 42.6022 26.459 42.3325V38.0032L21.926 42.1529C21.729 42.3333 21.4254 42.3171 21.2481 42.1166C21.0707 41.9161 21.0867 41.6074 21.2837 41.427L25.688 37.395H21.6049C21.3397 37.395 21.1248 37.1764 21.1248 36.9067C21.1248 36.637 21.3397 36.4184 21.6049 36.4184H27.4191Z" fill="#70BBF6"/>
<path d="M27.5888 30.7466C28.6876 29.9877 30.1834 30.2807 30.9266 31.4004C31.0544 31.5929 31.1669 31.8601 31.3346 32.2585L31.8137 33.3956C31.9348 33.683 32.0157 33.8742 32.0866 34.0137C32.1573 34.1529 32.1954 34.1931 32.2102 34.2059C32.3381 34.316 32.5133 34.3503 32.6723 34.2964C32.6907 34.2901 32.7407 34.2672 32.8572 34.1647C32.974 34.0619 33.1189 33.9149 33.3363 33.6939L33.3477 33.6822C33.6384 33.3865 33.873 33.1479 34.0765 32.9661C34.2857 32.7793 34.4865 32.6296 34.7168 32.5271C35.33 32.2544 36.0273 32.2544 36.6405 32.5271C36.8708 32.6296 37.0716 32.7793 37.2808 32.9661C37.4843 33.1479 37.7189 33.3865 38.0096 33.6822L39.5003 35.1985C39.6878 35.3892 39.6878 35.6984 39.5003 35.8891C39.3128 36.0798 39.0088 36.0798 38.8213 35.8891L37.3421 34.3845C37.0373 34.0743 36.8246 33.8584 36.6473 33.7C36.473 33.5443 36.3575 33.4672 36.2558 33.422C35.8878 33.2583 35.4695 33.2583 35.1016 33.422C34.9998 33.4672 34.8844 33.5443 34.71 33.7C34.5327 33.8584 34.3201 34.0743 34.0152 34.3845L34.0028 34.3971C33.8012 34.6022 33.6317 34.7746 33.4855 34.9032C33.3361 35.0348 33.1725 35.1562 32.976 35.2229C32.4991 35.3847 31.9737 35.2818 31.5899 34.9514C31.4318 34.8152 31.3243 34.6407 31.2336 34.4621C31.1448 34.2874 31.0504 34.0634 30.9381 33.7968L30.4773 32.703C30.2752 32.2233 30.2004 32.0517 30.1308 31.9469C29.6849 31.2751 28.7874 31.0992 28.1281 31.5546C28.0253 31.6256 27.8932 31.7567 27.5304 32.1257L25.286 34.4086C25.0985 34.5993 24.7946 34.5993 24.6071 34.4086C24.4196 34.2179 24.4196 33.9088 24.6071 33.718L26.8966 31.3892C27.1979 31.0826 27.3999 30.8771 27.5888 30.7466Z" fill="#70BBF6"/>
<path d="M37.1882 30.0514C37.9093 30.0514 38.494 29.4567 38.494 28.7231C38.494 27.9896 37.9093 27.3949 37.1882 27.3949C36.467 27.3949 35.8824 27.9896 35.8824 28.7231C35.8824 29.4567 36.467 30.0514 37.1882 30.0514Z" fill="#70BBF6"/>
</svg>
