<svg width="48" height="48" viewBox="0 0 48 48" fill="none" xmlns="http://www.w3.org/2000/svg">
<circle cx="23.9993" cy="24" r="23" stroke="#FF847E" stroke-width="1.2"/>
<path d="M36.7856 22.9177L37.0539 22.381L36.7856 22.9177ZM36.7856 24.6214L37.0539 25.158L36.7856 24.6214ZM17.4115 12.5599L37.0539 22.381L36.5173 23.4544L16.8749 13.6332L17.4115 12.5599ZM37.0539 25.158L17.4115 34.9792L16.8749 33.9059L36.5173 24.0847L37.0539 25.158ZM16.0893 14.1187V33.4203H14.8893V14.1187H16.0893ZM17.4115 34.9792C16.2527 35.5586 14.8893 34.716 14.8893 33.4203H16.0893C16.0893 33.8239 16.5139 34.0864 16.8749 33.9059L17.4115 34.9792ZM37.0539 22.381C38.1981 22.9531 38.1981 24.5859 37.0539 25.158L36.5173 24.0847C36.777 23.9548 36.777 23.5842 36.5173 23.4544L37.0539 22.381ZM16.8749 13.6332C16.5139 13.4527 16.0893 13.7152 16.0893 14.1187H14.8893C14.8893 12.8231 16.2527 11.9804 17.4115 12.5599L16.8749 13.6332Z" fill="#FF847E"/>
</svg>
