<svg width="24" height="24" viewBox="0 0 24 24" fill="none" xmlns="http://www.w3.org/2000/svg">
<rect width="24" height="24" rx="5" fill="#6193FF"/>
<path d="M19.6504 7.2L16.2904 18H14.7079L12.1729 10.245C12.1429 10.16 12.1129 10.0675 12.0829 9.9675C12.0579 9.8675 12.0329 9.76 12.0079 9.645C11.9829 9.76 11.9554 9.8675 11.9254 9.9675C11.9004 10.0675 11.8729 10.16 11.8429 10.245L9.28541 18H7.70291L4.34291 7.2H5.81291C5.96291 7.2 6.08791 7.2375 6.18791 7.3125C6.29291 7.3825 6.36291 7.48 6.39791 7.605L8.42291 14.5275C8.46291 14.6775 8.50041 14.84 8.53541 15.015C8.57041 15.19 8.60541 15.3725 8.64041 15.5625C8.67541 15.3725 8.71291 15.19 8.75291 15.015C8.79791 14.835 8.84541 14.6725 8.89541 14.5275L11.2129 7.605C11.2479 7.505 11.3179 7.4125 11.4229 7.3275C11.5279 7.2425 11.6529 7.2 11.7979 7.2H12.3079C12.4629 7.2 12.5879 7.24 12.6829 7.32C12.7779 7.395 12.8504 7.49 12.9004 7.605L15.2104 14.5275C15.2604 14.6725 15.3054 14.83 15.3454 15C15.3904 15.165 15.4304 15.34 15.4654 15.525C15.5004 15.34 15.5329 15.165 15.5629 15C15.5979 14.83 15.6354 14.6725 15.6754 14.5275L17.6929 7.605C17.7229 7.495 17.7904 7.4 17.8954 7.32C18.0054 7.24 18.1329 7.2 18.2779 7.2H19.6504Z" fill="white"/>
</svg>
