<svg width="20" height="20" viewBox="0 0 20 20" fill="none" xmlns="http://www.w3.org/2000/svg">
<path d="M7 17.5C6.72386 17.5 6.5 17.7239 6.5 18C6.5 18.2761 6.72386 18.5 7 18.5V17.5ZM0.5 12C0.5 12.2761 0.723858 12.5 1 12.5C1.27614 12.5 1.5 12.2761 1.5 12H0.5ZM18.1213 17.1213L18.4749 17.4749L18.1213 17.1213ZM18.9647 7.33333L18.4647 7.33002L18.4646 7.34481L18.4654 7.35957L18.9647 7.33333ZM16.8728 2.26193L17.0697 1.80234V1.80234L16.8728 2.26193ZM18.7365 4.23916L18.2689 4.41609V4.41609L18.7365 4.23916ZM5.5 6.83333C5.22386 6.83333 5 7.05719 5 7.33333C5 7.60948 5.22386 7.83333 5.5 7.83333V6.83333ZM14.5 7.83333C14.7761 7.83333 15 7.60948 15 7.33333C15 7.05719 14.7761 6.83333 14.5 6.83333V7.83333ZM5.5 9.5C5.22386 9.5 5 9.72386 5 10C5 10.2761 5.22386 10.5 5.5 10.5V9.5ZM14.5 10.5C14.7761 10.5 15 10.2761 15 10C15 9.72386 14.7761 9.5 14.5 9.5V10.5ZM9.4375 12.1667C9.16136 12.1667 8.9375 12.3905 8.9375 12.6667C8.9375 12.9428 9.16136 13.1667 9.4375 13.1667V12.1667ZM14.5 13.1667C14.7761 13.1667 15 12.9428 15 12.6667C15 12.3905 14.7761 12.1667 14.5 12.1667V13.1667ZM0.667467 17.3896C0.461248 17.5733 0.442955 17.8893 0.626608 18.0956C0.810261 18.3018 1.12631 18.3201 1.33253 18.1364L0.667467 17.3896ZM4.59319 14.563L5.09288 14.5806L5.11113 14.063H4.59319V14.563ZM3.97232 17.9824C3.96259 18.2584 4.17842 18.49 4.45439 18.4997C4.73036 18.5094 4.96196 18.2936 4.97169 18.0176L3.97232 17.9824ZM1 14.063C0.723858 14.063 0.5 14.2869 0.5 14.563C0.5 14.8392 0.723858 15.063 1 15.063V14.063ZM18.5 9.77778V12H19.5V9.77778H18.5ZM13 17.5H7V18.5H13V17.5ZM1.5 12V8H0.5V12H1.5ZM18.5 12C18.5 13.4283 18.4989 14.4493 18.3946 15.2252C18.2922 15.9867 18.0987 16.4368 17.7678 16.7678L18.4749 17.4749C19.0226 16.9271 19.2684 16.2308 19.3857 15.3584C19.5011 14.5004 19.5 13.4001 19.5 12H18.5ZM13 18.5C14.4001 18.5 15.5004 18.5011 16.3584 18.3857C17.2308 18.2684 17.9272 18.0226 18.4749 17.4749L17.7678 16.7678C17.4368 17.0987 16.9867 17.2922 16.2252 17.3946C15.4493 17.4989 14.4283 17.5 13 17.5V18.5ZM7 1.5C5.59992 1.5 4.49956 1.49894 3.64156 1.61429C2.76917 1.73158 2.07285 1.9774 1.52513 2.52513L2.23223 3.23223C2.56319 2.90128 3.01331 2.70776 3.77481 2.60538C4.55069 2.50106 5.57165 2.5 7 2.5V1.5ZM1.5 8C1.5 6.57165 1.50106 5.55069 1.60538 4.77481C1.70776 4.01331 1.90128 3.56319 2.23223 3.23223L1.52513 2.52513C0.977402 3.07285 0.731583 3.76917 0.614294 4.64156C0.498938 5.49956 0.5 6.59992 0.5 8H1.5ZM7 2.5H13.9374V1.5H7V2.5ZM19.5 9.77778C19.5 9.63386 19.5 9.49334 19.4999 9.35634L18.4999 9.35719C18.5 9.49369 18.5 9.63378 18.5 9.77778H19.5ZM19.4999 9.35634C19.4992 8.57378 19.4948 7.89428 19.464 7.30709L18.4654 7.35957C18.4947 7.91735 18.4992 8.57227 18.4999 9.35719L19.4999 9.35634ZM18.4998 9.11125L18.4999 9.35691L19.4999 9.35663L19.4998 9.11097L18.4998 9.11125ZM18.4999 9.35691L18.5 9.77792L19.5 9.77764L19.4999 9.35663L18.4999 9.35691ZM13.9374 2.5C14.7191 2.5 15.2795 2.50029 15.7216 2.5315C16.1588 2.56237 16.4428 2.62169 16.6759 2.72153L17.0697 1.80234C16.6913 1.64024 16.2823 1.5686 15.792 1.53398C15.3066 1.49971 14.705 1.5 13.9374 1.5V2.5ZM19.4647 7.33665C19.47 6.52694 19.4744 5.89631 19.4455 5.38797C19.4163 4.87574 19.352 4.45301 19.2042 4.06224L18.2689 4.41609C18.3654 4.67123 18.4206 4.9795 18.4471 5.44483C18.4738 5.91405 18.4701 6.50756 18.4647 7.33002L19.4647 7.33665ZM16.6759 2.72153C17.3964 3.03023 17.9749 3.63895 18.2689 4.41609L19.2042 4.06224C18.8181 3.04183 18.0506 2.22259 17.0697 1.80234L16.6759 2.72153ZM5.5 7.83333H14.5V6.83333H5.5V7.83333ZM5.5 10.5H14.5V9.5H5.5V10.5ZM9.4375 13.1667H14.5V12.1667H9.4375V13.1667ZM1.33253 18.1364L4.92572 14.9364L4.26065 14.1896L0.667467 17.3896L1.33253 18.1364ZM4.0935 14.5454L3.97232 17.9824L4.97169 18.0176L5.09288 14.5806L4.0935 14.5454ZM4.59319 14.063H1V15.063H4.59319V14.063Z" fill="#9C9C9C"/>
</svg>
