<svg width="21" height="20" viewBox="0 0 21 20" fill="none" xmlns="http://www.w3.org/2000/svg">
<path d="M1.02294 17.3896C0.816717 17.5732 0.798424 17.8893 0.982077 18.0955C1.16573 18.3017 1.48178 18.32 1.688 18.1364L1.02294 17.3896ZM4.94866 14.563L5.44835 14.5806L5.4666 14.063H4.94866V14.563ZM4.32778 17.9824C4.31805 18.2583 4.53389 18.4899 4.80986 18.4997C5.08583 18.5094 5.31743 18.2936 5.32716 18.0176L4.32778 17.9824ZM1.35547 14.063C1.07933 14.063 0.855469 14.2868 0.855469 14.563C0.855469 14.8391 1.07933 15.063 1.35547 15.063V14.063ZM5.3645 9.50737L5.69095 9.88609H5.69095L5.3645 9.50737ZM8.80175 10.2819L8.35004 10.4963H8.35004L8.80175 10.2819ZM9.85172 12.4941L10.3034 12.2798L9.85172 12.4941ZM11.5901 12.864L11.9252 13.2351L11.5901 12.864ZM13.0441 11.551L13.3792 11.9221L13.0441 11.551ZM15.8827 11.4739L15.5673 11.862L15.8827 11.4739ZM19.0401 14.6843C19.2544 14.8585 19.5693 14.8259 19.7435 14.6116C19.9176 14.3973 19.8851 14.0824 19.6708 13.9083L19.0401 14.6843ZM10.5657 13.4889L10.6697 12.9998L10.6697 12.9998L10.5657 13.4889ZM7.40143 8.32681L7.29152 8.81458L7.40143 8.32681ZM6.69922 17.5C6.42308 17.5 6.19922 17.7239 6.19922 18C6.19922 18.2761 6.42308 18.5 6.69922 18.5V17.5ZM18.5317 17.1322L18.8943 17.4764L18.5317 17.1322ZM5.05595 9.77332L5.38239 10.1521L5.3824 10.152L5.05595 9.77332ZM5.01647 9.80726L4.69055 9.42808L4.69002 9.42854L5.01647 9.80726ZM1.35554 7.97961L1.85554 7.97962L1.85554 7.97896L1.35554 7.97961ZM1.35548 12.0901L1.85548 12.0901L1.35548 12.0901ZM2.01664 12.393L1.69019 12.0143H1.69019L2.01664 12.393ZM1.688 18.1364L5.28119 14.9364L4.61612 14.1896L1.02294 17.3896L1.688 18.1364ZM4.44897 14.5454L4.32778 17.9824L5.32716 18.0176L5.44835 14.5806L4.44897 14.5454ZM4.94866 14.063H1.35547V15.063H4.94866V14.063ZM8.35004 10.4963L9.40001 12.7085L10.3034 12.2798L9.25345 10.0675L8.35004 10.4963ZM11.9252 13.2351L13.3792 11.9221L12.709 11.1799L11.255 12.4929L11.9252 13.2351ZM13.3792 11.9221C13.7214 11.6131 13.9446 11.4128 14.1297 11.2831C14.304 11.1609 14.3919 11.1403 14.4555 11.1386L14.4284 10.1389C14.0924 10.148 13.8141 10.2831 13.5558 10.4641C13.3082 10.6376 13.0322 10.888 12.709 11.1799L13.3792 11.9221ZM16.198 11.0859C15.861 10.812 15.5729 10.5767 15.3169 10.4167C15.0496 10.2497 14.7646 10.1298 14.4284 10.1389L14.4555 11.1386C14.519 11.1368 14.6073 11.1525 14.7869 11.2648C14.9779 11.3841 15.2103 11.5718 15.5673 11.862L16.198 11.0859ZM9.40001 12.7085C9.54167 13.007 9.6699 13.28 9.80167 13.4797C9.93856 13.6872 10.1382 13.9091 10.4616 13.9779L10.6697 12.9998C10.7241 13.0114 10.7151 13.0484 10.6364 12.9291C10.5526 12.8021 10.4584 12.6063 10.3034 12.2798L9.40001 12.7085ZM11.255 12.4929C10.9912 12.7311 10.8341 12.8712 10.7122 12.9526C10.6004 13.0273 10.612 12.9875 10.6697 12.9998L10.4616 13.9779C10.7883 14.0474 11.0604 13.9226 11.2676 13.7842C11.4648 13.6525 11.6854 13.4516 11.9252 13.2351L11.255 12.4929ZM5.69095 9.88609C6.20575 9.44236 6.55045 9.14693 6.82974 8.96945C7.09845 8.79869 7.2153 8.79741 7.29152 8.81458L7.51133 7.83904C7.05855 7.73701 6.65958 7.89275 6.2934 8.12545C5.93779 8.35142 5.52854 8.70587 5.03806 9.12864L5.69095 9.88609ZM9.25345 10.0675C8.9696 9.46941 8.73488 8.97211 8.4997 8.61505C8.25916 8.24985 7.96078 7.94031 7.51133 7.83904L7.29152 8.81458C7.37107 8.83251 7.48241 8.88854 7.66457 9.1651C7.85208 9.44979 8.05301 9.87042 8.35004 10.4963L9.25345 10.0675ZM6.98047 2.5H13.7305V1.5H6.98047V2.5ZM18.8555 7.92593V12.0741H19.8555V7.92593H18.8555ZM13.7305 17.5H6.69922V18.5H13.7305V17.5ZM13.7305 18.5C15.0414 18.5 16.0776 18.5012 16.8867 18.3866C17.7129 18.2696 18.3753 18.0232 18.8943 17.4764L18.1691 16.7879C17.8643 17.109 17.4519 17.2965 16.7464 17.3965C16.0237 17.4988 15.0712 17.5 13.7305 17.5V18.5ZM13.7305 2.5C15.0712 2.5 16.0237 2.50118 16.7464 2.60354C17.4519 2.70347 17.8643 2.89101 18.1691 3.21206L18.8943 2.52361C18.3753 1.97682 17.7129 1.73045 16.8867 1.61342C16.0776 1.49882 15.0414 1.5 13.7305 1.5V2.5ZM19.8555 7.92593C19.8555 6.54261 19.8564 5.45734 19.7485 4.61145C19.639 3.75374 19.4099 3.06672 18.8943 2.52361L18.1691 3.21206C18.4773 3.53678 18.66 3.98205 18.7565 4.73805C18.8545 5.50587 18.8555 6.51574 18.8555 7.92593H19.8555ZM6.98047 1.5C5.66951 1.5 4.63334 1.49882 3.82427 1.61342C2.99803 1.73045 2.33561 1.97682 1.81659 2.52361L2.54187 3.21206C2.84661 2.89101 3.25899 2.70347 3.96451 2.60354C4.6872 2.50118 5.63977 2.5 6.98047 2.5V1.5ZM1.85547 7.92593C1.85547 6.51574 1.85643 5.50587 1.95442 4.73805C2.0509 3.98205 2.23364 3.53678 2.54187 3.21206L1.81659 2.52361C1.30106 3.06672 1.07192 3.75374 0.962462 4.61145C0.85451 5.45734 0.855469 6.54261 0.855469 7.92593H1.85547ZM5.03806 9.12864L4.72951 9.39459L5.3824 10.152L5.69095 9.88609L5.03806 9.12864ZM1.85552 7.97586C1.85547 7.96892 1.85547 7.95671 1.85547 7.92593H0.855469C0.855469 7.95426 0.855465 7.9716 0.855553 7.98335L1.85552 7.97586ZM18.8555 12.0741C18.8555 12.9347 18.8554 13.65 18.832 14.2577L19.8313 14.2962C19.8555 13.6651 19.8555 12.9285 19.8555 12.0741H18.8555ZM19.647 13.8889L16.198 11.0859L15.5673 11.862L19.0163 14.6649L19.647 13.8889ZM18.832 14.2577C18.7783 15.6544 18.6 16.3339 18.1691 16.7879L18.8943 17.4764C19.6052 16.7276 19.7774 15.6962 19.8313 14.2962L18.832 14.2577ZM19.0163 14.665L19.0401 14.6843L19.6708 13.9083L19.647 13.8889L19.0163 14.665ZM1.85548 12.0901L1.85554 7.97962L0.855539 7.9796L0.855481 12.0901L1.85548 12.0901ZM1.85554 7.97896L1.85547 7.92527L0.855469 7.92658L0.855539 7.98026L1.85554 7.97896ZM2.34309 12.7718L5.34292 10.186L4.69002 9.42854L1.69019 12.0143L2.34309 12.7718ZM4.72951 9.39459C4.70761 9.41347 4.69788 9.42185 4.69306 9.42594L5.33988 10.1886C5.34861 10.1812 5.36252 10.1692 5.38239 10.1521L4.72951 9.39459ZM5.34239 10.1864L5.38187 10.1525L4.73003 9.39414L4.69055 9.42808L5.34239 10.1864ZM0.855481 12.0901C0.855479 12.2614 0.854193 12.4466 0.875211 12.5919C0.894754 12.727 0.959208 13.0233 1.26386 13.1629L1.68045 12.2538C1.71792 12.271 1.7536 12.2952 1.78454 12.3257C1.8148 12.3555 1.83452 12.3853 1.84678 12.4085C1.86846 12.4496 1.86842 12.4731 1.86491 12.4488C1.86184 12.4275 1.85879 12.3901 1.85714 12.3252C1.85551 12.2615 1.85548 12.1861 1.85548 12.0901L0.855481 12.0901ZM1.69019 12.0143C1.61742 12.0771 1.5603 12.1262 1.51097 12.1666C1.46078 12.2077 1.43043 12.2298 1.41234 12.2414C1.39164 12.2546 1.40941 12.2392 1.45466 12.2288C1.48024 12.223 1.51571 12.2184 1.55806 12.2219C1.60133 12.2254 1.64298 12.2366 1.68045 12.2538L1.26386 13.1629C1.5685 13.3025 1.83497 13.1579 1.95006 13.0845C2.07384 13.0055 2.21333 12.8836 2.34309 12.7718L1.69019 12.0143Z" fill="#9C9C9C"/>
<circle cx="14.6055" cy="6.25" r="1.25" fill="#9C9C9C"/>
</svg>
