<svg width="20" height="20" viewBox="0 0 20 20" fill="none" xmlns="http://www.w3.org/2000/svg">
<path fill-rule="evenodd" clip-rule="evenodd" d="M7.7034 8.7487C7.7034 8.45386 7.46439 8.21484 7.16954 8.21484C6.8747 8.21484 6.63569 8.45386 6.63569 8.7487V10.8955C6.63569 11.1412 6.43651 11.3403 6.1908 11.3403H3.63347C3.33863 11.3403 3.09961 11.5793 3.09961 11.8742C3.09961 12.169 3.33863 12.408 3.63347 12.408H6.1908C6.43651 12.408 6.63569 12.6072 6.63569 12.8529V14.9987C6.63569 15.2935 6.8747 15.5326 7.16954 15.5326C7.46439 15.5326 7.7034 15.2935 7.7034 14.9987V12.8529C7.7034 12.6072 7.90258 12.408 8.14828 12.408H10.7035C10.9983 12.408 11.2374 12.169 11.2374 11.8742C11.2374 11.5793 10.9983 11.3403 10.7035 11.3403H8.14828C7.90258 11.3403 7.7034 11.1412 7.7034 10.8954V8.7487Z" fill="#9C9C9C"/>
<path d="M12.3059 3.49805H1.78843C0.80155 3.49805 0 4.20663 0 5.07904V18.4192C0 19.2916 0.80155 20.0002 1.78843 20.0002H12.3059C13.2928 20.0002 14.0943 19.2916 14.0943 18.4192V5.07904C14.0897 4.20663 13.2881 3.49805 12.3059 3.49805ZM12.8387 18.4151C12.8387 18.6772 12.5978 18.8902 12.3012 18.8902H1.7838C1.48727 18.8902 1.24634 18.6772 1.24634 18.4151V5.07904C1.24634 4.81691 1.48727 4.60392 1.7838 4.60392H12.3012C12.5978 4.60392 12.8387 4.81691 12.8387 5.07904V18.4151Z" fill="#9C9C9C"/>
<path d="M18.2121 0H7.69468C6.7078 0 5.90625 0.708581 5.90625 1.581C5.90625 1.88818 6.18424 2.13393 6.53174 2.13393C6.87923 2.13393 7.15722 1.88818 7.15722 1.581C7.15722 1.31886 7.39815 1.10588 7.69468 1.10588H18.2121C18.5087 1.10588 18.7496 1.31886 18.7496 1.581V14.9212C18.7496 15.1833 18.5087 15.3963 18.2121 15.3963C17.8646 15.3963 17.5866 15.642 17.5866 15.9492C17.5866 16.2564 17.8646 16.5021 18.2121 16.5021C19.199 16.5021 20.0006 15.7936 20.0006 14.9212V1.581C20.0006 0.708581 19.199 0 18.2121 0Z" fill="#9C9C9C"/>
</svg>
