<svg width="21" height="20" viewBox="0 0 21 20" fill="none" xmlns="http://www.w3.org/2000/svg">
<g clip-path="url(#clip0_7849_32124)">
<path d="M7.35972 18C7.08358 18 6.85972 18.2239 6.85972 18.5C6.85972 18.7761 7.08358 19 7.35972 19V18ZM0.472656 12.3704C0.472656 12.6465 0.696514 12.8704 0.972656 12.8704C1.2488 12.8704 1.47266 12.6465 1.47266 12.3704H0.472656ZM1.03257 9.65144L0.580786 9.43721L1.03257 9.65144ZM2.95258 6.68686L2.6853 6.26429L2.95258 6.68686ZM17.875 6.68686L17.6077 7.10942L17.875 6.68686ZM18.9762 2.87868L18.6227 3.23223L18.9762 2.87868ZM13.3545 18H7.35972V19H13.3545V18ZM1.47266 12.3704V9.77778H0.472656V12.3704H1.47266ZM19.3549 12C19.3549 13.426 19.3567 14.5782 19.2534 15.4853C19.1488 16.404 18.9463 16.9547 18.6333 17.2679L19.3407 17.9747C19.9057 17.4093 20.1371 16.5635 20.247 15.5984C20.3582 14.6216 20.3549 13.4025 20.3549 12H19.3549ZM13.3545 19C14.7567 19 15.9786 19.0008 16.959 18.8868C17.927 18.7743 18.776 18.54 19.3407 17.9747L18.6333 17.2679C18.3202 17.5814 17.7658 17.7863 16.8436 17.8935C15.9337 17.9992 14.7782 18 13.3545 18V19ZM6.96743 1.5C5.56859 1.5 4.46912 1.49894 3.6118 1.6143C2.74005 1.73161 2.04419 1.97748 1.49686 2.52528L2.20428 3.23208C2.53487 2.9012 2.98446 2.70773 3.74516 2.60537C4.52029 2.50106 5.5403 2.5 6.96743 2.5V1.5ZM1.47266 9.77778C1.47266 8.35749 1.47304 6.87581 1.58051 5.64041C1.63423 5.02294 1.71337 4.48504 1.82642 4.0574C1.94313 3.61593 2.0798 3.35666 2.20428 3.23208L1.49686 2.52528C1.18238 2.84004 0.98984 3.30927 0.859632 3.80182C0.725769 4.30819 0.640297 4.90983 0.584277 5.55374C0.472277 6.84111 0.472656 8.36963 0.472656 9.77778H1.47266ZM20.3549 12C20.3549 11.0673 20.3903 10.4394 20.3542 9.75156L19.3556 9.804C19.3901 10.4609 19.3549 10.9947 19.3549 12H20.3549ZM19.3549 9.77778V12H20.3549V9.77778H19.3549ZM6.96743 2.5H13.8549V1.5H6.96743V2.5ZM19.3549 8V9.77778H20.3549V8H19.3549ZM19.3432 9.86567L19.4031 9.99201L20.3067 9.56355L20.2468 9.43721L19.3432 9.86567ZM1.42444 9.99201L1.48435 9.86567L0.580786 9.43721L0.520877 9.56355L1.42444 9.99201ZM6.45392 6.72222H14.3736V5.72222H6.45392V6.72222ZM1.48435 9.86567C1.88398 9.02291 2.16782 8.42582 2.44041 7.97865C2.70687 7.54154 2.94057 7.28609 3.21987 7.10942L2.6853 6.26429C2.23005 6.55226 1.89889 6.94578 1.58655 7.45814C1.28036 7.96045 0.971464 8.61333 0.580786 9.43721L1.48435 9.86567ZM6.45392 5.72222C5.54211 5.72222 4.81984 5.72159 4.23478 5.78304C3.63801 5.84572 3.14055 5.97633 2.6853 6.26429L3.21987 7.10942C3.49917 6.93275 3.83012 6.83104 4.33924 6.77757C4.86009 6.72286 5.52121 6.72222 6.45392 6.72222V5.72222ZM20.2468 9.43721C19.8561 8.61333 19.5472 7.96045 19.241 7.45814C18.9287 6.94578 18.5975 6.55226 18.1423 6.26429L17.6077 7.10942C17.887 7.28609 18.1207 7.54154 18.3872 7.97865C18.6597 8.42582 18.9436 9.02291 19.3432 9.86567L20.2468 9.43721ZM14.3736 6.72222C15.3064 6.72222 15.9675 6.72286 16.4883 6.77757C16.9974 6.83104 17.3284 6.93275 17.6077 7.10942L18.1423 6.26429C17.687 5.97633 17.1896 5.84572 16.5928 5.78304C16.0077 5.72159 15.2855 5.72222 14.3736 5.72222V6.72222ZM13.8549 2.5C15.2833 2.5 16.3042 2.50106 17.0801 2.60538C17.8416 2.70776 18.2917 2.90128 18.6227 3.23223L19.3298 2.52513C18.7821 1.9774 18.0857 1.73158 17.2133 1.61429C16.3553 1.49894 15.255 1.5 13.8549 1.5V2.5ZM20.3549 8C20.3549 6.59992 20.356 5.49956 20.2406 4.64156C20.1233 3.76917 19.8775 3.07285 19.3298 2.52513L18.6227 3.23223C18.9536 3.56319 19.1472 4.01331 19.2495 4.77481C19.3538 5.55069 19.3549 6.57165 19.3549 8H20.3549Z" fill="#9C9C9C"/>
<path d="M0.855469 16.5L5.85547 16.5M3.35547 14L3.35547 19" stroke="#9C9C9C" stroke-linecap="round"/>
</g>
<defs>
<clipPath id="clip0_7849_32124">
<rect width="20" height="20" fill="white" transform="translate(0.355469)"/>
</clipPath>
</defs>
</svg>
