<svg width="20" height="20" viewBox="0 0 20 20" fill="none" xmlns="http://www.w3.org/2000/svg">
<path fill-rule="evenodd" clip-rule="evenodd" d="M18.2692 4.8304V3.48936C18.2692 2.53908 17.4928 1.76596 16.5385 1.76596H8.4385L8.13623 1.27444C8.03135 1.10394 7.84504 1 7.64423 1H1.73077C0.776423 1 0 1.77312 0 2.7234L0 11.4231C0 11.7417 0.258297 12 0.576923 12C0.895549 12 1.15385 11.7417 1.15385 11.4231V2.7234C1.15385 2.40664 1.41265 2.14894 1.73077 2.14894H7.32104L7.62327 2.64034L8.73554 4.44884L9.50804 5.70489C9.61292 5.8754 9.79923 5.97934 10 5.97934H18.2693C18.5874 5.97934 18.8462 6.23704 18.8462 6.5538L18.8462 17.2766C18.8462 17.5934 18.5873 17.8511 18.2692 17.8511H7.57447C7.2572 17.8511 7 18.1083 7 18.4255C7 18.7428 7.2572 19 7.57447 19H18.2692C19.2236 19 20 18.2269 20 17.2766V6.5538C20 5.60352 19.2236 4.8304 18.2692 4.8304ZM17.1154 3.48936C17.1154 3.1726 16.8566 2.91489 16.5385 2.91489H9.14512L9.55073 3.57434L10.3228 4.82979H17.1154V3.48936Z" fill="#9C9C9C"/>
<path d="M0.5 16.5L5.5 16.5M3 14L3 19" stroke="#9C9C9C" stroke-linecap="round"/>
</svg>
