<svg width="20" height="20" viewBox="0 0 20 20" fill="none" xmlns="http://www.w3.org/2000/svg">
<g clip-path="url(#clip0_2802_24564)">
<path d="M13.1504 10.0004C13.1504 11.7401 11.7401 13.1504 10.0004 13.1504C8.26069 13.1504 6.85039 11.7401 6.85039 10.0004C6.85039 8.26069 8.26069 6.85039 10.0004 6.85039C11.7401 6.85039 13.1504 8.26069 13.1504 10.0004Z" stroke="#9C9C9C" stroke-width="0.9"/>
<path d="M19.9005 9.73003C19.8064 9.61835 17.5522 6.98753 14.4431 5.37672C14.2414 5.2709 12.3995 4.39929 12.7995 4.79996C10.7995 4.79977 12.5601 5.37672 14.0606 6.11757C16.4556 7.35757 18.3689 9.29257 19.0231 9.99925C18.0297 11.0751 14.1206 14.9992 9.99974 14.9992C8.60142 14.9992 7.19225 14.6617 5.80975 13.9951C4.8 13.6 2.8 12 2.79973 12.4C1.19942 12.4 5.24061 14.6451 5.44811 14.7451C6.94393 15.4676 8.4756 15.8326 9.99978 15.8326C15.134 15.8326 19.7089 10.4959 19.9014 10.2684C20.033 10.1133 20.0322 9.88585 19.9005 9.73003Z" fill="#9C9C9C"/>
<path d="M12.7342 4.64601C11.7859 4.32684 10.8659 4.16602 10 4.16602C4.86587 4.16602 0.290876 9.50269 0.0983768 9.73019C-0.0233027 9.87351 -0.0333027 10.0819 0.0750565 10.2377C0.132556 10.3202 1.51005 12.276 3.89755 13.8619C6.10196 15.3261 6.32 14.7996 6.4 14.7996C6.53418 14.7996 4.39423 13.8669 4.47423 13.7444C4.60173 13.5535 4.54923 13.2944 4.35755 13.1677C2.60423 12.0019 1.40423 10.5944 0.955055 10.0219C1.91423 8.98019 5.84923 4.99937 10 4.99937C10.7759 4.99937 11.6067 5.14605 12.4684 5.43519C14 5.99961 13.6 5.59961 13.6 5.19961C13.6734 4.98129 12.9525 4.71937 12.7342 4.64601Z" fill="#9C9C9C"/>
</g>
<defs>
<clipPath id="clip0_2802_24564">
<rect width="20" height="20" fill="white"/>
</clipPath>
</defs>
</svg>
