<svg width="20" height="20" viewBox="0 0 20 20" fill="none" xmlns="http://www.w3.org/2000/svg">
<path d="M19.9005 9.73C19.8063 9.61833 17.5522 6.98752 14.443 5.37671C14.2413 5.27089 12.3995 4.39929 12.7995 4.79996C10.7995 4.79976 12.5601 5.37671 14.0605 6.11757C16.4555 7.35756 18.3688 9.29255 19.023 9.99922C18.0297 11.075 14.1205 14.9992 9.99971 14.9992C8.60139 14.9992 7.19222 14.6617 5.80973 13.995C4.79999 13.6 2.8 12 2.79973 12.4C1.19942 12.4 5.2406 14.645 5.44809 14.745C6.9439 15.4675 8.47557 15.8325 9.99975 15.8325C15.1339 15.8325 19.7089 10.4959 19.9014 10.2684C20.033 10.1133 20.0321 9.88582 19.9005 9.73Z" fill="#9C9C9C"/>
<path d="M12.7341 4.64601C11.7858 4.32684 10.8658 4.16602 9.99999 4.16602C4.86584 4.16602 0.290875 9.50266 0.0983763 9.73016C-0.0233026 9.87348 -0.0333025 10.0818 0.0750561 10.2377C0.132556 10.3202 1.51005 12.276 3.89753 13.8618C6.10193 15.3261 6.31997 14.7996 6.39997 14.7996C6.53415 14.7996 4.39421 13.8668 4.47421 13.7443C4.60171 13.5535 4.54921 13.2943 4.35753 13.1676C2.60422 12.0018 1.40423 10.5943 0.95505 10.0218C1.91422 8.98017 5.8492 4.99937 9.99999 4.99937C10.7758 4.99937 11.6067 5.14605 12.4683 5.43519C13.9999 5.9996 13.5999 5.5996 13.5999 5.1996C13.6733 4.98129 12.9525 4.71937 12.7341 4.64601Z" fill="#9C9C9C"/>
<g clip-path="url(#clip0_2802_24572)">
<path d="M12.3567 7.64336C12.1942 7.48086 11.93 7.48086 11.7675 7.64336C11.605 7.80586 11.605 8.07086 11.7675 8.23253C12.2392 8.70421 12.5 9.33171 12.5 10C12.5 11.3783 11.3783 12.5 10 12.5C9.33171 12.5 8.70421 12.24 8.23254 11.7675C8.07004 11.605 7.80586 11.605 7.64336 11.7675C7.48086 11.9292 7.48086 12.1942 7.64336 12.3567C8.27168 12.9867 9.10917 13.3334 10 13.3334C11.8383 13.3334 13.3333 11.8384 13.3333 10.0001C13.3333 9.10917 12.9867 8.27167 12.3567 7.64336Z" fill="#9C9C9C"/>
<path d="M10.5801 6.72352C10.391 6.6902 10.1976 6.66602 9.99931 6.66602C8.16101 6.66602 6.66602 8.16101 6.66602 9.99931C6.66602 10.1976 6.6902 10.391 6.72434 10.5801C6.76016 10.7818 6.93601 10.9243 7.13351 10.9243C7.15769 10.9243 7.18183 10.9226 7.20683 10.9176C7.43265 10.8776 7.58433 10.6609 7.54433 10.4351C7.51851 10.2935 7.49933 10.1493 7.49933 9.99931C7.49933 8.621 8.621 7.49933 9.99931 7.49933C10.1493 7.49933 10.2935 7.51851 10.4351 7.54351C10.6568 7.58851 10.8776 7.43183 10.9176 7.20601C10.9576 6.98019 10.806 6.76351 10.5801 6.72352Z" fill="#9C9C9C"/>
<path d="M19.9013 9.73008C19.8072 9.6184 17.553 6.9876 14.4439 5.37679C14.2422 5.27097 13.9881 5.35097 13.8822 5.55597C13.7764 5.76014 13.8564 6.01178 14.0614 6.11764C16.4564 7.35763 18.3697 9.29262 19.0238 9.9993C18.0305 11.0751 14.1214 14.9993 10.0006 14.9993C8.60227 14.9993 7.1931 14.6618 5.81061 13.9951C5.60561 13.8943 5.35479 13.9818 5.25479 14.1893C5.15397 14.3959 5.24147 14.6451 5.44897 14.7451C6.94478 15.4676 8.47645 15.8326 10.0006 15.8326C15.1348 15.8326 19.7097 10.4959 19.9022 10.2684C20.0338 10.1134 20.033 9.8859 19.9013 9.73008Z" fill="#9C9C9C"/>
<path d="M12.7342 4.64601C11.7858 4.32683 10.8658 4.16602 9.99999 4.16602C4.86585 4.16602 0.290875 9.50266 0.0983763 9.73016C-0.0233026 9.87348 -0.0333025 10.0818 0.0750562 10.2377C0.132556 10.3202 1.51005 12.276 3.89753 13.8618C3.96835 13.9093 4.04753 13.9318 4.12753 13.9318C4.26171 13.9318 4.39421 13.8668 4.47421 13.7443C4.60171 13.5535 4.54921 13.2943 4.35753 13.1676C2.60422 12.0018 1.40423 10.5943 0.95505 10.0218C1.91422 8.98016 5.8492 4.99937 9.99999 4.99937C10.7758 4.99937 11.6067 5.14605 12.4683 5.43519C12.6866 5.51351 12.9233 5.39269 12.9958 5.17351C13.0692 4.95519 12.9525 4.71937 12.7342 4.64601Z" fill="#9C9C9C"/>
<path d="M16.8776 3.12187C16.7151 2.95938 16.4509 2.95938 16.2884 3.12187L2.12187 17.2885C1.95938 17.451 1.95938 17.7151 2.12187 17.8776C2.20355 17.9585 2.31019 17.9993 2.41687 17.9993C2.52355 17.9993 2.63019 17.9585 2.71105 17.8776L16.8776 3.71105C17.0401 3.54855 17.0401 3.28437 16.8776 3.12187Z" fill="#9C9C9C"/>
</g>
<defs>
<clipPath id="clip0_2802_24572">
<rect width="19.9999" height="19.9999" fill="white"/>
</clipPath>
</defs>
</svg>
