<svg width="20" height="20" viewBox="0 0 20 20" fill="none" xmlns="http://www.w3.org/2000/svg">
<path d="M1 11V9C1 5.22876 1 3.34315 2.17157 2.17157C3.34315 1 5.22876 1 9 1H11C14.7712 1 16.6569 1 17.8284 2.17157C19 3.34315 19 5.22876 19 9V11C19 14.7712 19 16.6569 17.8284 17.8284C16.6569 19 14.7712 19 11 19H10" stroke="#9C9C9C"/>
<path fill-rule="evenodd" clip-rule="evenodd" d="M16.9975 12.2904L16.4033 11.6962L16.3931 11.686L16.393 11.6859C16.3245 11.6174 16.2785 11.5713 16.2394 11.5355C15.0477 10.4404 13.1454 10.7491 12.3611 12.1648C12.3354 12.2112 12.3062 12.2695 12.2629 12.3563L12.2564 12.3692C12.227 12.428 12.22 12.4417 12.2161 12.4488C12.0513 12.745 11.6458 12.7949 11.4142 12.5475C11.4087 12.5416 11.3985 12.53 11.3557 12.48L6.37964 6.67461C6.19993 6.46495 5.88428 6.44067 5.67461 6.62038C5.46495 6.80009 5.44067 7.11574 5.62038 7.3254L10.5965 13.1308L10.6038 13.1394L10.6038 13.1394C10.6352 13.176 10.6614 13.2067 10.6843 13.231C11.3793 13.9732 12.5957 13.8234 13.09 12.9349C13.1062 12.9057 13.1242 12.8696 13.1458 12.8264L13.1508 12.8164C13.203 12.7121 13.2218 12.6747 13.2358 12.6494C13.7064 11.8 14.8478 11.6148 15.5628 12.2718C15.5841 12.2914 15.6138 12.3209 15.6962 12.4033L16.9755 13.6826C16.9886 13.2722 16.9947 12.812 16.9975 12.2904Z" fill="#9C9C9C"/>
<circle cx="14.5" cy="5.50098" r="1.5" fill="#9C9C9C"/>
<path d="M6 14.001V13.501H6.5V14.001H6ZM1.31235 18.3914C1.09672 18.5639 0.78207 18.529 0.609566 18.3133C0.437061 18.0977 0.472022 17.783 0.687653 17.6105L1.31235 18.3914ZM5.5 19.001V14.001H6.5V19.001H5.5ZM6 14.501H1V13.501H6V14.501ZM6.31235 14.3914L1.31235 18.3914L0.687653 17.6105L5.68765 13.6105L6.31235 14.3914Z" fill="#9C9C9C"/>
</svg>
