<svg width="20" height="20" viewBox="0 0 20 20" fill="none" xmlns="http://www.w3.org/2000/svg">
<path d="M14.5007 2.21457C12.8892 2.14828 11.2589 2.98999 10.4802 4.64661C10.2895 5.05249 9.71213 5.05249 9.52136 4.64661C8.16909 1.76971 4.2484 1.35042 2.31835 3.87631L1.97329 4.32789C0.376479 6.41767 0.608387 9.37436 2.51149 11.1896L3.96414 12.5752M18.702 5.5C19.4918 7.42235 19.0585 9.69361 17.4901 11.1896L10.6047 17.7572C10.3189 18.0298 10.176 18.1662 10.0008 18.1662C9.8256 18.1662 9.68268 18.0298 9.39686 17.7572L7.87267 16.3034" stroke="#9C9C9C" stroke-linecap="round"/>
<path d="M18.5 2L3 17" stroke="#9C9C9C" stroke-linecap="round"/>
</svg>
