<svg width="20" height="20" viewBox="0 0 20 20" fill="none" xmlns="http://www.w3.org/2000/svg">
<path d="M8 14.9998L7.64646 14.6462L7.29287 14.9998L7.64646 15.3533L8 14.9998ZM11.6465 10.6464L7.64646 14.6462L8.35354 15.3533L12.3535 11.3536L11.6465 10.6464ZM7.64646 15.3533L11.6465 19.3531L12.3535 18.646L8.35354 14.6462L7.64646 15.3533Z" fill="#9C9C9C"/>
<path d="M3.93782 11.4994C3.14475 10.1259 2.84171 8.5237 3.07833 6.9554C3.31495 5.3871 4.07722 3.94565 5.24024 2.86719C6.40327 1.78873 7.8981 1.13721 9.47985 1.01935C11.0616 0.901496 12.6365 1.3243 13.9465 2.21849C15.2565 3.11269 16.224 4.42526 16.6905 5.94117C17.1569 7.45709 17.0947 9.08647 16.5139 10.5624C15.9332 12.0383 14.8684 13.2733 13.494 14.0649C12.1196 14.8566 10.517 15.158 8.94888 14.9199" stroke="#9C9C9C" stroke-linecap="round"/>
</svg>
