<svg width="20" height="20" viewBox="0 0 20 20" fill="none" xmlns="http://www.w3.org/2000/svg">
<g clip-path="url(#clip0_2341_3376)">
<path d="M18.7597 0.732706C17.8843 -0.142673 16.4651 -0.142673 15.5898 0.732706L6.70328 9.61919C6.64238 9.68009 6.59841 9.75558 6.57545 9.83847L5.40685 14.0574C5.35879 14.2303 5.40763 14.4156 5.53449 14.5426C5.66154 14.6695 5.84677 14.7183 6.01975 14.6705L10.2386 13.5017C10.3215 13.4787 10.397 13.4347 10.4579 13.3738L19.3442 4.48716C20.2182 3.6112 20.2182 2.19316 19.3442 1.3172L18.7597 0.732706ZM7.7886 9.94295L15.0615 2.66986L17.4071 5.01542L10.134 12.2885L7.7886 9.94295ZM7.32007 10.8831L9.19399 12.7572L6.60191 13.4754L7.32007 10.8831ZM18.6399 3.78281L18.1116 4.31107L15.7658 1.96532L16.2943 1.43706C16.7805 0.950821 17.5689 0.950821 18.0552 1.43706L18.6399 2.02155C19.1253 2.50837 19.1253 3.29619 18.6399 3.78281Z" fill="#9C9C9C"/>
<path d="M7.08268 2.5H2.19554C1.21274 2.5 0.416016 3.29672 0.416016 4.27953V17.8038C0.416016 18.7866 1.21274 19.5833 2.19554 19.5833H16.5532C17.536 19.5833 18.3327 18.7866 18.3327 17.8038V12.9167" stroke="#9C9C9C" stroke-linecap="round" stroke-linejoin="round"/>
</g>
<defs>
<clipPath id="clip0_2341_3376">
<rect width="20" height="20" fill="white"/>
</clipPath>
</defs>
</svg>
