<svg width="20" height="20" viewBox="0 0 20 20" fill="none" xmlns="http://www.w3.org/2000/svg">
<path d="M11 1H9C5.22876 1 3.34315 1 2.17157 2.17157C1 3.34315 1 5.22876 1 9V11C1 14.7712 1 16.6569 2.17157 17.8284C3.34315 19 5.22876 19 9 19H10H11C14.7712 19 16.6569 19 17.8284 17.8284C19 16.6569 19 14.7712 19 11V9C19 5.22876 19 3.34315 17.8284 2.17157C16.6569 1 14.7712 1 11 1Z" stroke="#9C9C9C"/>
<rect x="13.5" y="7.08301" width="2.33333" height="7.58333" rx="0.933333" stroke="#9C9C9C" stroke-width="0.933333" stroke-linejoin="round"/>
<rect x="8.83398" y="10.583" width="2.33333" height="4.08333" rx="0.933333" stroke="#9C9C9C" stroke-width="0.933333" stroke-linejoin="round"/>
<rect x="4.16602" y="8.25" width="2.33333" height="6.41667" rx="0.933333" stroke="#9C9C9C" stroke-width="0.933333" stroke-linejoin="round"/>
</svg>
