<svg width="20" height="20" viewBox="0 0 20 20" fill="none" xmlns="http://www.w3.org/2000/svg">
<g clip-path="url(#clip0_2341_3338)">
<path d="M12.7594 7.24512C12.5007 7.24512 12.291 7.45479 12.291 7.7135V16.566C12.291 16.8245 12.5007 17.0343 12.7594 17.0343C13.0181 17.0343 13.2278 16.8245 13.2278 16.566V7.7135C13.2278 7.45479 13.0181 7.24512 12.7594 7.24512Z" fill="#9C9C9C"/>
<path d="M7.23206 7.24512C6.97335 7.24512 6.76367 7.45479 6.76367 7.7135V16.566C6.76367 16.8245 6.97335 17.0343 7.23206 17.0343C7.49076 17.0343 7.70044 16.8245 7.70044 16.566V7.7135C7.70044 7.45479 7.49076 7.24512 7.23206 7.24512Z" fill="#9C9C9C"/>
<path d="M3.20333 5.95517V17.4951C3.20333 18.1772 3.45344 18.8178 3.89035 19.2774C4.32525 19.7382 4.93049 19.9999 5.56391 20.001H14.4259C15.0595 19.9999 15.6647 19.7382 16.0994 19.2774C16.5363 18.8178 16.7864 18.1772 16.7864 17.4951V5.95517C17.6549 5.72464 18.2177 4.88557 18.1016 3.99437C17.9852 3.10334 17.2261 2.43681 16.3274 2.43663H13.9293V1.85115C13.932 1.3588 13.7374 0.886025 13.3888 0.538215C13.0403 0.190587 12.5668 -0.00298706 12.0744 0.0010381H7.91533C7.42298 -0.00298706 6.94948 0.190587 6.60093 0.538215C6.25239 0.886025 6.05772 1.3588 6.06046 1.85115V2.43663H3.66238C2.76367 2.43681 2.00456 3.10334 1.8882 3.99437C1.77202 4.88557 2.33481 5.72464 3.20333 5.95517ZM14.4259 19.0642H5.56391C4.76308 19.0642 4.1401 18.3763 4.1401 17.4951V5.99634H15.8497V17.4951C15.8497 18.3763 15.2267 19.0642 14.4259 19.0642ZM6.99723 1.85115C6.99412 1.60726 7.08999 1.37252 7.26307 1.20035C7.43597 1.02819 7.67126 0.933595 7.91533 0.937804H12.0744C12.3185 0.933595 12.5538 1.02819 12.7267 1.20035C12.8998 1.37234 12.9956 1.60726 12.9925 1.85115V2.43663H6.99723V1.85115ZM3.66238 3.37339H16.3274C16.793 3.37339 17.1705 3.75084 17.1705 4.21648C17.1705 4.68212 16.793 5.05957 16.3274 5.05957H3.66238C3.19674 5.05957 2.81929 4.68212 2.81929 4.21648C2.81929 3.75084 3.19674 3.37339 3.66238 3.37339Z" fill="#9C9C9C"/>
<path d="M9.99572 7.24512C9.73702 7.24512 9.52734 7.45479 9.52734 7.7135V16.566C9.52734 16.8245 9.73702 17.0343 9.99572 17.0343C10.2544 17.0343 10.4641 16.8245 10.4641 16.566V7.7135C10.4641 7.45479 10.2544 7.24512 9.99572 7.24512Z" fill="#9C9C9C"/>
</g>
<defs>
<clipPath id="clip0_2341_3338">
<rect width="20" height="20" fill="white"/>
</clipPath>
</defs>
</svg>
