<svg width="80" height="80" viewBox="0 0 80 80" fill="none" xmlns="http://www.w3.org/2000/svg">
<path d="M79.25 40C79.25 61.6772 61.6772 79.25 40 79.25C18.3228 79.25 0.75 61.6772 0.75 40C0.75 18.3228 18.3228 0.75 40 0.75C61.6772 0.75 79.25 18.3228 79.25 40Z" stroke="#70BBF6" stroke-width="1.5"/>
<path d="M50.1243 55.1279C40.8068 55.1279 37.7043 55.0099 30.9261 55.395C22.1878 55.8915 15.8235 60.2477 11.2 65.9017L17.6125 71.5017L24.0125 75.5017L32.8125 77.9017L43.2 79.2001L54.4 76.8001L64.0125 70.7017L70.4754 64.3017C65.45 59.1694 58.8033 55.7874 50.1243 55.1279Z" fill="#70BBF6" stroke="#70BBF6" stroke-width="0.396314" stroke-linecap="round" stroke-linejoin="round"/>
<path d="M49.3171 57.5756L49.3159 44.5425L34.2842 49.7581L33.5688 57.5756C39.2803 63.8095 45.6067 59.7265 49.3171 57.5756Z" fill="#FFCDB0"/>
<path d="M50.6754 42.9137C53.9867 34.453 34.2871 48.9796 34.2871 48.9796L33.8406 54.3178C43.1304 55.5794 47.3642 51.3744 50.6754 42.9137Z" fill="#E9B598"/>
<path d="M52.0149 39.9703C52.8983 47.9582 24.313 69.6086 30.5761 29.1295C38.5204 17.9448 52.1096 25.019 50.6492 35.4262L50.8961 34.7492C55.7663 24.9007 60.036 39.7655 52.0149 39.9703Z" fill="#FFCDB0"/>
<path d="M30.9975 29.6725C26.3572 38.5227 12.2647 23.3931 24.8428 22.0598C29.6901 19.6934 23.893 15.1987 22.9156 18.9301C20.1195 15.0889 26.9516 8.83974 32.8522 14.122C35.5529 17.5052 36.9272 12.4142 39.5338 11.5761C45.3914 10.0828 53.7087 13.2306 53.6874 17.6303C63.2702 20.4678 60.8418 26.7535 55.6055 31.998C52.6641 31.1037 51.9596 33.3935 50.5136 36.1456C47.9607 26.178 46.935 24.5429 38.6168 26.3668C38.2533 30.7484 33.5235 30.5545 31.2407 29.7579C31.1533 29.7274 31.0724 29.699 30.9975 29.6725Z" fill="#555555"/>
<path d="M44.1884 37.5387C43.9054 38.478 43.1376 39.0771 42.4734 38.8767C41.8092 38.6764 41.5002 37.7525 41.7832 36.8132C42.0662 35.8739 42.8341 35.2748 43.4983 35.4751C44.1625 35.6755 44.4715 36.5993 44.1884 37.5387Z" fill="#5A5A5A"/>
<path d="M38.9956 43.9374C38.8999 44.4854 37.9428 44.7759 36.858 44.5862C35.7732 44.3965 34.9713 43.7985 35.0671 43.2504C35.1628 42.7023 36.1199 42.4118 37.2047 42.6015C38.2895 42.7912 39.0914 43.3893 38.9956 43.9374Z" fill="#E9B598"/>
<path d="M48.8722 40.5408C49.1615 41.3825 48.3372 42.4292 47.0311 42.8786C45.725 43.328 44.4316 43.0099 44.1423 42.1682C43.853 41.3265 44.6773 40.2798 45.9834 39.8304C47.2895 39.381 48.5829 39.6991 48.8722 40.5408Z" fill="#FFB393"/>
<path d="M33.9445 47.3368C33.8314 47.3431 33.7344 47.4193 33.7015 47.5277C33.6686 47.636 33.7069 47.7533 33.7973 47.8214C35.3964 49.0253 36.9012 49.397 38.3985 49.1273C39.8787 48.8607 41.3137 47.9734 42.7968 46.7437C42.8948 46.6624 42.9226 46.5237 42.8635 46.4109C42.8043 46.2982 42.6744 46.2421 42.5518 46.2765C39.7355 47.0673 37.8181 47.1548 35.4361 47.2635C34.961 47.2852 34.4674 47.3077 33.9445 47.3368Z" fill="white" stroke="#FFB393" stroke-width="0.539242" stroke-linecap="round" stroke-linejoin="round"/>
<path d="M33.1677 42.0088C32.7831 42.8114 31.4617 42.9779 30.2162 42.3805C29.5297 41.8242 29.7264 40.3018 29.6642 39.401C29.623 38.8001 30.3633 38.8765 31.6088 39.4739C32.8543 40.0712 33.5522 41.2061 33.1677 42.0088Z" fill="#FFB393"/>
<path d="M34.9821 36.7661C35.0129 37.7263 34.5027 38.5218 33.8427 38.543C33.1826 38.5641 32.6226 37.8029 32.5919 36.8427C32.5612 35.8825 33.0713 35.087 33.7314 35.0659C34.3914 35.0447 34.9514 35.806 34.9821 36.7661Z" fill="#5A5A5A"/>
<path d="M44.1873 32.9481C45.5243 33.1508 48.0471 34.2793 48.1796 33.4038C48.3122 32.5282 46.0015 31.2409 44.6645 31.0383C43.3274 30.8356 40.9426 31.3613 40.8469 31.9932C40.8469 32.9481 42.8502 32.7455 44.1873 32.9481Z" fill="#555555"/>
<path d="M32.4507 33.0621C31.1246 33.3272 29.6641 33.8908 29.3923 33.1865C29.1204 32.4823 30.5852 31.5154 31.8847 31.1767C33.2108 30.9117 35.6176 31.3251 35.7427 31.9519C35.7874 32.9058 33.7768 32.7971 32.4507 33.0621Z" fill="#555555"/>
<path d="M49.5878 55.9453C49.0448 59.4751 37.0978 62.7334 32.2104 55.9453L27.8469 61.2925L31.78 68.1746L42.4554 67.3488L51.4452 66.2476L56.221 59.916L49.5878 55.9453Z" fill="#70BBF6"/>
</svg>
