<svg width="24" height="24" viewBox="0 0 24 24" fill="none" xmlns="http://www.w3.org/2000/svg">
<path d="M3.80078 5.33331V4C3.80078 2.89543 4.69621 2 5.80078 2H10.177C10.7046 2 11.2109 2.20853 11.5855 2.58016L12.8159 3.80077C13.1905 4.1724 13.6968 4.38093 14.2245 4.38093H21.0007C22.1052 4.38093 23.0007 5.27637 23.0007 6.38094V16.6665C23.0007 17.7711 22.1052 18.6665 21.0007 18.6665H20.2007" stroke="#9C9C9C" stroke-width="1.5" stroke-linecap="round" stroke-linejoin="round"/>
<path d="M1 20V7.3335C1 6.22893 1.89543 5.3335 3 5.3335H7.37619C7.90387 5.3335 8.41016 5.54203 8.78476 5.91366L10.0151 7.13427C10.3897 7.5059 10.896 7.71443 11.4237 7.71443H18.1999C19.3045 7.71443 20.1999 8.60986 20.1999 9.71443V20C20.1999 21.1046 19.3045 22 18.1999 22H3C1.89543 22 1 21.1046 1 20Z" stroke="#9C9C9C" stroke-width="1.5" stroke-linecap="round" stroke-linejoin="round"/>
</svg>
