<svg width="46" height="46" viewBox="0 0 46 46" fill="none" xmlns="http://www.w3.org/2000/svg">
<rect opacity="0.05" width="46" height="46" rx="5" fill="#868FFF"/>
<path d="M30.75 26.5V25.25C30.75 23.3644 30.75 22.4216 30.1642 21.8358C29.5784 21.25 28.6356 21.25 26.75 21.25H26.2221C25.0193 21.25 24.4179 21.25 23.9346 20.9513C23.4513 20.6526 23.1823 20.1147 22.6444 19.0389L21.9076 17.5652C21.6855 17.1209 21.5744 16.8988 21.4266 16.7211C21.1484 16.3866 20.7687 16.152 20.3452 16.0527C20.1201 16 19.8717 16 19.375 16M38 23C38 31.2843 31.2843 38 23 38C14.7157 38 8 31.2843 8 23C8 14.7157 14.7157 8 23 8C31.2843 8 38 14.7157 38 23ZM20.25 30H25.5C27.9749 30 29.2123 30 29.9812 29.2312C30.75 28.4623 30.75 27.2249 30.75 24.75V21.25C30.75 18.7751 30.75 17.5377 29.9812 16.7688C29.2123 16 27.9749 16 25.5 16H20.25C17.7751 16 16.5377 16 15.7688 16.7688C15 17.5377 15 18.7751 15 21.25V24.75C15 27.2249 15 28.4623 15.7688 29.2312C16.5377 30 17.7751 30 20.25 30Z" stroke="#868FFF"/>
</svg>
