<svg width="24" height="24" viewBox="0 0 24 24" fill="none" xmlns="http://www.w3.org/2000/svg">
<path d="M22 11.5882H22.75H22ZM19 6.88235V7.63235H19.75V6.88235H19ZM13.7929 16.0012L13.2626 16.5316L13.7929 16.0012ZM13.7929 11.8811L13.2626 11.3508L13.7929 11.8811ZM21.7071 7.17525L22.2374 6.64492L21.7071 7.17525ZM1.58579 20.4142L2.11612 19.8839L1.58579 20.4142ZM18.8536 2.14645L18.3232 2.67678L18.8536 2.14645ZM2.94118 2.75L18 2.75V1.25L2.94118 1.25V2.75ZM5 21.75L20 21.75V20.25L5 20.25V21.75ZM0.250002 3.94118L0.250002 17H1.75L1.75 3.94118H0.250002ZM20 6.13235L3.94118 6.13235V7.63235L20 7.63235V6.13235ZM21.25 16.2941L21.25 19H22.75L22.75 16.2941H21.25ZM21.25 8.88235L21.25 11.5882H22.75L22.75 8.88235H21.25ZM12.75 13.5882V14.2941L14.25 14.2941V13.5882L12.75 13.5882ZM15.5 17.0441H22V15.5441H15.5V17.0441ZM21.25 11.5882L21.25 16.2941H22.75L22.75 11.5882H21.25ZM22 10.8382L15.5 10.8382V12.3382L22 12.3382V10.8382ZM19 6.13235L15 6.13235L15 7.63235L19 7.63235V6.13235ZM18.25 3V6.88235H19.75V3H18.25ZM12.75 14.2941C12.75 14.7443 12.7484 15.1574 12.7933 15.4913C12.8411 15.8468 12.9535 16.2225 13.2626 16.5316L14.3232 15.4709C14.3228 15.4704 14.3228 15.4704 14.3231 15.4708C14.3234 15.4711 14.3235 15.4714 14.3235 15.4713C14.3234 15.4712 14.3229 15.4704 14.3219 15.4684C14.3209 15.4665 14.3192 15.4632 14.3172 15.4582C14.3082 15.4364 14.2929 15.388 14.2799 15.2915C14.2516 15.0807 14.25 14.7867 14.25 14.2941L12.75 14.2941ZM15.5 15.5441C15.0074 15.5441 14.7134 15.5425 14.5027 15.5142C14.4061 15.5012 14.3577 15.4859 14.336 15.477C14.3309 15.4749 14.3276 15.4733 14.3257 15.4723C14.3238 15.4713 14.3229 15.4707 14.3228 15.4707C14.3228 15.4706 14.323 15.4708 14.3234 15.471C14.3237 15.4713 14.3237 15.4714 14.3232 15.4709L13.2626 16.5316C13.5716 16.8406 13.9473 16.953 14.3028 17.0008C14.6367 17.0457 15.0498 17.0441 15.5 17.0441V15.5441ZM14.25 13.5882C14.25 13.0956 14.2516 12.8016 14.2799 12.5909C14.2929 12.4943 14.3082 12.446 14.3172 12.4242C14.3192 12.4192 14.3209 12.4158 14.3219 12.4139C14.3229 12.412 14.3234 12.4111 14.3235 12.4111C14.3235 12.411 14.3234 12.4112 14.3231 12.4116C14.3228 12.4119 14.3228 12.4119 14.3232 12.4115L13.2626 11.3508C12.9535 11.6598 12.8411 12.0355 12.7933 12.391C12.7484 12.7249 12.75 13.138 12.75 13.5882L14.25 13.5882ZM15.5 10.8382C15.0498 10.8382 14.6367 10.8366 14.3028 10.8815C13.9473 10.9293 13.5716 11.0418 13.2626 11.3508L14.3232 12.4115C14.3237 12.411 14.3237 12.411 14.3234 12.4113C14.323 12.4116 14.3228 12.4117 14.3228 12.4117C14.3229 12.4116 14.3238 12.4111 14.3257 12.4101C14.3276 12.4091 14.3309 12.4075 14.336 12.4054C14.3577 12.3964 14.4061 12.3811 14.5027 12.3682C14.7134 12.3398 15.0074 12.3382 15.5 12.3382V10.8382ZM20 7.63235C20.4926 7.63235 20.7866 7.63395 20.9973 7.66228C21.0939 7.67526 21.1423 7.69055 21.164 7.69951C21.1691 7.70159 21.1724 7.7032 21.1743 7.70421C21.1762 7.70521 21.1771 7.70576 21.1772 7.70582C21.1772 7.70586 21.177 7.70571 21.1766 7.70542C21.1763 7.70514 21.1763 7.70512 21.1768 7.70558L22.2374 6.64492C21.9284 6.33589 21.5527 6.22345 21.1972 6.17565C20.8633 6.13076 20.4502 6.13235 20 6.13235V7.63235ZM22.75 8.88235C22.75 8.43215 22.7516 8.01905 22.7067 7.68515C22.6589 7.32967 22.5465 6.95394 22.2374 6.64492L21.1768 7.70558C21.1772 7.70603 21.1772 7.70605 21.1769 7.7057C21.1766 7.70536 21.1765 7.70512 21.1765 7.70519C21.1766 7.70527 21.1771 7.70612 21.1781 7.70802C21.1791 7.70996 21.1808 7.71327 21.1828 7.71832C21.1918 7.7401 21.2071 7.78846 21.2201 7.88502C21.2484 8.09574 21.25 8.38975 21.25 8.88235H22.75ZM20 21.75C20.4502 21.75 20.8633 21.7516 21.1972 21.7067C21.5527 21.6589 21.9284 21.5465 22.2374 21.2374L21.1768 20.1768C21.1763 20.1772 21.1763 20.1772 21.1766 20.1769C21.177 20.1766 21.1772 20.1765 21.1772 20.1765C21.1771 20.1766 21.1762 20.1771 21.1743 20.1781C21.1724 20.1791 21.1691 20.1808 21.164 20.1828C21.1423 20.1918 21.0939 20.2071 20.9973 20.2201C20.7866 20.2484 20.4926 20.25 20 20.25V21.75ZM21.25 19C21.25 19.4926 21.2484 19.7866 21.2201 19.9973C21.2071 20.0939 21.1918 20.1423 21.1828 20.164C21.1808 20.1691 21.1791 20.1724 21.1781 20.1743C21.1771 20.1762 21.1766 20.1771 21.1765 20.1772C21.1765 20.1772 21.1766 20.177 21.1769 20.1766C21.1772 20.1763 21.1772 20.1763 21.1768 20.1768L22.2374 21.2374C22.5465 20.9284 22.6589 20.5527 22.7067 20.1972C22.7516 19.8633 22.75 19.4502 22.75 19H21.25ZM5 20.25C4.03599 20.25 3.38843 20.2484 2.90539 20.1835C2.44393 20.1214 2.24644 20.0142 2.11612 19.8839L1.05546 20.9445C1.51093 21.4 2.07773 21.5857 2.70552 21.6701C3.31174 21.7516 4.0784 21.75 5 21.75V20.25ZM0.250002 17C0.250002 17.9216 0.248409 18.6883 0.329912 19.2945C0.414318 19.9223 0.599989 20.4891 1.05546 20.9445L2.11612 19.8839C1.9858 19.7536 1.87858 19.5561 1.81654 19.0946C1.75159 18.6116 1.75 17.964 1.75 17H0.250002ZM0.250002 3.94118C0.250002 5.97976 1.9026 7.63235 3.94118 7.63235V6.13235C2.73103 6.13235 1.75 5.15133 1.75 3.94118H0.250002ZM18 2.75C18.1206 2.75 18.2135 2.75005 18.2927 2.75205C18.3724 2.75406 18.4197 2.75772 18.4487 2.76162C18.4772 2.76545 18.4676 2.76701 18.4393 2.75538C18.4051 2.74128 18.3621 2.71562 18.3232 2.67678L19.3839 1.61612C19.1481 1.38032 18.8679 1.30448 18.6486 1.27499C18.4508 1.24841 18.2145 1.25 18 1.25V2.75ZM19.75 3C19.75 2.7855 19.7516 2.54918 19.725 2.35143C19.6955 2.1321 19.6197 1.85192 19.3839 1.61612L18.3232 2.67678C18.2844 2.63793 18.2587 2.59492 18.2446 2.56066C18.233 2.53238 18.2346 2.52282 18.2384 2.5513C18.2423 2.58026 18.2459 2.62762 18.248 2.70727C18.25 2.78654 18.25 2.87936 18.25 3H19.75ZM1.75 3.94118C1.75 3.28331 2.28331 2.75 2.94118 2.75V1.25C1.45488 1.25 0.250002 2.45488 0.250002 3.94118H1.75Z" fill="#9C9C9C"/>
</svg>
