<svg width="46" height="46" viewBox="0 0 46 46" fill="none" xmlns="http://www.w3.org/2000/svg">
<rect opacity="0.05" width="46" height="46" rx="5" fill="#59D7AB"/>
<path d="M28.9938 24.7311L28.8811 24.6183C28.3648 24.1016 28.0118 23.7483 27.609 23.5611C26.9409 23.2507 26.17 23.2507 25.5019 23.5611C25.0991 23.7483 24.7461 24.1016 24.2298 24.6183L24.1567 24.6915C23.9443 24.9039 23.8027 25.0452 23.6888 25.1446C23.575 25.2439 23.5264 25.2671 23.5087 25.2736C23.3353 25.3369 23.1411 25.2995 23.0035 25.1763C22.9895 25.1637 22.953 25.1241 22.8843 24.9897C22.8154 24.8551 22.7364 24.6713 22.618 24.3952L22.5618 24.264C22.2954 23.6423 22.0835 23.1479 21.8849 22.7708C21.6837 22.3889 21.4694 22.073 21.1736 21.8476C20.5517 21.3738 19.7439 21.2183 18.9906 21.4272C18.6321 21.5266 18.3159 21.7403 17.9873 22.0201C17.7082 22.2578 17.3879 22.5723 16.9995 22.9599L16.9995 22.9999C16.9995 23.5006 16.9998 23.9556 17.0024 24.3712L17.4956 23.878C17.9931 23.3805 18.3453 23.0288 18.6357 22.7814C18.9255 22.5346 19.1087 22.4321 19.2578 22.3908C19.7098 22.2655 20.1944 22.3588 20.5676 22.6431C20.6906 22.7368 20.8227 22.8999 21.0001 23.2368C21.1779 23.5743 21.3743 24.0316 21.6514 24.6783L21.7057 24.8049C21.8155 25.0611 21.9078 25.2764 21.9939 25.4449C22.0819 25.6171 22.1855 25.786 22.3362 25.921C22.7487 26.2907 23.3314 26.4029 23.8517 26.2129C24.0418 26.1435 24.2007 26.0251 24.3464 25.898C24.4889 25.7735 24.6546 25.6078 24.8517 25.4107L24.8638 25.3986C25.4822 24.7802 25.7028 24.5705 25.9233 24.468C26.3242 24.2817 26.7867 24.2817 27.1876 24.468C27.4081 24.5705 27.6287 24.7802 28.2471 25.3986L28.9578 26.1093C28.9779 25.7069 28.9884 25.2522 28.9938 24.7311Z" fill="#59D7AB"/>
<path d="M27 20.3333C27.7364 20.3333 28.3333 19.7364 28.3333 19C28.3333 18.2636 27.7364 17.6667 27 17.6667C26.2636 17.6667 25.6667 18.2636 25.6667 19C25.6667 19.7364 26.2636 20.3333 27 20.3333Z" fill="#59D7AB"/>
<path fill-rule="evenodd" clip-rule="evenodd" d="M22.9613 14.5C21.1085 14.5 19.6668 14.5 18.5443 14.6509C17.3996 14.8048 16.5122 15.1238 15.818 15.818C15.1238 16.5122 14.8048 17.3996 14.6509 18.5443C14.5 19.6668 14.5 21.1085 14.5 22.9613V23.0387C14.5 24.8915 14.5 26.3332 14.6509 27.4557C14.8048 28.6004 15.1238 29.4878 15.818 30.182C16.5122 30.8762 17.3996 31.1952 18.5443 31.3491C19.6668 31.5 21.1085 31.5 22.9613 31.5H23.0387C24.8915 31.5 26.3332 31.5 27.4557 31.3491C28.6004 31.1952 29.4878 30.8762 30.182 30.182C30.8762 29.4878 31.1952 28.6004 31.3491 27.4557C31.5 26.3332 31.5 24.8915 31.5 23.0387V22.9613C31.5 21.1085 31.5 19.6668 31.3491 18.5443C31.1952 17.3996 30.8762 16.5122 30.182 15.818C29.4878 15.1238 28.6004 14.8048 27.4557 14.6509C26.3332 14.5 24.8915 14.5 23.0387 14.5H22.9613ZM16.5251 16.5251C17.0025 16.0477 17.6437 15.781 18.6775 15.642C19.7257 15.5011 21.1002 15.5 23 15.5C24.8998 15.5 26.2743 15.5011 27.3225 15.642C28.3563 15.781 28.9975 16.0477 29.4749 16.5251C29.9523 17.0025 30.219 17.6437 30.358 18.6775C30.4989 19.7257 30.5 21.1002 30.5 23C30.5 24.8998 30.4989 26.2743 30.358 27.3225C30.219 28.3563 29.9523 28.9975 29.4749 29.4749C28.9975 29.9523 28.3563 30.219 27.3225 30.358C26.2743 30.4989 24.8998 30.5 23 30.5C21.1002 30.5 19.7257 30.4989 18.6775 30.358C17.6437 30.219 17.0025 29.9523 16.5251 29.4749C16.0477 28.9975 15.781 28.3563 15.642 27.3225C15.5011 26.2743 15.5 24.8998 15.5 23C15.5 21.1002 15.5011 19.7257 15.642 18.6775C15.781 17.6437 16.0477 17.0025 16.5251 16.5251Z" fill="#59D7AB"/>
<path fill-rule="evenodd" clip-rule="evenodd" d="M23 7.5C14.4396 7.5 7.5 14.4396 7.5 23C7.5 31.5604 14.4396 38.5 23 38.5C31.5604 38.5 38.5 31.5604 38.5 23C38.5 14.4396 31.5604 7.5 23 7.5ZM8.5 23C8.5 14.9919 14.9919 8.5 23 8.5C31.0081 8.5 37.5 14.9919 37.5 23C37.5 31.0081 31.0081 37.5 23 37.5C14.9919 37.5 8.5 31.0081 8.5 23Z" fill="#59D7AB"/>
</svg>
