<svg width="24" height="24" viewBox="0 0 24 24" fill="none" xmlns="http://www.w3.org/2000/svg">
<path d="M14.3501 2.49755L15.0964 2.42292V2.42292L14.3501 2.49755ZM14.1278 1.44588L13.5035 1.86147V1.86147L14.1278 1.44588ZM14.7819 4.35502L14.2672 4.90054L14.2672 4.90054L14.7819 4.35502ZM15.439 4.62724L15.4173 5.37692L15.439 4.62724ZM17.0576 3.6192L17.5326 4.19967L17.5326 4.19966L17.0576 3.6192ZM17.9582 3.03289L17.8106 2.29757L17.8106 2.29757L17.9582 3.03289ZM18.4486 3.05735L18.2285 3.77432L18.2285 3.77432L18.4486 3.05735ZM19.2864 3.73034L18.756 4.26067L18.7676 4.27219L18.7796 4.28321L19.2864 3.73034ZM19.2864 3.73036L19.8167 3.20003L19.8052 3.1885L19.7932 3.17749L19.2864 3.73036ZM20.2694 4.71338L19.7391 5.24371L20.2694 4.71338ZM20.9426 5.55138L21.6596 5.33137L21.6596 5.33136L20.9426 5.55138ZM20.967 6.04151L20.2317 5.89393L20.967 6.04151ZM20.3806 6.94234L20.961 7.41727L20.961 7.41727L20.3806 6.94234ZM19.3723 8.56136L20.122 8.53943V8.53942L19.3723 8.56136ZM19.6444 9.21824L20.19 8.70365L20.19 8.70365L19.6444 9.21824ZM21.5023 9.65014L21.577 8.90386H21.577L21.5023 9.65014ZM22.5542 9.87252L22.1385 10.4968L22.1386 10.4968L22.5542 9.87252ZM22.8834 10.2363L22.2208 10.5877L22.2208 10.5877L22.8834 10.2363ZM22.8836 13.7632L23.5463 14.1144L23.5463 14.1143L22.8836 13.7632ZM22.5538 14.1275L22.1385 13.5031L22.1385 13.5031L22.5538 14.1275ZM21.5029 14.3496L21.4283 13.6033H21.4283L21.5029 14.3496ZM19.6465 14.781L19.1011 14.2661L19.6465 14.781ZM19.374 15.4388L20.1237 15.4604V15.4604L19.374 15.4388ZM20.3821 17.0571L19.8016 17.532L20.3821 17.0571ZM20.9687 17.9581L21.704 17.8106V17.8105L20.9687 17.9581ZM20.9442 18.4483L20.2272 18.2282V18.2282L20.9442 18.4483ZM20.2711 19.2863L20.8014 19.8166L20.8014 19.8166L20.2711 19.2863ZM19.2885 20.2688L18.7582 19.7385L18.7582 19.7385L19.2885 20.2688ZM18.4498 20.9425L18.23 20.2254L18.4498 20.9425ZM17.9604 20.9669L17.8131 21.7023L17.8131 21.7023L17.9604 20.9669ZM17.0588 20.38L17.5337 19.7996H17.5337L17.0588 20.38ZM15.4385 19.3712L15.4608 20.1209H15.4608L15.4385 19.3712ZM14.7826 19.6429L14.2683 19.097L14.2683 19.097L14.7826 19.6429ZM14.1276 22.5545L14.7517 22.9703L14.7517 22.9703L14.1276 22.5545ZM13.7643 22.8832L14.116 23.5457H14.116L13.7643 22.8832ZM10.2366 22.8834L9.88511 23.5459L9.88512 23.5459L10.2366 22.8834ZM9.87301 22.5543L10.4973 22.1386L9.87301 22.5543ZM9.65059 21.5023L10.3969 21.4277L9.65059 21.5023ZM9.21849 19.644L9.73296 19.0983L9.73296 19.0983L9.21849 19.644ZM8.56201 19.3721L8.58412 18.6224H8.58411L8.56201 19.3721ZM6.94232 20.3806L6.4674 19.8002L6.46739 19.8002L6.94232 20.3806ZM6.04095 20.9674L5.89355 20.232L5.89355 20.232L6.04095 20.9674ZM5.55131 20.943L5.33147 21.66H5.33147L5.55131 20.943ZM4.71284 20.2695L4.18251 20.7998H4.18251L4.71284 20.2695ZM3.73026 19.2869L4.26059 18.7566L3.73026 19.2869ZM3.05695 18.4487L3.77399 18.2288L3.77399 18.2288L3.05695 18.4487ZM3.03252 17.9588L3.76788 18.1063L3.76788 18.1063L3.03252 17.9588ZM3.61912 17.0577L4.19959 17.5326H4.19959L3.61912 17.0577ZM4.62752 15.4384L5.3772 15.4164L4.62752 15.4384ZM4.35548 14.7816L3.80983 15.2962L3.80983 15.2962L4.35548 14.7816ZM2.49756 14.3497L2.42294 15.0959H2.42294L2.49756 14.3497ZM1.44582 14.1273L1.03018 14.7516L1.03018 14.7516L1.44582 14.1273ZM1.11659 13.7635L1.77915 13.4121H1.77915L1.11659 13.7635ZM1.1168 10.2359L0.454401 9.88415L0.454401 9.88415L1.1168 10.2359ZM1.44545 9.87275L1.86136 10.4969H1.86136L1.44545 9.87275ZM2.49841 9.65007L2.42378 8.90379H2.42378L2.49841 9.65007ZM4.35723 9.21795L4.90294 9.73244L4.90294 9.73243L4.35723 9.21795ZM4.62918 8.5614L3.87951 8.53932V8.53932L4.62918 8.5614ZM3.62074 6.94193L3.04027 7.41685L3.62074 6.94193ZM3.03418 6.04084L3.76954 5.89336L3.76954 5.89336L3.03418 6.04084ZM3.05862 5.55097L3.77565 5.77089V5.77089L3.05862 5.55097ZM3.73192 4.71272L4.26225 5.24305L3.73192 4.71272ZM4.71495 3.72969L4.18462 3.19936V3.19936L4.71495 3.72969ZM4.71495 3.72969L4.18462 3.19936H4.18462L4.71495 3.72969ZM5.55248 3.05685L5.33227 2.3399L5.33227 2.3399L5.55248 3.05685ZM6.04311 3.03238L6.19089 2.29708L6.19089 2.29708L6.04311 3.03238ZM6.94343 3.61855L7.41836 3.03808L6.94343 3.61855ZM8.56155 4.62637L8.53991 3.87668H8.53991L8.56155 4.62637ZM9.2191 4.354L9.73391 4.89941V4.89941L9.2191 4.354ZM9.65064 2.49718L10.3969 2.57181V2.57181L9.65064 2.49718ZM9.87278 1.44608L9.24835 1.03063L9.24835 1.03064L9.87278 1.44608ZM10.237 1.11645L9.88577 0.453781L9.88577 0.453782L10.237 1.11645ZM13.7639 1.11656L14.1153 0.453974L14.1153 0.453973L13.7639 1.11656ZM15.0964 2.42292C15.0695 2.15433 15.0453 1.90554 15.0066 1.69975C14.966 1.48343 14.8992 1.25127 14.7521 1.03029L13.5035 1.86147C13.4942 1.84758 13.5105 1.85972 13.5324 1.9767C13.5564 2.10421 13.5744 2.27772 13.6038 2.57218L15.0964 2.42292ZM15.2965 3.8095C15.3352 3.84596 15.292 3.84152 15.2392 3.58137C15.1879 3.32837 15.1514 2.97309 15.0964 2.42292L13.6038 2.57218C13.6556 3.08948 13.6992 3.5348 13.7691 3.8796C13.8376 4.21725 13.9569 4.60781 14.2672 4.90054L15.2965 3.8095ZM15.4608 3.87756C15.3996 3.87578 15.3411 3.85156 15.2965 3.8095L14.2672 4.90054C14.5792 5.19493 14.9885 5.36446 15.4173 5.37692L15.4608 3.87756ZM16.5827 3.03873C16.1548 3.38882 15.8779 3.61424 15.6627 3.75683C15.4415 3.90344 15.4078 3.87601 15.4608 3.87756L15.4173 5.37692C15.8436 5.38932 16.2041 5.19751 16.4913 5.0072C16.7845 4.81287 17.1302 4.52884 17.5326 4.19967L16.5827 3.03873ZM17.8106 2.29757C17.5504 2.34983 17.339 2.46675 17.1574 2.59095C16.9846 2.7091 16.7916 2.86785 16.5827 3.03873L17.5326 4.19966C17.7615 4.01232 17.8969 3.9024 18.004 3.8292C18.1022 3.76204 18.1223 3.76493 18.1059 3.76821L17.8106 2.29757ZM18.6687 2.34037C18.3907 2.25501 18.0957 2.24031 17.8106 2.29757L18.1059 3.76821C18.1466 3.76003 18.1888 3.76213 18.2285 3.77432L18.6687 2.34037ZM19.8167 3.20001C19.6259 3.0092 19.4496 2.83204 19.2895 2.69728C19.1211 2.55562 18.9224 2.41826 18.6687 2.34037L18.2285 3.77432C18.2126 3.76943 18.2328 3.76856 18.3238 3.84515C18.4231 3.92864 18.5469 4.05148 18.756 4.26067L19.8167 3.20001ZM19.7932 3.17749L19.7932 3.17748L18.7796 4.28321L18.7796 4.28322L19.7932 3.17749ZM20.7997 4.18305L19.8167 3.20003L18.7561 4.26069L19.7391 5.24371L20.7997 4.18305ZM21.6596 5.33136C21.5817 5.07758 21.4443 4.87888 21.3026 4.71044C21.1678 4.5502 20.9906 4.37391 20.7997 4.18305L19.7391 5.24371C19.9483 5.45296 20.0712 5.57675 20.1547 5.67603C20.2313 5.7671 20.2305 5.78735 20.2256 5.7714L21.6596 5.33136ZM21.7023 6.1891C21.7595 5.90407 21.7448 5.60929 21.6596 5.33137L20.2256 5.7714C20.2377 5.8111 20.2398 5.85322 20.2317 5.89393L21.7023 6.1891ZM20.961 7.41727C21.132 7.20836 21.2908 7.01531 21.4089 6.84246C21.5332 6.66075 21.6501 6.44937 21.7023 6.1891L20.2317 5.89393C20.235 5.87758 20.2378 5.89764 20.1707 5.99588C20.0975 6.10298 19.9875 6.23838 19.8001 6.46741L20.961 7.41727ZM20.122 8.53942C20.1236 8.59252 20.0961 8.55882 20.2428 8.33752C20.3854 8.1223 20.6109 7.84527 20.961 7.41727L19.8001 6.46741C19.4709 6.86984 19.1868 7.21563 18.9924 7.50896C18.802 7.79622 18.6102 8.15681 18.6227 8.58329L20.122 8.53942ZM20.19 8.70365C20.148 8.65909 20.1238 8.60065 20.122 8.53943L18.6227 8.58329C18.6352 9.01186 18.8046 9.42092 19.0988 9.73284L20.19 8.70365ZM21.577 8.90386C21.0266 8.84883 20.6713 8.81238 20.4182 8.76103C20.158 8.70824 20.1536 8.66499 20.19 8.70365L19.0988 9.73284C19.3916 10.0432 19.7822 10.1626 20.12 10.2311C20.4648 10.3011 20.9103 10.3447 21.4277 10.3964L21.577 8.90386ZM22.9699 9.24824C22.7489 9.10109 22.5166 9.03429 22.3003 8.99364C22.0944 8.95496 21.8456 8.93073 21.577 8.90386L21.4277 10.3964C21.7222 10.4259 21.8958 10.4439 22.0233 10.4678C22.1403 10.4898 22.1524 10.5061 22.1385 10.4968L22.9699 9.24824ZM23.5459 9.88479C23.4097 9.62806 23.2118 9.4093 22.9699 9.24824L22.1386 10.4968C22.1731 10.5198 22.2014 10.5511 22.2208 10.5877L23.5459 9.88479ZM23.75 11.305C23.75 11.035 23.7506 10.785 23.7326 10.5764C23.7137 10.357 23.6704 10.1193 23.5459 9.88478L22.2208 10.5877C22.213 10.573 22.228 10.5867 22.2382 10.7053C22.2494 10.8346 22.25 11.009 22.25 11.305H23.75ZM23.75 12.6954V11.305H22.25V12.6954H23.75ZM23.5463 14.1143C23.6705 13.88 23.7138 13.6425 23.7327 13.4233C23.7506 13.2149 23.75 12.9651 23.75 12.6954H22.25C22.25 12.9911 22.2494 13.1654 22.2382 13.2945C22.228 13.413 22.2131 13.4267 22.2209 13.412L23.5463 14.1143ZM22.9692 14.752C23.2116 14.5908 23.41 14.3716 23.5463 14.1144L22.2209 13.412C22.2014 13.4487 22.1731 13.48 22.1385 13.5031L22.9692 14.752ZM21.5776 15.0959C21.8459 15.0691 22.0945 15.0448 22.3002 15.0062C22.5164 14.9656 22.7484 14.8989 22.9692 14.752L22.1385 13.5031C22.1523 13.4938 22.1402 13.51 22.0233 13.532C21.8959 13.5559 21.7225 13.5739 21.4283 13.6033L21.5776 15.0959ZM20.1918 15.2959C20.1554 15.3345 20.1598 15.2913 20.4198 15.2386C20.6727 15.1873 21.0277 15.1509 21.5776 15.0959L21.4283 13.6033C20.9113 13.655 20.4663 13.6986 20.1216 13.7685C19.7842 13.837 19.3938 13.9562 19.1011 14.2661L20.1918 15.2959ZM20.1237 15.4604C20.1254 15.399 20.1497 15.3405 20.1918 15.2959L19.1011 14.2661C18.8063 14.5784 18.6366 14.9881 18.6243 15.4173L20.1237 15.4604ZM20.9625 16.5821C20.6125 16.1543 20.3871 15.8774 20.2445 15.6622C20.0978 15.441 20.1252 15.4072 20.1237 15.4604L18.6243 15.4173C18.6121 15.8435 18.8039 16.2039 18.9942 16.4909C19.1885 16.7841 19.4724 17.1297 19.8016 17.532L20.9625 16.5821ZM21.704 17.8105C21.6518 17.5502 21.5348 17.3388 21.4105 17.1571C21.2923 16.9842 21.1335 16.7911 20.9625 16.5821L19.8016 17.532C19.989 17.7611 20.099 17.8966 20.1723 18.0037C20.2395 18.102 20.2366 18.1221 20.2333 18.1057L21.704 17.8105ZM21.6612 18.6683C21.7465 18.3904 21.7612 18.0956 21.704 17.8106L20.2333 18.1057C20.2415 18.1464 20.2394 18.1885 20.2272 18.2282L21.6612 18.6683ZM20.8014 19.8166C20.9923 19.6257 21.1695 19.4494 21.3043 19.2892C21.446 19.1208 21.5833 18.9221 21.6612 18.6683L20.2272 18.2282C20.2321 18.2123 20.233 18.2325 20.1564 18.3236C20.0729 18.4229 19.95 18.5467 19.7407 18.7559L20.8014 19.8166ZM19.8188 20.7992L20.8014 19.8166L19.7407 18.7559L18.7582 19.7385L19.8188 20.7992ZM18.6695 21.6595C18.9235 21.5817 19.1224 21.4442 19.291 21.3024C19.4514 21.1675 19.6278 20.9902 19.8188 20.7992L18.7582 19.7385C18.5487 19.9479 18.4249 20.0709 18.3255 20.1545C18.2343 20.2311 18.2141 20.2303 18.23 20.2254L18.6695 21.6595ZM17.8131 21.7023C18.0977 21.7593 18.392 21.7446 18.6695 21.6595L18.23 20.2254C18.1904 20.2375 18.1484 20.2396 18.1077 20.2315L17.8131 21.7023ZM16.5839 20.9605C16.793 21.1316 16.9862 21.2905 17.1592 21.4088C17.341 21.5331 17.5526 21.6501 17.8131 21.7023L18.1077 20.2315C18.1241 20.2347 18.104 20.2376 18.0057 20.1704C17.8985 20.0972 17.763 19.9871 17.5337 19.7996L16.5839 20.9605ZM15.4608 20.1209C15.4077 20.1224 15.4414 20.0949 15.6629 20.2417C15.8783 20.3844 16.1555 20.61 16.5839 20.9605L17.5337 19.7996C17.131 19.4701 16.7849 19.1857 16.4913 18.9912C16.2038 18.8007 15.8429 18.6088 15.4161 18.6215L15.4608 20.1209ZM15.2968 20.1888C15.3414 20.1469 15.3997 20.1227 15.4608 20.1209L15.4161 18.6215C14.9882 18.6343 14.5799 18.8034 14.2683 19.097L15.2968 20.1888ZM15.0964 21.5766C15.1515 21.0259 15.188 20.6703 15.2394 20.4171C15.2922 20.1567 15.3355 20.1523 15.2968 20.1888L14.2683 19.097C13.9575 19.3898 13.838 19.7807 13.7694 20.1187C13.6993 20.4638 13.6557 20.9096 13.6039 21.4274L15.0964 21.5766ZM14.7517 22.9703C14.899 22.7492 14.9659 22.5169 15.0066 22.3004C15.0453 22.0944 15.0696 21.8454 15.0964 21.5766L13.6039 21.4274C13.5744 21.7221 13.5564 21.8957 13.5324 22.0233C13.5104 22.1404 13.4942 22.1525 13.5034 22.1386L14.7517 22.9703ZM14.116 23.5457C14.3723 23.4096 14.5908 23.2119 14.7517 22.9703L13.5034 22.1386C13.4804 22.1731 13.4492 22.2014 13.4126 22.2208L14.116 23.5457ZM12.6949 23.75C12.965 23.75 13.2152 23.7506 13.424 23.7326C13.6435 23.7137 13.8813 23.6703 14.116 23.5457L13.4126 22.2208C13.4273 22.213 13.4136 22.2279 13.295 22.2382C13.1656 22.2494 12.9911 22.25 12.6949 22.25V23.75ZM11.3055 23.75H12.6949V22.25H11.3055V23.75ZM9.88512 23.5459C10.1197 23.6703 10.3574 23.7137 10.5768 23.7326C10.7855 23.7506 11.0355 23.75 11.3055 23.75V22.25C11.0095 22.25 10.835 22.2494 10.7057 22.2382C10.5871 22.228 10.5734 22.213 10.5882 22.2208L9.88512 23.5459ZM9.24876 22.97C9.40979 23.2118 9.62848 23.4097 9.88511 23.5459L10.5882 22.2208C10.5515 22.2014 10.5203 22.1731 10.4973 22.1386L9.24876 22.97ZM8.90431 21.5769C8.93118 21.8456 8.95541 22.0945 8.99409 22.3003C9.03475 22.5167 9.10157 22.749 9.24876 22.97L10.4973 22.1386C10.5065 22.1525 10.4903 22.1403 10.4683 22.0233C10.4443 21.8958 10.4263 21.7222 10.3969 21.4277L8.90431 21.5769ZM8.70402 20.1897C8.66536 20.1533 8.70862 20.1577 8.76143 20.4179C8.8128 20.671 8.84927 21.0265 8.90431 21.5769L10.3969 21.4277C10.3451 20.9101 10.3015 20.4646 10.2315 20.1196C10.1629 19.7818 10.0435 19.391 9.73296 19.0983L8.70402 20.1897ZM8.5399 20.1217C8.60109 20.1235 8.65948 20.1477 8.70402 20.1897L9.73296 19.0983C9.42118 18.8043 9.01241 18.635 8.58412 18.6224L8.5399 20.1217ZM7.41725 20.9611C7.84543 20.6108 8.12259 20.3852 8.33791 20.2425C8.55931 20.0958 8.59303 20.1233 8.5399 20.1217L8.58411 18.6224C8.15748 18.6098 7.79675 18.8017 7.50938 18.9921C7.21593 19.1866 6.87 19.4708 6.4674 19.8002L7.41725 20.9611ZM6.18834 21.7027C6.44877 21.6505 6.66029 21.5336 6.84209 21.4093C7.01505 21.291 7.20821 21.1322 7.41725 20.9611L6.46739 19.8002C6.23822 19.9877 6.10273 20.0977 5.99556 20.171C5.89725 20.2382 5.87718 20.2353 5.89355 20.232L6.18834 21.7027ZM5.33147 21.66C5.60912 21.7451 5.9036 21.7598 6.18834 21.7027L5.89355 20.232C5.85287 20.2402 5.81081 20.2381 5.77114 20.2259L5.33147 21.66ZM4.18251 20.7998C4.37347 20.9908 4.54986 21.1681 4.71018 21.303C4.87872 21.4447 5.07753 21.5822 5.33147 21.66L5.77114 20.2259C5.7871 20.2308 5.76684 20.2317 5.67572 20.155C5.57639 20.0715 5.45252 19.9485 5.24317 19.7392L4.18251 20.7998ZM3.19993 19.8173L4.18251 20.7998L5.24317 19.7392L4.26059 18.7566L3.19993 19.8173ZM2.33992 18.6686C2.41779 18.9225 2.55521 19.1212 2.69693 19.2897C2.83176 19.45 3.00901 19.6263 3.19993 19.8173L4.26059 18.7566C4.05128 18.5473 3.92837 18.4235 3.84484 18.3242C3.76821 18.2331 3.76909 18.2128 3.77399 18.2288L2.33992 18.6686ZM2.29717 17.8113C2.24003 18.0962 2.25472 18.3908 2.33992 18.6686L3.77399 18.2288C3.76181 18.1891 3.75972 18.147 3.76788 18.1063L2.29717 17.8113ZM3.03865 16.5827C2.86766 16.7917 2.70883 16.9848 2.59061 17.1577C2.46635 17.3395 2.34938 17.551 2.29717 17.8113L3.76788 18.1063C3.7646 18.1227 3.7617 18.1026 3.8289 18.0043C3.90214 17.8972 4.01213 17.7617 4.19959 17.5326L3.03865 16.5827ZM3.87784 15.4604C3.87628 15.4072 3.90374 15.441 3.75706 15.6623C3.61442 15.8776 3.3889 16.1547 3.03865 16.5827L4.19959 17.5326C4.52891 17.1301 4.81306 16.7842 5.00746 16.4909C5.19783 16.2036 5.38971 15.8429 5.3772 15.4164L3.87784 15.4604ZM3.80983 15.2962C3.85185 15.3407 3.87605 15.3992 3.87784 15.4604L5.3772 15.4164C5.36463 14.9879 5.19523 14.5789 4.90113 14.2671L3.80983 15.2962ZM2.42294 15.0959C2.97325 15.151 3.32861 15.1874 3.58166 15.2388C3.84186 15.2916 3.84628 15.3348 3.80983 15.2962L4.90113 14.2671C4.60838 13.9566 4.21771 13.8373 3.87996 13.7687C3.53507 13.6988 3.08962 13.6551 2.57219 13.6034L2.42294 15.0959ZM1.03018 14.7516C1.25117 14.8987 1.48336 14.9655 1.69971 15.0062C1.90552 15.0449 2.15432 15.0691 2.42294 15.0959L2.57219 13.6034C2.27771 13.5739 2.1042 13.5559 1.97668 13.532C1.85971 13.51 1.84757 13.4938 1.86145 13.503L1.03018 14.7516ZM0.454037 14.115C0.590237 14.3717 0.788244 14.5905 1.03018 14.7516L1.86145 13.503C1.82689 13.48 1.79861 13.4488 1.77915 13.4121L0.454037 14.115ZM0.25 12.6949C0.25 12.9648 0.249352 13.2148 0.267349 13.4234C0.286268 13.6428 0.329627 13.8804 0.454037 14.115L1.77915 13.4121C1.78697 13.4268 1.77203 13.4131 1.7618 13.2945C1.75065 13.1653 1.75 12.9908 1.75 12.6949H0.25ZM0.25 11.3055V12.6949H1.75V11.3055H0.25ZM0.454401 9.88415C0.329772 10.1188 0.286333 10.3567 0.26738 10.5763C0.24935 10.7851 0.25 11.0353 0.25 11.3055H1.75C1.75 11.0093 1.75065 10.8347 1.76182 10.7053C1.77207 10.5866 1.78703 10.5729 1.7792 10.5876L0.454401 9.88415ZM1.02954 9.24864C0.788108 9.40952 0.590469 9.62791 0.454401 9.88415L1.7792 10.5876C1.79864 10.551 1.82687 10.5198 1.86136 10.4969L1.02954 9.24864ZM2.42378 8.90379C2.15482 8.93069 1.90572 8.95495 1.69969 8.99367C1.48312 9.03437 1.25069 9.10126 1.02953 9.24864L1.86136 10.4969C1.84745 10.5061 1.85959 10.4899 1.97674 10.4679C2.10443 10.4439 2.27818 10.4258 2.57303 10.3963L2.42378 8.90379ZM3.81152 8.70346C3.848 8.66476 3.84359 8.70804 3.58319 8.76087C3.32998 8.81225 2.97438 8.84873 2.42378 8.90379L2.57303 10.3963C3.09077 10.3446 3.53642 10.3009 3.88146 10.2309C4.21931 10.1624 4.61014 10.043 4.90294 9.73244L3.81152 8.70346ZM3.87951 8.53932C3.87771 8.60051 3.85351 8.65891 3.81152 8.70346L4.90294 9.73243C5.1969 9.42063 5.36624 9.01181 5.37886 8.58348L3.87951 8.53932ZM3.04027 7.41685C3.39055 7.84497 3.61609 8.12208 3.75874 8.33736C3.90541 8.55872 3.87794 8.59243 3.87951 8.53932L5.37886 8.58348C5.39142 8.15688 5.19955 7.79618 5.00916 7.50884C4.81474 7.21542 4.53056 6.86954 4.20121 6.467L3.04027 7.41685ZM2.29883 6.18832C2.35104 6.44867 2.46801 6.66012 2.59226 6.84188C2.71047 7.01479 2.8693 7.20789 3.04027 7.41685L4.20121 6.467C4.01377 6.2379 3.90379 6.10246 3.83055 5.99533C3.76337 5.89706 3.76626 5.877 3.76954 5.89336L2.29883 6.18832ZM2.34158 5.33105C2.25639 5.60883 2.24169 5.90345 2.29883 6.18832L3.76954 5.89336C3.76138 5.85266 3.76348 5.81057 3.77565 5.77089L2.34158 5.33105ZM3.20159 4.18239C3.01067 4.37331 2.83342 4.54965 2.6986 4.70993C2.55687 4.87842 2.41945 5.07718 2.34158 5.33105L3.77565 5.77089C3.77076 5.78684 3.76987 5.76659 3.8465 5.67549C3.93003 5.57619 4.05295 5.45235 4.26225 5.24305L3.20159 4.18239ZM4.18462 3.19936L3.20159 4.18239L4.26225 5.24305L5.24528 4.26002L4.18462 3.19936ZM4.18462 3.19936L4.18462 3.19936L5.24528 4.26002L5.24528 4.26002L4.18462 3.19936ZM5.33227 2.3399C5.07865 2.4178 4.88007 2.55514 4.71172 2.69676C4.55158 2.83149 4.37538 3.0086 4.18462 3.19936L5.24528 4.26002C5.45442 4.05089 5.57814 3.92808 5.67736 3.8446C5.76839 3.76803 5.78862 3.76889 5.77268 3.77379L5.33227 2.3399ZM6.19089 2.29708C5.90557 2.23974 5.61046 2.25446 5.33227 2.3399L5.77268 3.77379C5.81242 3.76158 5.85458 3.75948 5.89534 3.76767L6.19089 2.29708ZM7.41836 3.03808C7.20957 2.86724 7.01662 2.70855 6.84387 2.59042C6.66227 2.46625 6.451 2.34935 6.19089 2.29708L5.89534 3.76767C5.87899 3.76439 5.89904 3.76151 5.99723 3.82865C6.10427 3.90184 6.2396 4.01173 6.46851 4.19901L7.41836 3.03808ZM8.53991 3.87668C8.59298 3.87515 8.55928 3.90255 8.3381 3.75597C8.123 3.61342 7.84612 3.38806 7.41836 3.03808L6.46851 4.19901C6.87071 4.52809 7.21631 4.81203 7.50948 5.00632C7.79658 5.19658 8.15695 5.38836 8.58319 5.37606L8.53991 3.87668ZM8.70429 3.80859C8.6597 3.85068 8.6012 3.87491 8.53991 3.87668L8.58319 5.37606C9.01224 5.36367 9.42177 5.19404 9.73391 4.89941L8.70429 3.80859ZM8.90436 2.42256C8.84937 2.97251 8.81293 3.32764 8.76163 3.58054C8.70888 3.84058 8.66568 3.84504 8.70429 3.80859L9.73391 4.89941C10.044 4.60672 10.1632 4.21629 10.2317 3.87875C10.3016 3.53406 10.3452 3.08891 10.3969 2.57181L8.90436 2.42256ZM9.24835 1.03064C9.10139 1.25153 9.03466 1.48358 8.99405 1.69979C8.95542 1.90547 8.93121 2.15412 8.90436 2.42256L10.3969 2.57181C10.4263 2.27752 10.4443 2.10412 10.4683 1.97669C10.4902 1.85978 10.5064 1.84764 10.4972 1.86152L9.24835 1.03064ZM9.88577 0.453782C9.62864 0.590075 9.40955 0.788341 9.24835 1.03063L10.4972 1.86152C10.5202 1.82691 10.5515 1.79858 10.5883 1.77911L9.88577 0.453782ZM11.305 0.25C11.0352 0.25 10.7854 0.249352 10.5769 0.267327C10.3577 0.286222 10.1202 0.329525 9.88577 0.453781L10.5883 1.77911C10.5735 1.78692 10.5872 1.772 10.7057 1.76178C10.8349 1.75065 11.0092 1.75 11.305 1.75V0.25ZM12.6954 0.25H11.305V1.75H12.6954V0.25ZM14.1153 0.453973C13.8808 0.329602 13.6432 0.286257 13.4239 0.267344C13.2153 0.249352 12.9653 0.25 12.6954 0.25V1.75C12.9913 1.75 13.1657 1.75065 13.295 1.7618C13.4135 1.77202 13.4272 1.78695 13.4125 1.77914L14.1153 0.453973ZM14.7521 1.03029C14.591 0.788269 14.3722 0.590197 14.1153 0.453974L13.4125 1.77914C13.4492 1.7986 13.4805 1.8269 13.5035 1.86147L14.7521 1.03029ZM15.6493 12C15.6493 14.0158 14.0151 15.65 11.9993 15.65V17.15C14.8435 17.15 17.1493 14.8442 17.1493 12H15.6493ZM11.9993 8.34996C14.0151 8.34996 15.6493 9.98412 15.6493 12H17.1493C17.1493 9.15569 14.8435 6.84996 11.9993 6.84996V8.34996ZM8.34928 12C8.34928 9.98412 9.98344 8.34996 11.9993 8.34996V6.84996C9.15502 6.84996 6.84928 9.15569 6.84928 12H8.34928ZM11.9993 15.65C9.98345 15.65 8.34928 14.0158 8.34928 12H6.84928C6.84928 14.8442 9.15502 17.15 11.9993 17.15V15.65Z" fill="#7D7D7D" fill-opacity="0.76"/>
</svg>
