<svg width="24" height="20" viewBox="0 0 24 20" fill="none" xmlns="http://www.w3.org/2000/svg">
<path d="M8.71471 5.69211L8.71517 5.69237L16.6734 10.1121L16.6737 10.1123C16.7501 10.1547 16.7996 10.2038 16.8261 10.2422C16.8389 10.2607 16.8449 10.2747 16.8477 10.2829C16.8502 10.2905 16.8502 10.2941 16.8502 10.2946V10.2946V10.2946C16.8502 10.2952 16.8502 10.2987 16.8477 10.3064C16.8449 10.3146 16.8389 10.3285 16.8261 10.347C16.7997 10.3855 16.7501 10.4346 16.6737 10.477L16.6734 10.4771L8.71517 14.8969L8.71476 14.8971C8.51267 15.0096 8.23966 14.9866 8.07307 14.8611L8.07299 14.861C7.99751 14.8042 7.96657 14.7444 7.95581 14.7016C7.9455 14.6607 7.9481 14.616 7.97434 14.5657L7.98708 14.5413L7.99799 14.516L9.46428 11.1191C9.46759 11.1114 9.47621 11.0924 9.48778 11.067C9.51942 10.9974 9.57312 10.8792 9.60044 10.8112C9.63105 10.735 9.71475 10.5236 9.71475 10.297C9.71475 10.1261 9.68324 9.98588 9.63147 9.85271C9.61185 9.80223 9.58978 9.75427 9.57543 9.72309L9.57427 9.72056L9.57093 9.71332C9.55586 9.68058 9.54261 9.65178 9.52756 9.61681C9.45543 9.44918 8.33341 6.85024 8.05853 6.21352C8.02325 6.13182 8.00386 6.09126 7.99087 6.0641C7.97719 6.03548 7.97061 6.02172 7.96005 5.99035C7.94683 5.95111 7.94694 5.91233 7.96019 5.87276C7.9737 5.83243 8.00547 5.7791 8.07303 5.72822L8.07304 5.72821C8.23971 5.60268 8.51272 5.57975 8.71471 5.69211Z" stroke="#9C9C9C" stroke-width="1.5"/>
<rect x="0.75" y="0.75" width="22.5" height="18.5" rx="3.42391" stroke="#9C9C9C" stroke-width="1.5"/>
</svg>
