<svg width="46" height="46" viewBox="0 0 46 46" fill="none" xmlns="http://www.w3.org/2000/svg">
<rect opacity="0.05" width="46" height="46" rx="5" fill="#FFD75E"/>
<circle cx="23" cy="23" r="15" stroke="#FFD75E"/>
<path d="M19.5 26H16.7525C16.518 26 16.4008 26 16.302 26.0098C15.354 26.1041 14.6041 26.854 14.5098 27.802C14.5 27.9008 14.5 28.018 14.5 28.2525V28.2525C14.5 28.5322 14.5 28.6721 14.5124 28.7831C14.6332 29.8608 15.5909 30.646 16.6714 30.553C16.7827 30.5435 16.9199 30.516 17.1942 30.4612L17.4903 30.4019C17.8708 30.3258 18.061 30.2878 18.2215 30.2257C18.8765 29.9724 19.3506 29.394 19.4706 28.7021C19.5 28.5325 19.5 28.3385 19.5 27.9505V19.2792C19.5 17.7095 19.5 16.9246 19.9533 16.3716C20.4066 15.8187 21.1763 15.6647 22.7155 15.3569L24.7155 14.9569C26.9291 14.5142 28.036 14.2928 28.768 14.8929C29.5 15.493 29.5 16.6218 29.5 18.8792V19M29.5 24V25.9505C29.5 26.3385 29.5 26.5325 29.4706 26.7021C29.3506 27.394 28.8765 27.9724 28.2215 28.2257C28.061 28.2878 27.8708 28.3258 27.4903 28.4019L27.1942 28.4612C26.9199 28.516 26.7827 28.5435 26.6714 28.553C25.5909 28.646 24.6332 27.8608 24.5124 26.7831C24.5 26.6721 24.5 26.5322 24.5 26.2525V26.2525C24.5 26.018 24.5 25.9008 24.5098 25.802C24.6041 24.854 25.354 24.1041 26.302 24.0098C26.4008 24 26.518 24 26.7525 24H29.5ZM29.5 24V19M29.5 19L19.5 21" stroke="#FFD75E"/>
</svg>
