<svg width="197" height="45" viewBox="0 0 197 45" fill="none" xmlns="http://www.w3.org/2000/svg">
<path d="M22.7242 2.5L20.954 1.2976C19.8008 0.514333 18.2864 0.514333 17.1332 1.2976L1.48962 11.9233C0.557847 12.5562 0 13.6094 0 14.7358V30.2642C0 31.3906 0.557848 32.4438 1.48962 33.0767L17.1332 43.7024C18.2864 44.4857 19.8008 44.4857 20.954 43.7024L21.1111 43.5957V23.5957L33.766 15L33.7778 14.992V15.008V19.992V20.008V24.992V25.008V29.992V30.008L33.766 30L25.3333 35.7278V40.7278L36.5193 33.0776C37.4459 32.4439 38 31.3937 38 30.2711V14.3553C38 13.1215 37.3316 11.9845 36.2535 11.3845L33.766 10L16.8889 21.4636V38.5364L4.32115 30L4.22222 30.0672V29.9328V15.0672L4.32115 15L22.7242 2.5Z" fill="#64AEEA"/>
<path d="M8.44444 27.8007V17.1993L26.4048 5L30.0854 7.5L12.6667 19.3314V30.6686L8.44444 27.8007Z" fill="#64AEEA"/>
<path d="M25.3333 30.7278V25.7278L29.5556 22.8599V27.8599L25.3333 30.7278Z" fill="#64AEEA"/>
<path d="M55.53 31.18C56.89 31.18 57.88 30.95 58.5 30.49C59.12 30.03 59.43 29.38 59.43 28.54C59.43 28.04 59.32 27.61 59.1 27.25C58.9 26.89 58.6 26.57 58.2 26.29C57.82 25.99 57.35 25.72 56.79 25.48C56.23 25.22 55.59 24.97 54.87 24.73C54.15 24.47 53.45 24.19 52.77 23.89C52.11 23.57 51.52 23.18 51 22.72C50.5 22.26 50.09 21.71 49.77 21.07C49.47 20.43 49.32 19.66 49.32 18.76C49.32 16.88 49.97 15.41 51.27 14.35C52.57 13.27 54.34 12.73 56.58 12.73C57.88 12.73 59.03 12.88 60.03 13.18C61.05 13.46 61.85 13.77 62.43 14.11L61.26 17.17C60.58 16.79 59.83 16.5 59.01 16.3C58.21 16.1 57.38 16 56.52 16C55.5 16 54.7 16.21 54.12 16.63C53.56 17.05 53.28 17.64 53.28 18.4C53.28 18.86 53.37 19.26 53.55 19.6C53.75 19.92 54.02 20.21 54.36 20.47C54.72 20.73 55.13 20.97 55.59 21.19C56.07 21.41 56.59 21.62 57.15 21.82C58.13 22.18 59 22.55 59.76 22.93C60.54 23.29 61.19 23.73 61.71 24.25C62.25 24.75 62.66 25.35 62.94 26.05C63.22 26.73 63.36 27.56 63.36 28.54C63.36 30.42 62.69 31.88 61.35 32.92C60.03 33.94 58.09 34.45 55.53 34.45C54.67 34.45 53.88 34.39 53.16 34.27C52.46 34.17 51.83 34.04 51.27 33.88C50.73 33.72 50.26 33.56 49.86 33.4C49.46 33.22 49.14 33.06 48.9 32.92L50.01 29.83C50.55 30.13 51.28 30.43 52.2 30.73C53.12 31.03 54.23 31.18 55.53 31.18ZM66.3312 14.17L69.9612 13.57V18.31H75.5412V21.34H69.9612V27.73C69.9612 28.99 70.1612 29.89 70.5612 30.43C70.9612 30.97 71.6412 31.24 72.6012 31.24C73.2612 31.24 73.8412 31.17 74.3412 31.03C74.8612 30.89 75.2712 30.76 75.5712 30.64L76.1712 33.52C75.7512 33.7 75.2012 33.88 74.5212 34.06C73.8412 34.26 73.0412 34.36 72.1212 34.36C71.0012 34.36 70.0612 34.21 69.3012 33.91C68.5612 33.61 67.9712 33.18 67.5312 32.62C67.0912 32.04 66.7812 31.35 66.6012 30.55C66.4212 29.73 66.3312 28.8 66.3312 27.76V14.17ZM92.8887 26.14C92.8887 27.38 92.7087 28.51 92.3487 29.53C91.9887 30.55 91.4787 31.42 90.8187 32.14C90.1587 32.86 89.3587 33.42 88.4187 33.82C87.4987 34.22 86.4787 34.42 85.3587 34.42C84.2387 34.42 83.2187 34.22 82.2987 33.82C81.3787 33.42 80.5887 32.86 79.9287 32.14C79.2687 31.42 78.7487 30.55 78.3687 29.53C78.0087 28.51 77.8287 27.38 77.8287 26.14C77.8287 24.9 78.0087 23.78 78.3687 22.78C78.7487 21.76 79.2687 20.89 79.9287 20.17C80.6087 19.45 81.4087 18.9 82.3287 18.52C83.2487 18.12 84.2587 17.92 85.3587 17.92C86.4587 17.92 87.4687 18.12 88.3887 18.52C89.3287 18.9 90.1287 19.45 90.7887 20.17C91.4487 20.89 91.9587 21.76 92.3187 22.78C92.6987 23.78 92.8887 24.9 92.8887 26.14ZM89.1687 26.14C89.1687 24.58 88.8287 23.35 88.1487 22.45C87.4887 21.53 86.5587 21.07 85.3587 21.07C84.1587 21.07 83.2187 21.53 82.5387 22.45C81.8787 23.35 81.5487 24.58 81.5487 26.14C81.5487 27.72 81.8787 28.97 82.5387 29.89C83.2187 30.81 84.1587 31.27 85.3587 31.27C86.5587 31.27 87.4887 30.81 88.1487 29.89C88.8287 28.97 89.1687 27.72 89.1687 26.14ZM105.568 21.58C105.268 21.48 104.848 21.38 104.308 21.28C103.788 21.16 103.178 21.1 102.478 21.1C102.078 21.1 101.648 21.14 101.188 21.22C100.748 21.3 100.438 21.37 100.258 21.43V34H96.6284V19.06C97.3284 18.8 98.1984 18.56 99.2384 18.34C100.298 18.1 101.468 17.98 102.748 17.98C102.988 17.98 103.268 18 103.588 18.04C103.908 18.06 104.228 18.1 104.548 18.16C104.868 18.2 105.178 18.26 105.478 18.34C105.778 18.4 106.018 18.46 106.198 18.52L105.568 21.58ZM114.248 31.45C115.368 31.45 116.218 31.39 116.798 31.27V27.25C116.598 27.19 116.308 27.13 115.928 27.07C115.548 27.01 115.128 26.98 114.668 26.98C114.268 26.98 113.858 27.01 113.438 27.07C113.038 27.13 112.668 27.24 112.328 27.4C112.008 27.56 111.748 27.79 111.548 28.09C111.348 28.37 111.248 28.73 111.248 29.17C111.248 30.03 111.518 30.63 112.058 30.97C112.598 31.29 113.328 31.45 114.248 31.45ZM113.948 17.92C115.148 17.92 116.158 18.07 116.978 18.37C117.798 18.67 118.448 19.09 118.928 19.63C119.428 20.17 119.778 20.83 119.978 21.61C120.198 22.37 120.308 23.21 120.308 24.13V33.64C119.748 33.76 118.898 33.9 117.758 34.06C116.638 34.24 115.368 34.33 113.948 34.33C113.008 34.33 112.148 34.24 111.368 34.06C110.588 33.88 109.918 33.59 109.358 33.19C108.818 32.79 108.388 32.27 108.068 31.63C107.768 30.99 107.618 30.2 107.618 29.26C107.618 28.36 107.788 27.6 108.128 26.98C108.488 26.36 108.968 25.86 109.568 25.48C110.168 25.08 110.858 24.8 111.638 24.64C112.438 24.46 113.268 24.37 114.128 24.37C114.528 24.37 114.948 24.4 115.388 24.46C115.828 24.5 116.298 24.58 116.798 24.7V24.1C116.798 23.68 116.748 23.28 116.648 22.9C116.548 22.52 116.368 22.19 116.108 21.91C115.868 21.61 115.538 21.38 115.118 21.22C114.718 21.06 114.208 20.98 113.588 20.98C112.748 20.98 111.978 21.04 111.278 21.16C110.578 21.28 110.008 21.42 109.568 21.58L109.118 18.64C109.578 18.48 110.248 18.32 111.128 18.16C112.008 18 112.948 17.92 113.948 17.92ZM127.603 25.75C127.603 27.29 127.933 28.42 128.593 29.14C129.273 29.84 130.143 30.19 131.203 30.19C131.783 30.19 132.323 30.11 132.823 29.95C133.343 29.79 133.763 29.6 134.083 29.38V21.25C133.823 21.19 133.503 21.14 133.123 21.1C132.743 21.04 132.263 21.01 131.683 21.01C130.363 21.01 129.353 21.45 128.653 22.33C127.953 23.19 127.603 24.33 127.603 25.75ZM137.713 32.41C137.713 34.91 137.073 36.74 135.793 37.9C134.533 39.06 132.593 39.64 129.973 39.64C129.013 39.64 128.073 39.56 127.153 39.4C126.253 39.24 125.433 39.03 124.693 38.77L125.353 35.68C125.973 35.94 126.673 36.15 127.453 36.31C128.253 36.47 129.113 36.55 130.033 36.55C131.493 36.55 132.533 36.25 133.153 35.65C133.773 35.05 134.083 34.16 134.083 32.98V32.38C133.723 32.56 133.243 32.74 132.643 32.92C132.063 33.1 131.393 33.19 130.633 33.19C129.633 33.19 128.713 33.03 127.873 32.71C127.053 32.39 126.343 31.92 125.743 31.3C125.163 30.68 124.703 29.91 124.363 28.99C124.043 28.05 123.883 26.97 123.883 25.75C123.883 24.61 124.053 23.56 124.393 22.6C124.753 21.64 125.263 20.82 125.923 20.14C126.603 19.46 127.423 18.93 128.383 18.55C129.343 18.17 130.433 17.98 131.653 17.98C132.833 17.98 133.953 18.07 135.013 18.25C136.073 18.43 136.973 18.62 137.713 18.82V32.41ZM141.461 26.23C141.461 24.85 141.661 23.64 142.061 22.6C142.481 21.56 143.031 20.7 143.711 20.02C144.391 19.32 145.171 18.8 146.051 18.46C146.931 18.1 147.831 17.92 148.751 17.92C150.911 17.92 152.591 18.59 153.791 19.93C155.011 21.27 155.621 23.27 155.621 25.93C155.621 26.13 155.611 26.36 155.591 26.62C155.591 26.86 155.581 27.08 155.561 27.28H145.211C145.311 28.54 145.751 29.52 146.531 30.22C147.331 30.9 148.481 31.24 149.981 31.24C150.861 31.24 151.661 31.16 152.381 31C153.121 30.84 153.701 30.67 154.121 30.49L154.601 33.46C154.401 33.56 154.121 33.67 153.761 33.79C153.421 33.89 153.021 33.98 152.561 34.06C152.121 34.16 151.641 34.24 151.121 34.3C150.601 34.36 150.071 34.39 149.531 34.39C148.151 34.39 146.951 34.19 145.931 33.79C144.911 33.37 144.071 32.8 143.411 32.08C142.751 31.34 142.261 30.48 141.941 29.5C141.621 28.5 141.461 27.41 141.461 26.23ZM151.991 24.61C151.991 24.11 151.921 23.64 151.781 23.2C151.641 22.74 151.431 22.35 151.151 22.03C150.891 21.69 150.561 21.43 150.161 21.25C149.781 21.05 149.321 20.95 148.781 20.95C148.221 20.95 147.731 21.06 147.311 21.28C146.891 21.48 146.531 21.75 146.231 22.09C145.951 22.43 145.731 22.82 145.571 23.26C145.411 23.7 145.301 24.15 145.241 24.61H151.991ZM167.66 34.45C166.24 34.45 165.02 34.25 164 33.85C162.98 33.43 162.13 32.85 161.45 32.11C160.79 31.37 160.3 30.5 159.98 29.5C159.66 28.5 159.5 27.4 159.5 26.2V13.21H163.31V25.84C163.31 26.78 163.41 27.59 163.61 28.27C163.83 28.93 164.13 29.47 164.51 29.89C164.91 30.31 165.37 30.62 165.89 30.82C166.43 31.02 167.03 31.12 167.69 31.12C168.35 31.12 168.95 31.02 169.49 30.82C170.03 30.62 170.49 30.31 170.87 29.89C171.27 29.47 171.57 28.93 171.77 28.27C171.99 27.59 172.1 26.78 172.1 25.84V13.21H175.91V26.2C175.91 27.4 175.74 28.5 175.4 29.5C175.08 30.5 174.58 31.37 173.9 32.11C173.24 32.85 172.39 33.43 171.35 33.85C170.31 34.25 169.08 34.45 167.66 34.45ZM190.974 26.23C190.974 24.61 190.604 23.35 189.864 22.45C189.144 21.55 187.974 21.1 186.354 21.1C186.014 21.1 185.654 21.12 185.274 21.16C184.914 21.18 184.554 21.24 184.194 21.34V30.31C184.514 30.53 184.934 30.74 185.454 30.94C185.994 31.12 186.564 31.21 187.164 31.21C188.484 31.21 189.444 30.76 190.044 29.86C190.664 28.96 190.974 27.75 190.974 26.23ZM194.694 26.17C194.694 27.37 194.534 28.47 194.214 29.47C193.914 30.47 193.474 31.33 192.894 32.05C192.314 32.77 191.584 33.33 190.704 33.73C189.844 34.13 188.864 34.33 187.764 34.33C187.024 34.33 186.344 34.24 185.724 34.06C185.104 33.88 184.594 33.68 184.194 33.46V39.55H180.564V18.82C181.304 18.62 182.214 18.43 183.294 18.25C184.374 18.07 185.514 17.98 186.714 17.98C187.954 17.98 189.064 18.17 190.044 18.55C191.024 18.93 191.854 19.48 192.534 20.2C193.234 20.9 193.764 21.76 194.124 22.78C194.504 23.78 194.694 24.91 194.694 26.17Z" fill="#64AEEA"/>
</svg>
