<svg width="24" height="24" viewBox="0 0 24 24" fill="none" xmlns="http://www.w3.org/2000/svg">
<path d="M9.55664 16.1177L9.55664 12.5882" stroke="#9C9C9C" stroke-width="1.5" stroke-linecap="round"/>
<path d="M14.4434 16.1177L14.4434 12.5882" stroke="#9C9C9C" stroke-width="1.5" stroke-linecap="round"/>
<path d="M1 6.70557H23V6.70557C21.4363 6.70557 20.6544 6.70557 20.1158 7.11886C19.9771 7.22526 19.853 7.34938 19.7466 7.48804C19.3333 8.02666 19.3333 8.80852 19.3333 10.3722V17.9999C19.3333 19.8855 19.3333 20.8283 18.7475 21.4141C18.1618 21.9999 17.219 21.9999 15.3333 21.9999H8.66667C6.78105 21.9999 5.83824 21.9999 5.25245 21.4141C4.66667 20.8283 4.66667 19.8855 4.66667 17.9999V10.3722C4.66667 8.80852 4.66667 8.02666 4.25337 7.48804C4.14697 7.34938 4.02285 7.22526 3.88419 7.11886C3.34557 6.70557 2.56372 6.70557 1 6.70557V6.70557Z" stroke="#9C9C9C" stroke-width="1.5" stroke-linecap="round"/>
<path d="M9.63874 2.43599C9.77801 2.31091 10.0849 2.20039 10.5118 2.12156C10.9387 2.04273 11.4618 2 11.9999 2C12.538 2 13.0611 2.04273 13.488 2.12156C13.9149 2.20039 14.2218 2.31091 14.361 2.43599" stroke="#9C9C9C" stroke-width="1.5" stroke-linecap="round"/>
</svg>
