<svg width="46" height="46" viewBox="0 0 46 46" fill="none" xmlns="http://www.w3.org/2000/svg">
<rect opacity="0.05" width="46" height="46" rx="5" fill="#FF938D"/>
<path d="M19.1034 16.177L18.8904 16.6029L19.1034 16.177ZM30.7457 21.9982L30.9587 21.5722L30.7457 21.9982ZM30.7457 23.7018L30.5328 23.2759L30.7457 23.7018ZM19.1034 29.523L19.3163 29.9489H19.3163L19.1034 29.523ZM37.5238 23C37.5238 31.0213 31.0213 37.5238 23 37.5238V38.4762C31.5473 38.4762 38.4762 31.5473 38.4762 23H37.5238ZM23 37.5238C14.9787 37.5238 8.47619 31.0213 8.47619 23H7.52381C7.52381 31.5473 14.4527 38.4762 23 38.4762V37.5238ZM8.47619 23C8.47619 14.9787 14.9787 8.47619 23 8.47619V7.52381C14.4527 7.52381 7.52381 14.4527 7.52381 23H8.47619ZM23 8.47619C31.0213 8.47619 37.5238 14.9787 37.5238 23H38.4762C38.4762 14.4527 31.5473 7.52381 23 7.52381V8.47619ZM18.8904 16.6029L30.5328 22.4241L30.9587 21.5722L19.3163 15.7511L18.8904 16.6029ZM30.5328 23.2759L18.8904 29.0971L19.3163 29.9489L30.9587 24.1278L30.5328 23.2759ZM16.9732 17.1992V28.5008H17.9256V17.1992H16.9732ZM18.8904 29.0971C18.4471 29.3187 17.9256 28.9964 17.9256 28.5008H16.9732C16.9732 29.7044 18.2398 30.4872 19.3163 29.9489L18.8904 29.0971ZM30.5328 22.4241C30.8838 22.5996 30.8838 23.1004 30.5328 23.2759L30.9587 24.1278C32.0116 23.6013 32.0116 22.0987 30.9587 21.5722L30.5328 22.4241ZM19.3163 15.7511C18.2398 15.2128 16.9732 15.9956 16.9732 17.1992H17.9256C17.9256 16.7036 18.4471 16.3813 18.8904 16.6029L19.3163 15.7511Z" fill="#FF938D"/>
</svg>
