<svg width="120" height="120" viewBox="0 0 120 120" fill="none" xmlns="http://www.w3.org/2000/svg">
<path d="M69.9966 6.92082L20.3333 40.2736V79.7264L54.3333 102.56V57.2493L99.6351 26.8255L109.214 32.0969C110.316 32.7034 111 33.8556 111 35.1062V83.5658C111 84.7039 110.433 85.7684 109.485 86.4094L77 108.376V95.106L99.6667 79.8835V40.0741L65.6667 62.9079V115.987L62.0608 118.409C60.8868 119.197 59.3472 119.197 58.1731 118.409L10.5242 86.4085C9.57101 85.7684 9 84.7008 9 83.5587V36.4413C9 35.2993 9.57101 34.2316 10.5242 33.5915L58.1732 1.59136C59.3473 0.802878 60.8868 0.802879 62.0609 1.59137L69.9966 6.92082Z" fill="#70BBF6"/>
<path d="M31.6667 74.0678V45.9322L79.8761 13.5557L89.7556 20.1906L43 51.5907V81.679L31.6667 74.0678Z" fill="#70BBF6"/>
<path d="M77 81.8362V68.5664L88.3333 60.9552V74.225L77 81.8362Z" fill="#70BBF6"/>
</svg>
